<?xml version="1.0" encoding="UTF-8" standalone="no"?>
<!DOCTYPE svg PUBLIC "-//W3C//DTD SVG 1.1//EN"
 "http://www.w3.org/Graphics/SVG/1.1/DTD/svg11.dtd">
<!-- Generated by graphviz version 2.42.4 (0)
 -->
<!-- Title: EventLoop::RegisterCgi Pages: 1 -->
<svg width="420pt" height="27pt"
 viewBox="0.00 0.00 420.00 27.00" xmlns="http://www.w3.org/2000/svg" xmlns:xlink="http://www.w3.org/1999/xlink">
<g id="graph0" class="graph" transform="scale(1 1) rotate(0) translate(4 23)">
<title>EventLoop::RegisterCgi</title>
<!-- Node1 -->
<g id="Node000001" class="node">
<title>Node1</title>
<g id="a_Node000001"><a xlink:title="Branche les pipes CGI sur le poll (B&#45;07)">
<polygon fill="#999999" stroke="#666666" points="130,-19 0,-19 0,0 130,0 130,-19"/>
<text text-anchor="middle" x="65" y="-7" font-family="Helvetica,sans-Serif" font-size="10.00">EventLoop::RegisterCgi</text>
</a>
</g>
</g>
<!-- Node2 -->
<g id="Node000002" class="node">
<title>Node2</title>
<g id="a_Node000002"><a xlink:href="classEventLoop.html#acc263db44eb3561bda0c7a531c707a18" target="_top" xlink:title="Utilise aussi par B&#45;07 pour les pipes CGI.">
<polygon fill="white" stroke="#666666" points="270,-19 166,-19 166,0 270,0 270,-19"/>
<text text-anchor="middle" x="218" y="-7" font-family="Helvetica,sans-Serif" font-size="10.00">EventLoop::AddFd</text>
</a>
</g>
</g>
<!-- Node1&#45;&gt;Node2 -->
<g id="edge1_Node000001_Node000002" class="edge">
<title>Node1&#45;&gt;Node2</title>
<g id="a_edge1_Node000001_Node000002"><a xlink:title=" ">
<path fill="none" stroke="#63b8ff" d="M130.04,-9.5C138.5,-9.5 147.15,-9.5 155.56,-9.5"/>
<polygon fill="#63b8ff" stroke="#63b8ff" points="155.67,-13 165.67,-9.5 155.67,-6 155.67,-13"/>
</a>
</g>
</g>
<!-- Node3 -->
<g id="Node000003" class="node">
<title>Node3</title>
<g id="a_Node000003"><a xlink:href="classEventLoop.html#a4064611cef5aca07311693bc8937fec6" target="_top" xlink:title="Index de fd dans _Pollfds, &#45;1 si absent.">
<polygon fill="white" stroke="#666666" points="412,-19 306,-19 306,0 412,0 412,-19"/>
<text text-anchor="middle" x="359" y="-7" font-family="Helvetica,sans-Serif" font-size="10.00">EventLoop::FindFd</text>
</a>
</g>
</g>
<!-- Node2&#45;&gt;Node3 -->
<g id="edge2_Node000002_Node000003" class="edge">
<title>Node2&#45;&gt;Node3</title>
<g id="a_edge2_Node000002_Node000003"><a xlink:title=" ">
<path fill="none" stroke="#63b8ff" d="M270.36,-9.5C278.61,-9.5 287.22,-9.5 295.69,-9.5"/>
<polygon fill="#63b8ff" stroke="#63b8ff" points="295.92,-13 305.92,-9.5 295.92,-6 295.92,-13"/>
</a>
</g>
</g>
</g>
</svg>
