<?xml version="1.0" encoding="UTF-8" standalone="no"?>
<!DOCTYPE svg PUBLIC "-//W3C//DTD SVG 1.1//EN"
 "http://www.w3.org/Graphics/SVG/1.1/DTD/svg11.dtd">
<!-- Generated by graphviz version 2.42.4 (0)
 -->
<!-- Title: ConfigParser::check_syntax Pages: 1 -->
<svg width="258pt" height="64pt"
 viewBox="0.00 0.00 258.00 64.00" xmlns="http://www.w3.org/2000/svg" xmlns:xlink="http://www.w3.org/1999/xlink">
<g id="graph0" class="graph" transform="scale(1 1) rotate(0) translate(4 60)">
<title>ConfigParser::check_syntax</title>
<!-- Node1 -->
<g id="Node000001" class="node">
<title>Node1</title>
<g id="a_Node000001"><a xlink:title="Passe 2 : valide la structure des tokens.">
<polygon fill="#999999" stroke="#666666" points="112,-42.5 0,-42.5 0,-12.5 112,-12.5 112,-42.5"/>
<text text-anchor="start" x="8" y="-30.5" font-family="Helvetica,sans-Serif" font-size="10.00">ConfigParser::check</text>
<text text-anchor="middle" x="56" y="-19.5" font-family="Helvetica,sans-Serif" font-size="10.00">_syntax</text>
</a>
</g>
</g>
<!-- Node2 -->
<g id="Node000002" class="node">
<title>Node2</title>
<g id="a_Node000002"><a xlink:href="utils_8cpp.html#a1b5a7a9af18908a3839a66bfaa7b0884" target="_top" xlink:title=" ">
<polygon fill="white" stroke="#666666" points="249.5,-56 148.5,-56 148.5,-37 249.5,-37 249.5,-56"/>
<text text-anchor="middle" x="199" y="-44" font-family="Helvetica,sans-Serif" font-size="10.00">check_valid_path</text>
</a>
</g>
</g>
<!-- Node1&#45;&gt;Node2 -->
<g id="edge1_Node000001_Node000002" class="edge">
<title>Node1&#45;&gt;Node2</title>
<g id="a_edge1_Node000001_Node000002"><a xlink:title=" ">
<path fill="none" stroke="#63b8ff" d="M112.32,-34.95C120.86,-36.11 129.71,-37.3 138.34,-38.46"/>
<polygon fill="#63b8ff" stroke="#63b8ff" points="137.96,-41.94 148.34,-39.81 138.9,-35 137.96,-41.94"/>
</a>
</g>
</g>
<!-- Node3 -->
<g id="Node000003" class="node">
<title>Node3</title>
<g id="a_Node000003"><a xlink:href="utils_8cpp.html#a24b9db616facc9dc6745c15ed0679f6b" target="_top" xlink:title="Contient toutes les directives (key) valides acceptees dans le .conf ex : &#45;&gt;listen&lt;&#45; 0....">
<polygon fill="white" stroke="#666666" points="250,-19 148,-19 148,0 250,0 250,-19"/>
<text text-anchor="middle" x="199" y="-7" font-family="Helvetica,sans-Serif" font-size="10.00">known_directives</text>
</a>
</g>
</g>
<!-- Node1&#45;&gt;Node3 -->
<g id="edge2_Node000001_Node000003" class="edge">
<title>Node1&#45;&gt;Node3</title>
<g id="a_edge2_Node000001_Node000003"><a xlink:title=" ">
<path fill="none" stroke="#63b8ff" d="M112.32,-20.44C120.66,-19.37 129.29,-18.27 137.73,-17.19"/>
<polygon fill="#63b8ff" stroke="#63b8ff" points="138.41,-20.64 147.89,-15.9 137.52,-13.69 138.41,-20.64"/>
</a>
</g>
</g>
</g>
</svg>
