<?xml version="1.0" encoding="UTF-8" standalone="no"?>
<!DOCTYPE svg PUBLIC "-//W3C//DTD SVG 1.1//EN"
 "http://www.w3.org/Graphics/SVG/1.1/DTD/svg11.dtd">
<!-- Generated by graphviz version 2.42.4 (0)
 -->
<!-- Title: Connection::SendErrorAndClose Pages: 1 -->
<svg width="834pt" height="401pt"
 viewBox="0.00 0.00 834.00 400.54" xmlns="http://www.w3.org/2000/svg" xmlns:xlink="http://www.w3.org/1999/xlink">
<g id="graph0" class="graph" transform="scale(1 1) rotate(0) translate(4 396.54)">
<title>Connection::SendErrorAndClose</title>
<!-- Node1 -->
<g id="Node000001" class="node">
<title>Node1</title>
<g id="a_Node000001"><a xlink:title="Envoie une reponse d&#39;erreur puis programme la fermeture.">
<polygon fill="#999999" stroke="#666666" points="143,-123.54 0,-123.54 0,-93.54 143,-93.54 143,-123.54"/>
<text text-anchor="start" x="8" y="-111.54" font-family="Helvetica,sans-Serif" font-size="10.00">Connection::SendErrorAnd</text>
<text text-anchor="middle" x="71.5" y="-100.54" font-family="Helvetica,sans-Serif" font-size="10.00">Close</text>
</a>
</g>
</g>
<!-- Node2 -->
<g id="Node000002" class="node">
<title>Node2</title>
<g id="a_Node000002"><a xlink:href="classResponse.html#aeaa3673db99a8c45772c3a5a5b949c4a" target="_top" xlink:title="Lit le fichier d&#39;erreur s&#39;il existe, sinon cree un built in, renvoie le tout comme reponse.">
<polygon fill="white" stroke="#666666" points="309,-249.04 191,-249.04 191,-230.04 309,-230.04 309,-249.04"/>
<text text-anchor="middle" x="250" y="-237.04" font-family="Helvetica,sans-Serif" font-size="10.00">Response::BuildError</text>
</a>
</g>
</g>
<!-- Node1&#45;&gt;Node2 -->
<g id="edge1_Node000001_Node000002" class="edge">
<title>Node1&#45;&gt;Node2</title>
<g id="a_edge1_Node000001_Node000002"><a xlink:title=" ">
<path fill="none" stroke="#63b8ff" d="M92.75,-123.56C126.33,-148.49 193.24,-198.15 227.58,-223.64"/>
<polygon fill="#63b8ff" stroke="#63b8ff" points="225.84,-226.71 235.96,-229.86 230.01,-221.09 225.84,-226.71"/>
</a>
</g>
</g>
<!-- Node4 -->
<g id="Node000004" class="node">
<title>Node4</title>
<g id="a_Node000004"><a xlink:href="classResponse.html#a2b91a2e06e39090e0ec2dfde64820dbb" target="_top" xlink:title="Cree un body de reponse http en fonction de l&#39;erreur.">
<polygon fill="white" stroke="#666666" points="505.5,-392.54 360.5,-392.54 360.5,-362.54 505.5,-362.54 505.5,-392.54"/>
<text text-anchor="start" x="368.5" y="-380.54" font-family="Helvetica,sans-Serif" font-size="10.00">Response::generateBuiltIn</text>
<text text-anchor="middle" x="433" y="-369.54" font-family="Helvetica,sans-Serif" font-size="10.00">Error</text>
</a>
</g>
</g>
<!-- Node1&#45;&gt;Node4 -->
<g id="edge13_Node000001_Node000004" class="edge">
<title>Node1&#45;&gt;Node4</title>
<g id="a_edge13_Node000001_Node000004"><a xlink:title=" ">
<path fill="none" stroke="#63b8ff" d="M80.27,-123.92C95.7,-153.23 132.73,-217.81 179,-258.54 235.02,-307.85 315.02,-340.86 369.99,-359.36"/>
<polygon fill="#63b8ff" stroke="#63b8ff" points="369.01,-362.72 379.6,-362.53 371.21,-356.07 369.01,-362.72"/>
</a>
</g>
</g>
<!-- Node6 -->
<g id="Node000006" class="node">
<title>Node6</title>
<g id="a_Node000006"><a xlink:href="classResponse.html#a57e91a47a4522fa82bd99dd7464e1c87" target="_top" xlink:title=" ">
<polygon fill="white" stroke="#666666" points="826,-118.04 705,-118.04 705,-99.04 826,-99.04 826,-118.04"/>
<text text-anchor="middle" x="765.5" y="-106.04" font-family="Helvetica,sans-Serif" font-size="10.00">Response::SetHeader</text>
</a>
</g>
</g>
<!-- Node1&#45;&gt;Node6 -->
<g id="edge20_Node000001_Node000006" class="edge">
<title>Node1&#45;&gt;Node6</title>
<g id="a_edge20_Node000001_Node000006"><a xlink:title=" ">
<path fill="none" stroke="#63b8ff" d="M143.3,-108.54C276.42,-108.54 562.46,-108.54 694.76,-108.54"/>
<polygon fill="#63b8ff" stroke="#63b8ff" points="694.78,-112.04 704.78,-108.54 694.78,-105.04 694.78,-112.04"/>
</a>
</g>
</g>
<!-- Node10 -->
<g id="Node000010" class="node">
<title>Node10</title>
<g id="a_Node000010"><a xlink:href="classResponse.html#a7f9b175d957559236e0b065e4d495963" target="_top" xlink:title="pose _StatusCode ET _StatusText">
<polygon fill="white" stroke="#666666" points="491,-156.04 375,-156.04 375,-137.04 491,-137.04 491,-156.04"/>
<text text-anchor="middle" x="433" y="-144.04" font-family="Helvetica,sans-Serif" font-size="10.00">Response::SetStatus</text>
</a>
</g>
</g>
<!-- Node1&#45;&gt;Node10 -->
<g id="edge21_Node000001_Node000010" class="edge">
<title>Node1&#45;&gt;Node10</title>
<g id="a_edge21_Node000001_Node000010"><a xlink:title=" ">
<path fill="none" stroke="#63b8ff" d="M143.21,-118.2C155.14,-119.72 167.42,-121.23 179,-122.54 241.86,-129.65 313.66,-136.32 364.68,-140.82"/>
<polygon fill="#63b8ff" stroke="#63b8ff" points="364.65,-144.33 374.92,-141.71 365.26,-137.35 364.65,-144.33"/>
</a>
</g>
</g>
<!-- Node12 -->
<g id="Node000012" class="node">
<title>Node12</title>
<g id="a_Node000012"><a xlink:href="classRequest.html#a77c68b828229478cad061649775c7147" target="_top" xlink:title=" ">
<polygon fill="white" stroke="#666666" points="320,-80.04 180,-80.04 180,-61.04 320,-61.04 320,-80.04"/>
<text text-anchor="middle" x="250" y="-68.04" font-family="Helvetica,sans-Serif" font-size="10.00">Request::getServerConfig</text>
</a>
</g>
</g>
<!-- Node1&#45;&gt;Node12 -->
<g id="edge14_Node000001_Node000012" class="edge">
<title>Node1&#45;&gt;Node12</title>
<g id="a_edge14_Node000001_Node000012"><a xlink:title=" ">
<path fill="none" stroke="#63b8ff" d="M142.26,-93.52C159.73,-89.76 178.22,-85.78 194.81,-82.2"/>
<polygon fill="#63b8ff" stroke="#63b8ff" points="195.83,-85.56 204.87,-80.04 194.36,-78.72 195.83,-85.56"/>
</a>
</g>
</g>
<!-- Node13 -->
<g id="Node000013" class="node">
<title>Node13</title>
<g id="a_Node000013"><a xlink:href="classConnection.html#a3173c0d4dda7d8d6d0b5e20c8fa4ca35" target="_top" xlink:title="append in the string _OutBuf when the request in done then change the State for Writing connection">
<polygon fill="white" stroke="#666666" points="321,-43.04 179,-43.04 179,-24.04 321,-24.04 321,-43.04"/>
<text text-anchor="middle" x="250" y="-31.04" font-family="Helvetica,sans-Serif" font-size="10.00">Connection::QueueOutput</text>
</a>
</g>
</g>
<!-- Node1&#45;&gt;Node13 -->
<g id="edge15_Node000001_Node000013" class="edge">
<title>Node1&#45;&gt;Node13</title>
<g id="a_edge15_Node000001_Node000013"><a xlink:title=" ">
<path fill="none" stroke="#63b8ff" d="M96.66,-93.44C117.74,-80.8 149.49,-63.03 179,-51.54 184.19,-49.52 189.68,-47.65 195.22,-45.96"/>
<polygon fill="#63b8ff" stroke="#63b8ff" points="196.54,-49.22 205.17,-43.08 194.59,-42.49 196.54,-49.22"/>
</a>
</g>
</g>
<!-- Node14 -->
<g id="Node000014" class="node">
<title>Node14</title>
<g id="a_Node000014"><a xlink:href="classResponse.html#a8851d9a332f43f66d2964b7c6f4bf0f7" target="_top" xlink:title="Serialise la reponse HTTP en une chaine prete a etre envoyee sur le socket.">
<polygon fill="white" stroke="#666666" points="489,-42.04 377,-42.04 377,-23.04 489,-23.04 489,-42.04"/>
<text text-anchor="middle" x="433" y="-30.04" font-family="Helvetica,sans-Serif" font-size="10.00">Response::Serialize</text>
</a>
</g>
</g>
<!-- Node1&#45;&gt;Node14 -->
<g id="edge16_Node000001_Node000014" class="edge">
<title>Node1&#45;&gt;Node14</title>
<g id="a_edge16_Node000001_Node000014"><a xlink:title=" ">
<path fill="none" stroke="#63b8ff" d="M83.53,-93.49C100.9,-71.23 137.02,-30.41 179,-14.54 251.06,12.71 342.78,-5.69 393.64,-20.07"/>
<polygon fill="#63b8ff" stroke="#63b8ff" points="392.97,-23.52 403.55,-22.97 394.94,-16.8 392.97,-23.52"/>
</a>
</g>
</g>
<!-- Node3 -->
<g id="Node000003" class="node">
<title>Node3</title>
<g id="a_Node000003"><a xlink:href="classServerConfig.html#abc10b3c8133bbe2715745435befd5c76" target="_top" xlink:title="Traduit une URI en chemin disque via le root de la location.">
<polygon fill="white" stroke="#666666" points="501,-344.04 365,-344.04 365,-325.04 501,-325.04 501,-344.04"/>
<text text-anchor="middle" x="433" y="-332.04" font-family="Helvetica,sans-Serif" font-size="10.00">ServerConfig::build_path</text>
</a>
</g>
</g>
<!-- Node2&#45;&gt;Node3 -->
<g id="edge2_Node000002_Node000003" class="edge">
<title>Node2&#45;&gt;Node3</title>
<g id="a_edge2_Node000002_Node000003"><a xlink:title=" ">
<path fill="none" stroke="#63b8ff" d="M263.04,-249.26C282.02,-264.2 320.5,-292.91 357,-310.54 365.86,-314.82 375.67,-318.59 385.19,-321.8"/>
<polygon fill="#63b8ff" stroke="#63b8ff" points="384.37,-325.21 394.96,-324.94 386.51,-318.55 384.37,-325.21"/>
</a>
</g>
</g>
<!-- Node2&#45;&gt;Node4 -->
<g id="edge3_Node000002_Node000004" class="edge">
<title>Node2&#45;&gt;Node4</title>
<g id="a_edge3_Node000002_Node000004"><a xlink:title=" ">
<path fill="none" stroke="#63b8ff" d="M262.84,-249.06C277.34,-261.01 302.28,-282.5 321,-303.54 339.2,-324 334.85,-337.44 357,-353.54 359.08,-355.05 361.26,-356.47 363.51,-357.8"/>
<polygon fill="#63b8ff" stroke="#63b8ff" points="362.03,-360.97 372.51,-362.52 365.28,-354.77 362.03,-360.97"/>
</a>
</g>
</g>
<!-- Node5 -->
<g id="Node000005" class="node">
<title>Node5</title>
<g id="a_Node000005"><a xlink:href="classResponse.html#a38d47b3fe3909d0a6851c8f672fa4c8b" target="_top" xlink:title="pose aussi Content&#45;Length">
<polygon fill="white" stroke="#666666" points="662,-306.04 552,-306.04 552,-287.04 662,-287.04 662,-306.04"/>
<text text-anchor="middle" x="607" y="-294.04" font-family="Helvetica,sans-Serif" font-size="10.00">Response::SetBody</text>
</a>
</g>
</g>
<!-- Node2&#45;&gt;Node5 -->
<g id="edge9_Node000002_Node000005" class="edge">
<title>Node2&#45;&gt;Node5</title>
<g id="a_edge9_Node000002_Node000005"><a xlink:title=" ">
<path fill="none" stroke="#63b8ff" d="M276.32,-249.04C297.56,-256.61 328.85,-266.86 357,-272.54 418.93,-285.02 490.89,-291.07 541.47,-293.96"/>
<polygon fill="#63b8ff" stroke="#63b8ff" points="541.44,-297.46 551.61,-294.52 541.82,-290.48 541.44,-297.46"/>
</a>
</g>
</g>
<!-- Node2&#45;&gt;Node6 -->
<g id="edge10_Node000002_Node000006" class="edge">
<title>Node2&#45;&gt;Node6</title>
<g id="a_edge10_Node000002_Node000006"><a xlink:title=" ">
<path fill="none" stroke="#63b8ff" d="M309.26,-248.39C394.11,-258.32 554.07,-265.68 669,-202.54 703.95,-183.34 734.9,-147.72 751.55,-126.26"/>
<polygon fill="#63b8ff" stroke="#63b8ff" points="754.35,-128.37 757.59,-118.28 748.76,-124.15 754.35,-128.37"/>
</a>
</g>
</g>
<!-- Node7 -->
<g id="Node000007" class="node">
<title>Node7</title>
<g id="a_Node000007"><a xlink:href="classServerConfig.html#a81447d6457e725384798527b8587ccaa" target="_top" xlink:title=" ">
<polygon fill="white" stroke="#666666" points="509,-230.04 357,-230.04 357,-211.04 509,-211.04 509,-230.04"/>
<text text-anchor="middle" x="433" y="-218.04" font-family="Helvetica,sans-Serif" font-size="10.00">ServerConfig::getErrorPages</text>
</a>
</g>
</g>
<!-- Node2&#45;&gt;Node7 -->
<g id="edge6_Node000002_Node000007" class="edge">
<title>Node2&#45;&gt;Node7</title>
<g id="a_edge6_Node000002_Node000007"><a xlink:title=" ">
<path fill="none" stroke="#63b8ff" d="M309.27,-233.42C321.25,-232.16 334.11,-230.81 346.82,-229.48"/>
<polygon fill="#63b8ff" stroke="#63b8ff" points="347.39,-232.94 356.97,-228.41 346.66,-225.98 347.39,-232.94"/>
</a>
</g>
</g>
<!-- Node8 -->
<g id="Node000008" class="node">
<title>Node8</title>
<g id="a_Node000008"><a xlink:href="classServerConfig.html#aa65c203b34f8636d4f9f1dbcd8e157be" target="_top" xlink:title="La location matchant l&#39;URI, prefixe le plus long.">
<polygon fill="white" stroke="#666666" points="495,-193.04 371,-193.04 371,-174.04 495,-174.04 495,-193.04"/>
<text text-anchor="middle" x="433" y="-181.04" font-family="Helvetica,sans-Serif" font-size="10.00">ServerConfig::Resolve</text>
</a>
</g>
</g>
<!-- Node2&#45;&gt;Node8 -->
<g id="edge7_Node000002_Node000008" class="edge">
<title>Node2&#45;&gt;Node8</title>
<g id="a_edge7_Node000002_Node000008"><a xlink:title=" ">
<path fill="none" stroke="#63b8ff" d="M276.5,-229.93C297.84,-222.06 329.19,-210.9 357,-202.54 365.04,-200.12 373.63,-197.75 382.02,-195.55"/>
<polygon fill="#63b8ff" stroke="#63b8ff" points="382.92,-198.93 391.73,-193.05 381.17,-192.15 382.92,-198.93"/>
</a>
</g>
</g>
<!-- Node2&#45;&gt;Node10 -->
<g id="edge11_Node000002_Node000010" class="edge">
<title>Node2&#45;&gt;Node10</title>
<g id="a_edge11_Node000002_Node000010"><a xlink:title=" ">
<path fill="none" stroke="#63b8ff" d="M261.93,-229.86C280.28,-214.09 319.03,-182.89 357,-165.54 362.32,-163.1 368,-160.95 373.77,-159.05"/>
<polygon fill="#63b8ff" stroke="#63b8ff" points="374.96,-162.34 383.5,-156.08 372.92,-155.65 374.96,-162.34"/>
</a>
</g>
</g>
<!-- Node4&#45;&gt;Node5 -->
<g id="edge4_Node000004_Node000005" class="edge">
<title>Node4&#45;&gt;Node5</title>
<g id="a_edge4_Node000004_Node000005"><a xlink:title=" ">
<path fill="none" stroke="#63b8ff" d="M486.2,-362.48C493.95,-359.78 501.76,-356.77 509,-353.54 535.66,-341.61 564.27,-324.17 583.46,-311.73"/>
<polygon fill="#63b8ff" stroke="#63b8ff" points="585.64,-314.48 592.07,-306.06 581.79,-308.63 585.64,-314.48"/>
</a>
</g>
</g>
<!-- Node5&#45;&gt;Node6 -->
<g id="edge5_Node000005_Node000006" class="edge">
<title>Node5&#45;&gt;Node6</title>
<g id="a_edge5_Node000005_Node000006"><a xlink:title=" ">
<path fill="none" stroke="#63b8ff" d="M643.78,-287.02C652.68,-283.49 661.75,-278.76 669,-272.54 716.38,-231.88 745.94,-161.56 758.11,-127.76"/>
<polygon fill="#63b8ff" stroke="#63b8ff" points="761.47,-128.75 761.44,-118.16 754.86,-126.45 761.47,-128.75"/>
</a>
</g>
</g>
<!-- Node9 -->
<g id="Node000009" class="node">
<title>Node9</title>
<g id="a_Node000009"><a xlink:href="utils_8cpp.html#a6c5106f7f4691c9fcce1d810962fbe8f" target="_top" xlink:title="check si le prefixe path s&#39;arrete sur une frontiere de segment de l&#39;URI">
<polygon fill="white" stroke="#666666" points="669,-193.04 545,-193.04 545,-174.04 669,-174.04 669,-193.04"/>
<text text-anchor="middle" x="607" y="-181.04" font-family="Helvetica,sans-Serif" font-size="10.00">is_segment_boundary</text>
</a>
</g>
</g>
<!-- Node8&#45;&gt;Node9 -->
<g id="edge8_Node000008_Node000009" class="edge">
<title>Node8&#45;&gt;Node9</title>
<g id="a_edge8_Node000008_Node000009"><a xlink:title=" ">
<path fill="none" stroke="#63b8ff" d="M495.13,-183.54C507.85,-183.54 521.37,-183.54 534.43,-183.54"/>
<polygon fill="#63b8ff" stroke="#63b8ff" points="534.78,-187.04 544.78,-183.54 534.78,-180.04 534.78,-187.04"/>
</a>
</g>
</g>
<!-- Node11 -->
<g id="Node000011" class="node">
<title>Node11</title>
<g id="a_Node000011"><a xlink:href="Response_8cpp.html#a3c5697cdaf5346a857f580182a004a6a" target="_top" xlink:title=" ">
<polygon fill="white" stroke="#666666" points="641,-156.04 573,-156.04 573,-137.04 641,-137.04 641,-156.04"/>
<text text-anchor="middle" x="607" y="-144.04" font-family="Helvetica,sans-Serif" font-size="10.00">StatusText</text>
</a>
</g>
</g>
<!-- Node10&#45;&gt;Node11 -->
<g id="edge12_Node000010_Node000011" class="edge">
<title>Node10&#45;&gt;Node11</title>
<g id="a_edge12_Node000010_Node000011"><a xlink:title=" ">
<path fill="none" stroke="#63b8ff" d="M491.27,-146.54C514.54,-146.54 540.97,-146.54 562.59,-146.54"/>
<polygon fill="#63b8ff" stroke="#63b8ff" points="562.79,-150.04 572.79,-146.54 562.79,-143.04 562.79,-150.04"/>
</a>
</g>
</g>
<!-- Node14&#45;&gt;Node6 -->
<g id="edge19_Node000014_Node000006" class="edge">
<title>Node14&#45;&gt;Node6</title>
<g id="a_edge19_Node000014_Node000006"><a xlink:title=" ">
<path fill="none" stroke="#63b8ff" d="M475.52,-42.09C535.84,-55.95 647.6,-81.66 713.05,-96.71"/>
<polygon fill="#63b8ff" stroke="#63b8ff" points="712.62,-100.2 723.15,-99.03 714.19,-93.38 712.62,-100.2"/>
</a>
</g>
</g>
<!-- Node15 -->
<g id="Node000015" class="node">
<title>Node15</title>
<g id="a_Node000015"><a xlink:href="classResponse.html#acbc922c139261ea3a71a7880d78c317f" target="_top" xlink:title="Calcule et ajoute aux headers la date en anglais a l&#39;instant T.">
<polygon fill="white" stroke="#666666" points="661,-42.04 553,-42.04 553,-23.04 661,-23.04 661,-42.04"/>
<text text-anchor="middle" x="607" y="-30.04" font-family="Helvetica,sans-Serif" font-size="10.00">Response::setDate</text>
</a>
</g>
</g>
<!-- Node14&#45;&gt;Node15 -->
<g id="edge17_Node000014_Node000015" class="edge">
<title>Node14&#45;&gt;Node15</title>
<g id="a_edge17_Node000014_Node000015"><a xlink:title=" ">
<path fill="none" stroke="#63b8ff" d="M489.37,-32.54C506.36,-32.54 525.19,-32.54 542.67,-32.54"/>
<polygon fill="#63b8ff" stroke="#63b8ff" points="542.79,-36.04 552.79,-32.54 542.79,-29.04 542.79,-36.04"/>
</a>
</g>
</g>
<!-- Node15&#45;&gt;Node6 -->
<g id="edge18_Node000015_Node000006" class="edge">
<title>Node15&#45;&gt;Node6</title>
<g id="a_edge18_Node000015_Node000006"><a xlink:title=" ">
<path fill="none" stroke="#63b8ff" d="M634.42,-42.11C645.27,-46.25 657.86,-51.34 669,-56.54 693.44,-67.94 720.34,-82.81 739.35,-93.73"/>
<polygon fill="#63b8ff" stroke="#63b8ff" points="737.85,-96.91 748.26,-98.89 741.36,-90.85 737.85,-96.91"/>
</a>
</g>
</g>
</g>
</svg>
