<?xml version="1.0" encoding="UTF-8" standalone="no"?>
<!DOCTYPE svg PUBLIC "-//W3C//DTD SVG 1.1//EN"
 "http://www.w3.org/Graphics/SVG/1.1/DTD/svg11.dtd">
<!-- Generated by graphviz version 2.42.4 (0)
 -->
<!-- Title: ConfigParser::fill_one_server Pages: 1 -->
<!--zoomable 471 -->

<svg id="main" version="1.1" xmlns="http://www.w3.org/2000/svg" xmlns:xlink="http://www.w3.org/1999/xlink" xml:space="preserve" onload="init(evt)">
<style type="text/css"><![CDATA[
.node, .edge {opacity: 0.7;}
.node.selected, .edge.selected {opacity: 1;}
.edge:hover path { stroke: red; }
.edge:hover polygon { stroke: red; fill: red; }
]]></style>

<defs>
  <circle id="rim" cx="0" cy="0" r="7"/>
  <circle id="rim2" cx="0" cy="0" r="3.5"/>
  <g id="zoomPlus">
    <use xlink:href="#rim" fill="#404040"><set attributeName="fill" to="#808080" begin="zoomplus.mouseover" end="zoomplus.mouseout"/></use>
    <path d="M-4,0h8M0,-4v8" fill="none" stroke="white" stroke-width="1.5" pointer-events="none"/>
  </g>
  <g id="zoomMin">
    <use xlink:href="#rim" fill="#404040"><set attributeName="fill" to="#808080" begin="zoomminus.mouseover" end="zoomminus.mouseout"/></use>
    <path d="M-4,0h8" fill="none" stroke="white" stroke-width="1.5" pointer-events="none"/>
  </g>
  <g id="arrowUp" transform="translate(30 24)">
    <use xlink:href="#rim"/>
    <path pointer-events="none" fill="none" stroke="white" stroke-width="1.5" d="M0,-3.0v7 M-2.5,-0.5L0,-3.0L2.5,-0.5"/>
  </g>
  <g id="arrowRight" transform="rotate(90) translate(36 -43)">
    <use xlink:href="#rim"/>
    <path pointer-events="none" fill="none" stroke="white" stroke-width="1.5" d="M0,-3.0v7 M-2.5,-0.5L0,-3.0L2.5,-0.5"/>
  </g>
  <g id="arrowDown" transform="rotate(180) translate(-30 -48)">
    <use xlink:href="#rim"/>
    <path pointer-events="none" fill="none" stroke="white" stroke-width="1.5" d="M0,-3.0v7 M-2.5,-0.5L0,-3.0L2.5,-0.5"/>
  </g>
  <g id="arrowLeft" transform="rotate(270) translate(-36 17)">
    <use xlink:href="#rim"/>
    <path pointer-events="none" fill="none" stroke="white" stroke-width="1.5" d="M0,-3.0v7 M-2.5,-0.5L0,-3.0L2.5,-0.5"/>
  </g>
  <g id="resetDef">
    <use xlink:href="#rim2" fill="#404040"><set attributeName="fill" to="#808080" begin="reset.mouseover" end="reset.mouseout"/></use>
  </g>
</defs>
<script type="application/ecmascript">
var viewWidth = 575;
var viewHeight = 471;
var sectionId = 'dynsection-1';
</script>
<script type="application/ecmascript" xlink:href="svg.min.js"/>
<svg id="graph" class="graph">
<g id="viewport">
<title>ConfigParser::fill_one_server</title>
<!-- Node1 -->
<g id="Node000001" class="node">
<title>Node1</title>
<g id="a_Node000001"><a xlink:title="Remplit un seul bloc server.">
<polygon fill="#999999" stroke="#666666" points="95,-320.5 0,-320.5 0,-290.5 95,-290.5 95,-320.5"/>
<text text-anchor="start" x="8" y="-308.5" font-family="Helvetica,sans-Serif" font-size="10.00">ConfigParser::fill</text>
<text text-anchor="middle" x="47.5" y="-297.5" font-family="Helvetica,sans-Serif" font-size="10.00">_one_server</text>
</a>
</g>
</g>
<!-- Node2 -->
<g id="Node000002" class="node">
<title>Node2</title>
<g id="a_Node000002"><a xlink:href="utils_8cpp.html#a4bd4204c0a89d7173d4e1c400770b74f" target="_top" xlink:title="Remplit un vecteur de toutes les valeurs associees a une key.">
<polygon fill="white" stroke="#666666" points="405.5,-463 319.5,-463 319.5,-444 405.5,-444 405.5,-463"/>
<text text-anchor="middle" x="362.5" y="-451" font-family="Helvetica,sans-Serif" font-size="10.00">collect_values</text>
</a>
</g>
</g>
<!-- Node1&#45;&gt;Node2 -->
<g id="edge1_Node000001_Node000002" class="edge">
<title>Node1&#45;&gt;Node2</title>
<g id="a_edge1_Node000001_Node000002"><a xlink:title=" ">
<path fill="none" stroke="#63b8ff" d="M62.74,-320.62C78.27,-336.36 104.45,-360.88 131,-376.5 187.69,-409.86 260.82,-431.15 309.35,-442.69"/>
<polygon fill="#63b8ff" stroke="#63b8ff" points="308.78,-446.15 319.31,-445.01 310.36,-439.34 308.78,-446.15"/>
</a>
</g>
</g>
<!-- Node3 -->
<g id="Node000003" class="node">
<title>Node3</title>
<g id="a_Node000003"><a xlink:href="utils_8cpp.html#ac3d997aa0c902e9a392a2fefa13dcaf3" target="_top" xlink:title="Fait la conversion de la value donnee par client_max_body_size en size_t Check si un suffixe de taill...">
<polygon fill="white" stroke="#666666" points="411.5,-426 313.5,-426 313.5,-407 411.5,-407 411.5,-426"/>
<text text-anchor="middle" x="362.5" y="-414" font-family="Helvetica,sans-Serif" font-size="10.00">parse_body_size</text>
</a>
</g>
</g>
<!-- Node1&#45;&gt;Node3 -->
<g id="edge2_Node000001_Node000003" class="edge">
<title>Node1&#45;&gt;Node3</title>
<g id="a_edge2_Node000001_Node000003"><a xlink:title=" ">
<path fill="none" stroke="#63b8ff" d="M83.79,-320.52C130.59,-340.1 216.02,-374.64 291,-398.5 297.39,-400.53 304.16,-402.5 310.88,-404.33"/>
<polygon fill="#63b8ff" stroke="#63b8ff" points="310.07,-407.74 320.64,-406.92 311.87,-400.97 310.07,-407.74"/>
</a>
</g>
</g>
<!-- Node4 -->
<g id="Node000004" class="node">
<title>Node4</title>
<g id="a_Node000004"><a xlink:href="utils_8cpp.html#aa9316ac37e6cdff2f42ebfe1272e0976" target="_top" xlink:title="Cree une map STL contenant le code d&#39;erreur associe au PATH de la page dediee Check si le code d&#39;erre...">
<polygon fill="white" stroke="#666666" points="246.5,-272 139.5,-272 139.5,-253 246.5,-253 246.5,-272"/>
<text text-anchor="middle" x="193" y="-260" font-family="Helvetica,sans-Serif" font-size="10.00">parse_error_pages</text>
</a>
</g>
</g>
<!-- Node1&#45;&gt;Node4 -->
<g id="edge3_Node000001_Node000004" class="edge">
<title>Node1&#45;&gt;Node4</title>
<g id="a_edge3_Node000001_Node000004"><a xlink:title=" ">
<path fill="none" stroke="#63b8ff" d="M95.09,-291.54C112.88,-286.21 133.03,-280.17 150.33,-274.99"/>
<polygon fill="#63b8ff" stroke="#63b8ff" points="151.57,-278.27 160.14,-272.05 149.56,-271.56 151.57,-278.27"/>
</a>
</g>
</g>
<!-- Node5 -->
<g id="Node000005" class="node">
<title>Node5</title>
<g id="a_Node000005"><a xlink:href="listen_8cpp.html#ac357b301ac0bd6aa2982b731b8835e33" target="_top" xlink:title="Valide les arguments donner a l&#39;instruction listen.">
<polygon fill="white" stroke="#666666" points="255,-75 131,-75 131,-56 255,-56 255,-75"/>
<text text-anchor="middle" x="193" y="-63" font-family="Helvetica,sans-Serif" font-size="10.00">parse_listen_directive</text>
</a>
</g>
</g>
<!-- Node1&#45;&gt;Node5 -->
<g id="edge4_Node000001_Node000005" class="edge">
<title>Node1&#45;&gt;Node5</title>
<g id="a_edge4_Node000001_Node000005"><a xlink:title=" ">
<path fill="none" stroke="#63b8ff" d="M57.48,-290.49C82.62,-248.43 153.71,-129.54 181.08,-83.77"/>
<polygon fill="#63b8ff" stroke="#63b8ff" points="184.09,-85.55 186.22,-75.17 178.08,-81.96 184.09,-85.55"/>
</a>
</g>
</g>
<!-- Node11 -->
<g id="Node000011" class="node">
<title>Node11</title>
<g id="a_Node000011"><a xlink:href="classLocationConfig.html#a65be75a5ac5c9a662d497d51667144bb" target="_top" xlink:title="Fonction d&#39;entree pour le parsing des blocs location contenus dans chaque bloc serveur.">
<polygon fill="white" stroke="#666666" points="254,-320.5 132,-320.5 132,-290.5 254,-290.5 254,-320.5"/>
<text text-anchor="start" x="140" y="-308.5" font-family="Helvetica,sans-Serif" font-size="10.00">LocationConfig::parse</text>
<text text-anchor="middle" x="193" y="-297.5" font-family="Helvetica,sans-Serif" font-size="10.00">_location</text>
</a>
</g>
</g>
<!-- Node1&#45;&gt;Node11 -->
<g id="edge10_Node000001_Node000011" class="edge">
<title>Node1&#45;&gt;Node11</title>
<g id="a_edge10_Node000001_Node000011"><a xlink:title=" ">
<path fill="none" stroke="#63b8ff" d="M95.09,-305.5C103.59,-305.5 112.64,-305.5 121.65,-305.5"/>
<polygon fill="#63b8ff" stroke="#63b8ff" points="121.78,-309 131.78,-305.5 121.78,-302 121.78,-309"/>
</a>
</g>
</g>
<!-- Node6 -->
<g id="Node000006" class="node">
<title>Node6</title>
<g id="a_Node000006"><a xlink:href="utils_8cpp.html#aef002d3eb1502801a5e459db083a4115" target="_top" xlink:title="Contient toutes les parametres de listen existant dans NGINX.">
<polygon fill="white" stroke="#666666" points="434,-93 291,-93 291,-74 434,-74 434,-93"/>
<text text-anchor="middle" x="362.5" y="-81" font-family="Helvetica,sans-Serif" font-size="10.00">known_listen_parameters</text>
</a>
</g>
</g>
<!-- Node5&#45;&gt;Node6 -->
<g id="edge5_Node000005_Node000006" class="edge">
<title>Node5&#45;&gt;Node6</title>
<g id="a_edge5_Node000005_Node000006"><a xlink:title=" ">
<path fill="none" stroke="#63b8ff" d="M255.42,-72.1C263.67,-72.99 272.24,-73.91 280.77,-74.82"/>
<polygon fill="#63b8ff" stroke="#63b8ff" points="280.42,-78.31 290.73,-75.9 281.16,-71.35 280.42,-78.31"/>
</a>
</g>
</g>
<!-- Node7 -->
<g id="Node000007" class="node">
<title>Node7</title>
<g id="a_Node000007"><a xlink:href="listen_8cpp.html#a8d21fa43b58b1d7a4c2ab1241aa79908" target="_top" xlink:title="Resout une adresse de directive listen en une ou plusieurs IPv4.">
<polygon fill="white" stroke="#666666" points="402,-56 323,-56 323,-37 402,-37 402,-56"/>
<text text-anchor="middle" x="362.5" y="-44" font-family="Helvetica,sans-Serif" font-size="10.00">resolve_host</text>
</a>
</g>
</g>
<!-- Node5&#45;&gt;Node7 -->
<g id="edge6_Node000005_Node000007" class="edge">
<title>Node5&#45;&gt;Node7</title>
<g id="a_edge6_Node000005_Node000007"><a xlink:title=" ">
<path fill="none" stroke="#63b8ff" d="M255.42,-58.53C274.4,-56.38 295.02,-54.04 313,-52"/>
<polygon fill="#63b8ff" stroke="#63b8ff" points="313.42,-55.48 322.96,-50.87 312.63,-48.52 313.42,-55.48"/>
</a>
</g>
</g>
<!-- Node9 -->
<g id="Node000009" class="node">
<title>Node9</title>
<g id="a_Node000009"><a xlink:href="listen_8cpp.html#ab4966be20042c4d73106caa00fce9eba" target="_top" xlink:title="Separe la partie adresse de la partie port d&#39;un token listen.">
<polygon fill="white" stroke="#666666" points="407,-19 318,-19 318,0 407,0 407,-19"/>
<text text-anchor="middle" x="362.5" y="-7" font-family="Helvetica,sans-Serif" font-size="10.00">split_addr_port</text>
</a>
</g>
</g>
<!-- Node5&#45;&gt;Node9 -->
<g id="edge8_Node000005_Node000009" class="edge">
<title>Node5&#45;&gt;Node9</title>
<g id="a_edge8_Node000005_Node000009"><a xlink:title=" ">
<path fill="none" stroke="#63b8ff" d="M216.06,-55.96C235.54,-47.75 264.83,-35.93 291,-27.5 297.38,-25.44 304.15,-23.47 310.86,-21.62"/>
<polygon fill="#63b8ff" stroke="#63b8ff" points="311.86,-24.98 320.62,-19.03 310.06,-18.22 311.86,-24.98"/>
</a>
</g>
</g>
<!-- Node8 -->
<g id="Node000008" class="node">
<title>Node8</title>
<g id="a_Node000008"><a xlink:href="utils_8cpp.html#aea9cfbf41fbfe1bae093d72538eb3ac0" target="_top" xlink:title="Verifie qu&#39;une chaine est une adresse IPv4 bien formee.">
<polygon fill="white" stroke="#666666" points="558.5,-56 478.5,-56 478.5,-37 558.5,-37 558.5,-56"/>
<text text-anchor="middle" x="518.5" y="-44" font-family="Helvetica,sans-Serif" font-size="10.00">is_valid_ipv4</text>
</a>
</g>
</g>
<!-- Node7&#45;&gt;Node8 -->
<g id="edge7_Node000007_Node000008" class="edge">
<title>Node7&#45;&gt;Node8</title>
<g id="a_edge7_Node000007_Node000008"><a xlink:title=" ">
<path fill="none" stroke="#63b8ff" d="M402.36,-46.5C422.35,-46.5 446.92,-46.5 468.22,-46.5"/>
<polygon fill="#63b8ff" stroke="#63b8ff" points="468.38,-50 478.38,-46.5 468.38,-43 468.38,-50"/>
</a>
</g>
</g>
<!-- Node10 -->
<g id="Node000010" class="node">
<title>Node10</title>
<g id="a_Node000010"><a xlink:href="utils_8cpp.html#a33a62d02493d54e927b73969ec71f85d" target="_top" xlink:title="Check si une chaine est composee uniquement de chiffres.">
<polygon fill="white" stroke="#666666" points="555.5,-19 481.5,-19 481.5,0 555.5,0 555.5,-19"/>
<text text-anchor="middle" x="518.5" y="-7" font-family="Helvetica,sans-Serif" font-size="10.00">is_all_digits</text>
</a>
</g>
</g>
<!-- Node9&#45;&gt;Node10 -->
<g id="edge9_Node000009_Node000010" class="edge">
<title>Node9&#45;&gt;Node10</title>
<g id="a_edge9_Node000009_Node000010"><a xlink:title=" ">
<path fill="none" stroke="#63b8ff" d="M407.22,-9.5C427.21,-9.5 450.91,-9.5 471.2,-9.5"/>
<polygon fill="#63b8ff" stroke="#63b8ff" points="471.47,-13 481.47,-9.5 471.47,-6 471.47,-13"/>
</a>
</g>
</g>
<!-- Node11&#45;&gt;Node2 -->
<g id="edge11_Node000011_Node000002" class="edge">
<title>Node11&#45;&gt;Node2</title>
<g id="a_edge11_Node000011_Node000002"><a xlink:title=" ">
<path fill="none" stroke="#63b8ff" d="M200.94,-320.6C214.31,-347.94 246.3,-405.58 291,-435.5 296.64,-439.28 303.02,-442.26 309.58,-444.62"/>
<polygon fill="#63b8ff" stroke="#63b8ff" points="308.67,-448 319.26,-447.65 310.76,-441.32 308.67,-448"/>
</a>
</g>
</g>
<!-- Node11&#45;&gt;Node3 -->
<g id="edge15_Node000011_Node000003" class="edge">
<title>Node11&#45;&gt;Node3</title>
<g id="a_edge15_Node000011_Node000003"><a xlink:title=" ">
<path fill="none" stroke="#63b8ff" d="M208.87,-320.57C233.6,-345.52 281.42,-393.17 291,-398.5 294.96,-400.7 299.19,-402.64 303.54,-404.34"/>
<polygon fill="#63b8ff" stroke="#63b8ff" points="302.6,-407.72 313.2,-407.71 304.91,-401.11 302.6,-407.72"/>
</a>
</g>
</g>
<!-- Node12 -->
<g id="Node000012" class="node">
<title>Node12</title>
<g id="a_Node000012"><a xlink:href="utils_8cpp.html#ac27743f1e2355a52bc397fd323718c11" target="_top" xlink:title="Prend tous les arguments de &lt;allow_methods&gt; et verifie leurs valeurs.">
<polygon fill="white" stroke="#666666" points="424,-130 301,-130 301,-111 424,-111 424,-130"/>
<text text-anchor="middle" x="362.5" y="-118" font-family="Helvetica,sans-Serif" font-size="10.00">parse_allow_methods</text>
</a>
</g>
</g>
<!-- Node11&#45;&gt;Node12 -->
<g id="edge12_Node000011_Node000012" class="edge">
<title>Node11&#45;&gt;Node12</title>
<g id="a_edge12_Node000011_Node000012"><a xlink:title=" ">
<path fill="none" stroke="#63b8ff" d="M244.57,-290.37C248.43,-287.85 251.99,-284.92 255,-281.5 298.03,-232.64 245.31,-185.88 291,-139.5 292.43,-138.04 293.97,-136.7 295.58,-135.45"/>
<polygon fill="#63b8ff" stroke="#63b8ff" points="297.64,-138.29 304.24,-130.01 293.91,-132.36 297.64,-138.29"/>
</a>
</g>
</g>
<!-- Node14 -->
<g id="Node000014" class="node">
<title>Node14</title>
<g id="a_Node000014"><a xlink:href="utils_8cpp.html#aa00761e511b31cc62839e04645b6f0df" target="_top" xlink:title="Prend tous les arguments de &lt;auto_index&gt; et verifie leurs valeurs.">
<polygon fill="white" stroke="#666666" points="414,-389 311,-389 311,-370 414,-370 414,-389"/>
<text text-anchor="middle" x="362.5" y="-377" font-family="Helvetica,sans-Serif" font-size="10.00">parse_auto_index</text>
</a>
</g>
</g>
<!-- Node11&#45;&gt;Node14 -->
<g id="edge14_Node000011_Node000014" class="edge">
<title>Node11&#45;&gt;Node14</title>
<g id="a_edge14_Node000011_Node000014"><a xlink:title=" ">
<path fill="none" stroke="#63b8ff" d="M216.23,-320.69C235.33,-333.16 263.99,-350.5 291,-361.5 296.05,-363.55 301.39,-365.43 306.79,-367.12"/>
<polygon fill="#63b8ff" stroke="#63b8ff" points="305.94,-370.52 316.53,-369.98 307.92,-363.81 305.94,-370.52"/>
</a>
</g>
</g>
<!-- Node15 -->
<g id="Node000015" class="node">
<title>Node15</title>
<g id="a_Node000015"><a xlink:href="utils_8cpp.html#afc812568aa7f2d9693bea69ff6cebabb" target="_top" xlink:title="Prend tous les arguments de &lt;cgi_ext&gt; et verifie leurs valeurs.">
<polygon fill="white" stroke="#666666" points="404.5,-352 320.5,-352 320.5,-333 404.5,-333 404.5,-352"/>
<text text-anchor="middle" x="362.5" y="-340" font-family="Helvetica,sans-Serif" font-size="10.00">parse_cgi_ext</text>
</a>
</g>
</g>
<!-- Node11&#45;&gt;Node15 -->
<g id="edge16_Node000011_Node000015" class="edge">
<title>Node11&#45;&gt;Node15</title>
<g id="a_edge16_Node000011_Node000015"><a xlink:title=" ">
<path fill="none" stroke="#63b8ff" d="M254.47,-318.86C272.8,-322.91 292.75,-327.31 310.4,-331.21"/>
<polygon fill="#63b8ff" stroke="#63b8ff" points="309.98,-334.7 320.5,-333.44 311.49,-327.87 309.98,-334.7"/>
</a>
</g>
</g>
<!-- Node16 -->
<g id="Node000016" class="node">
<title>Node16</title>
<g id="a_Node000016"><a xlink:href="utils_8cpp.html#a63cff8877b806e6eedc5100e65f348b3" target="_top" xlink:title="Prend tous les arguments de &lt;cgi_pass&gt; et verifie leurs valeurs.">
<polygon fill="white" stroke="#666666" points="408,-315 317,-315 317,-296 408,-296 408,-315"/>
<text text-anchor="middle" x="362.5" y="-303" font-family="Helvetica,sans-Serif" font-size="10.00">parse_cgi_pass</text>
</a>
</g>
</g>
<!-- Node11&#45;&gt;Node16 -->
<g id="edge17_Node000011_Node000016" class="edge">
<title>Node11&#45;&gt;Node16</title>
<g id="a_edge17_Node000011_Node000016"><a xlink:title=" ">
<path fill="none" stroke="#63b8ff" d="M254.47,-305.5C271.54,-305.5 290.02,-305.5 306.73,-305.5"/>
<polygon fill="#63b8ff" stroke="#63b8ff" points="306.89,-309 316.89,-305.5 306.89,-302 306.89,-309"/>
</a>
</g>
</g>
<!-- Node17 -->
<g id="Node000017" class="node">
<title>Node17</title>
<g id="a_Node000017"><a xlink:href="utils_8cpp.html#affdc8f9ddaaa0d740201412979146e4d" target="_top" xlink:title="Prend tous les arguments de &lt;index&gt; et verifie leurs valeurs.">
<polygon fill="white" stroke="#666666" points="400.5,-278 324.5,-278 324.5,-259 400.5,-259 400.5,-278"/>
<text text-anchor="middle" x="362.5" y="-266" font-family="Helvetica,sans-Serif" font-size="10.00">parse_index</text>
</a>
</g>
</g>
<!-- Node11&#45;&gt;Node17 -->
<g id="edge18_Node000011_Node000017" class="edge">
<title>Node11&#45;&gt;Node17</title>
<g id="a_edge18_Node000011_Node000017"><a xlink:title=" ">
<path fill="none" stroke="#63b8ff" d="M254.47,-292.14C274.08,-287.81 295.54,-283.07 314.06,-278.98"/>
<polygon fill="#63b8ff" stroke="#63b8ff" points="315,-282.36 324.01,-276.78 313.49,-275.52 315,-282.36"/>
</a>
</g>
</g>
<!-- Node18 -->
<g id="Node000018" class="node">
<title>Node18</title>
<g id="a_Node000018"><a xlink:href="utils_8cpp.html#a43b26f4f2943f506a02a431384e5853a" target="_top" xlink:title="Prend tous les arguments de &lt;root&gt; et verifie leurs valeurs.">
<polygon fill="white" stroke="#666666" points="396.5,-241 328.5,-241 328.5,-222 396.5,-222 396.5,-241"/>
<text text-anchor="middle" x="362.5" y="-229" font-family="Helvetica,sans-Serif" font-size="10.00">parse_root</text>
</a>
</g>
</g>
<!-- Node11&#45;&gt;Node18 -->
<g id="edge19_Node000011_Node000018" class="edge">
<title>Node11&#45;&gt;Node18</title>
<g id="a_edge19_Node000011_Node000018"><a xlink:title=" ">
<path fill="none" stroke="#63b8ff" d="M237.53,-290.47C243.55,-287.79 249.54,-284.79 255,-281.5 273.08,-270.59 272.34,-260.38 291,-250.5 299.56,-245.96 309.3,-242.44 318.74,-239.74"/>
<polygon fill="#63b8ff" stroke="#63b8ff" points="319.63,-243.12 328.42,-237.2 317.86,-236.35 319.63,-243.12"/>
</a>
</g>
</g>
<!-- Node19 -->
<g id="Node000019" class="node">
<title>Node19</title>
<g id="a_Node000019"><a xlink:href="utils_8cpp.html#a008459d98b1be4d08ff79981af874736" target="_top" xlink:title="Prend tous les arguments de &lt;upload_store&gt; et verifie leurs valeurs.">
<polygon fill="white" stroke="#666666" points="418.5,-204 306.5,-204 306.5,-185 418.5,-185 418.5,-204"/>
<text text-anchor="middle" x="362.5" y="-192" font-family="Helvetica,sans-Serif" font-size="10.00">parse_upload_store</text>
</a>
</g>
</g>
<!-- Node11&#45;&gt;Node19 -->
<g id="edge20_Node000011_Node000019" class="edge">
<title>Node11&#45;&gt;Node19</title>
<g id="a_edge20_Node000011_Node000019"><a xlink:title=" ">
<path fill="none" stroke="#63b8ff" d="M242.23,-290.42C246.82,-287.87 251.18,-284.91 255,-281.5 280.5,-258.71 264.27,-234.83 291,-213.5 293.28,-211.68 295.71,-210.04 298.26,-208.55"/>
<polygon fill="#63b8ff" stroke="#63b8ff" points="299.88,-211.66 307.28,-204.08 296.77,-205.39 299.88,-211.66"/>
</a>
</g>
</g>
<!-- Node20 -->
<g id="Node000020" class="node">
<title>Node20</title>
<g id="a_Node000020"><a xlink:href="utils_8cpp.html#ad8308dcbd234856efeffc00316801af7" target="_top" xlink:title="Verifie le code HTTP de la directive &lt;return&gt;.">
<polygon fill="white" stroke="#666666" points="417.5,-167 307.5,-167 307.5,-148 417.5,-148 417.5,-167"/>
<text text-anchor="middle" x="362.5" y="-155" font-family="Helvetica,sans-Serif" font-size="10.00">parser_return_code</text>
</a>
</g>
</g>
<!-- Node11&#45;&gt;Node20 -->
<g id="edge21_Node000011_Node000020" class="edge">
<title>Node11&#45;&gt;Node20</title>
<g id="a_edge21_Node000011_Node000020"><a xlink:title=" ">
<path fill="none" stroke="#63b8ff" d="M243.69,-290.47C247.83,-287.92 251.7,-284.95 255,-281.5 289.1,-245.85 254.97,-210.2 291,-176.5 293.29,-174.36 295.79,-172.46 298.44,-170.77"/>
<polygon fill="#63b8ff" stroke="#63b8ff" points="300.16,-173.82 307.36,-166.04 296.89,-167.63 300.16,-173.82"/>
</a>
</g>
</g>
<!-- Node13 -->
<g id="Node000013" class="node">
<title>Node13</title>
<g id="a_Node000013"><a xlink:href="utils_8cpp.html#a87d84f83873a929055dda3fdd55aa1e5" target="_top" xlink:title="Contient toutes les methodes HTTP acceptees par notre webserv.">
<polygon fill="white" stroke="#666666" points="567,-130 470,-130 470,-111 567,-111 567,-130"/>
<text text-anchor="middle" x="518.5" y="-118" font-family="Helvetica,sans-Serif" font-size="10.00">known_methods</text>
</a>
</g>
</g>
<!-- Node12&#45;&gt;Node13 -->
<g id="edge13_Node000012_Node000013" class="edge">
<title>Node12&#45;&gt;Node13</title>
<g id="a_edge13_Node000012_Node000013"><a xlink:title=" ">
<path fill="none" stroke="#63b8ff" d="M424.36,-120.5C436.07,-120.5 448.29,-120.5 459.89,-120.5"/>
<polygon fill="#63b8ff" stroke="#63b8ff" points="459.89,-124 469.89,-120.5 459.89,-117 459.89,-124"/>
</a>
</g>
</g>
</g>
</svg>

<g id="navigator" transform="translate(0 0)" fill="#404254">
  <rect fill="#f2f5e9" fill-opacity="0.5" stroke="#606060" stroke-width=".5" x="0" y="0" width="60" height="60"/>
  <use id="zoomplus" xlink:href="#zoomPlus" x="17" y="9" onmousedown="handleZoom(evt,'in')"/>
  <use id="zoomminus" xlink:href="#zoomMin" x="42" y="9" onmousedown="handleZoom(evt,'out')"/>
  <use id="reset" xlink:href="#resetDef" x="30" y="36" onmousedown="handleReset()"/>
   <use id="arrowup" xlink:href="#arrowUp" x="0" y="0" onmousedown="handlePan(0,-1)"/>
  <use id="arrowright" xlink:href="#arrowRight" x="0" y="0" onmousedown="handlePan(1,0)"/>
  <use id="arrowdown" xlink:href="#arrowDown" x="0" y="0" onmousedown="handlePan(0,1)"/>
  <use id="arrowleft" xlink:href="#arrowLeft" x="0" y="0" onmousedown="handlePan(-1,0)"/>
</g>
<svg viewBox="0 0 15 15" width="100%" height="30px" preserveAspectRatio="xMaxYMin meet">
 <g id="arrow_out" transform="scale(0.3 0.3)">
  <a xlink:href="classConfigParser_a3548613b96653fb0e62c7932aa520cdb_cgraph_org.svg" target="_base">
   <rect id="button" ry="5" rx="5" y="6" x="6" height="38" width="38"
        fill="#f2f5e9" fill-opacity="0.5" stroke="#606060" stroke-width="1.0"/>
   <path id="arrow"
     d="M 11.500037,31.436501 C 11.940474,20.09759 22.043105,11.32322 32.158766,21.979434 L 37.068811,17.246167 C 37.068811,17.246167 37.088388,32 37.088388,32 L 22.160133,31.978069 C 22.160133,31.978069 26.997745,27.140456 26.997745,27.140456 C 18.528582,18.264221 13.291696,25.230495 11.500037,31.436501 z"
     style="fill:#404040;"/>
  </a>
 </g>
</svg>

<style type='text/css'>
<![CDATA[
[data-mouse-over-selected='false'] { opacity: 0.7; }
[data-mouse-over-selected='true']  { opacity: 1.0; }
]]>
</style>
<script type="application/ecmascript"><![CDATA[
document.addEventListener('DOMContentLoaded', (event) => {
  highlightEdges();
  highlightAdjacentNodes();
});
]]></script>
</svg>
