<?xml version="1.0" encoding="UTF-8" standalone="no"?>
<!DOCTYPE svg PUBLIC "-//W3C//DTD SVG 1.1//EN"
 "http://www.w3.org/Graphics/SVG/1.1/DTD/svg11.dtd">
<!-- Generated by graphviz version 2.42.4 (0)
 -->
<!-- Title: EventLoop::HandleClientEvent Pages: 1 -->
<!--zoomable 176 -->

<svg id="main" version="1.1" xmlns="http://www.w3.org/2000/svg" xmlns:xlink="http://www.w3.org/1999/xlink" xml:space="preserve" onload="init(evt)">
<style type="text/css"><![CDATA[
.node, .edge {opacity: 0.7;}
.node.selected, .edge.selected {opacity: 1;}
.edge:hover path { stroke: red; }
.edge:hover polygon { stroke: red; fill: red; }
]]></style>

<defs>
  <circle id="rim" cx="0" cy="0" r="7"/>
  <circle id="rim2" cx="0" cy="0" r="3.5"/>
  <g id="zoomPlus">
    <use xlink:href="#rim" fill="#404040"><set attributeName="fill" to="#808080" begin="zoomplus.mouseover" end="zoomplus.mouseout"/></use>
    <path d="M-4,0h8M0,-4v8" fill="none" stroke="white" stroke-width="1.5" pointer-events="none"/>
  </g>
  <g id="zoomMin">
    <use xlink:href="#rim" fill="#404040"><set attributeName="fill" to="#808080" begin="zoomminus.mouseover" end="zoomminus.mouseout"/></use>
    <path d="M-4,0h8" fill="none" stroke="white" stroke-width="1.5" pointer-events="none"/>
  </g>
  <g id="arrowUp" transform="translate(30 24)">
    <use xlink:href="#rim"/>
    <path pointer-events="none" fill="none" stroke="white" stroke-width="1.5" d="M0,-3.0v7 M-2.5,-0.5L0,-3.0L2.5,-0.5"/>
  </g>
  <g id="arrowRight" transform="rotate(90) translate(36 -43)">
    <use xlink:href="#rim"/>
    <path pointer-events="none" fill="none" stroke="white" stroke-width="1.5" d="M0,-3.0v7 M-2.5,-0.5L0,-3.0L2.5,-0.5"/>
  </g>
  <g id="arrowDown" transform="rotate(180) translate(-30 -48)">
    <use xlink:href="#rim"/>
    <path pointer-events="none" fill="none" stroke="white" stroke-width="1.5" d="M0,-3.0v7 M-2.5,-0.5L0,-3.0L2.5,-0.5"/>
  </g>
  <g id="arrowLeft" transform="rotate(270) translate(-36 17)">
    <use xlink:href="#rim"/>
    <path pointer-events="none" fill="none" stroke="white" stroke-width="1.5" d="M0,-3.0v7 M-2.5,-0.5L0,-3.0L2.5,-0.5"/>
  </g>
  <g id="resetDef">
    <use xlink:href="#rim2" fill="#404040"><set attributeName="fill" to="#808080" begin="reset.mouseover" end="reset.mouseout"/></use>
  </g>
</defs>
<script type="application/ecmascript">
var viewWidth = 621;
var viewHeight = 176;
var sectionId = 'dynsection-6';
</script>
<script type="application/ecmascript" xlink:href="svg.min.js"/>
<svg id="graph" class="graph">
<g id="viewport">
<title>EventLoop::HandleClientEvent</title>
<!-- Node1 -->
<g id="Node000001" class="node">
<title>Node1</title>
<g id="a_Node000001"><a xlink:title="I/O client (B&#45;03) : recv/send selon revents.">
<polygon fill="#999999" stroke="#666666" points="164,-112 0,-112 0,-93 164,-93 164,-112"/>
<text text-anchor="middle" x="82" y="-100" font-family="Helvetica,sans-Serif" font-size="10.00">EventLoop::HandleClientEvent</text>
</a>
</g>
</g>
<!-- Node2 -->
<g id="Node000002" class="node">
<title>Node2</title>
<g id="a_Node000002"><a xlink:href="classCgiProcess.html#ad718f5bbc4da3d1fb5fe1e6687218319" target="_top" xlink:title="Retourne le descripteur de lecture du pipe vers le CGI.">
<polygon fill="white" stroke="#666666" points="330.5,-168 200.5,-168 200.5,-149 330.5,-149 330.5,-168"/>
<text text-anchor="middle" x="265.5" y="-156" font-family="Helvetica,sans-Serif" font-size="10.00">CgiProcess::GetReadFd</text>
</a>
</g>
</g>
<!-- Node1&#45;&gt;Node2 -->
<g id="edge1_Node000001_Node000002" class="edge">
<title>Node1&#45;&gt;Node2</title>
<g id="a_edge1_Node000001_Node000002"><a xlink:title=" ">
<path fill="none" stroke="#63b8ff" d="M111.27,-112.05C134.9,-119.94 169.54,-131.31 200,-140.5 206.21,-142.37 212.77,-144.29 219.25,-146.13"/>
<polygon fill="#63b8ff" stroke="#63b8ff" points="218.7,-149.61 229.27,-148.96 220.6,-142.87 218.7,-149.61"/>
</a>
</g>
</g>
<!-- Node3 -->
<g id="Node000003" class="node">
<title>Node3</title>
<g id="a_Node000003"><a xlink:href="classCgiProcess.html#aa85023e28d1083c853f33238c12e1bbe" target="_top" xlink:title="Retourne le descripteur d&#39;ecriture du pipe vers le CGI.">
<polygon fill="white" stroke="#666666" points="331,-131 200,-131 200,-112 331,-112 331,-131"/>
<text text-anchor="middle" x="265.5" y="-119" font-family="Helvetica,sans-Serif" font-size="10.00">CgiProcess::GetWriteFd</text>
</a>
</g>
</g>
<!-- Node1&#45;&gt;Node3 -->
<g id="edge2_Node000001_Node000003" class="edge">
<title>Node1&#45;&gt;Node3</title>
<g id="a_edge2_Node000001_Node000003"><a xlink:title=" ">
<path fill="none" stroke="#63b8ff" d="M164.19,-111C172.72,-111.89 181.35,-112.8 189.8,-113.68"/>
<polygon fill="#63b8ff" stroke="#63b8ff" points="189.67,-117.19 199.98,-114.75 190.4,-110.22 189.67,-117.19"/>
</a>
</g>
</g>
<!-- Node4 -->
<g id="Node000004" class="node">
<title>Node4</title>
<g id="a_Node000004"><a xlink:href="classEventLoop.html#a051b8afe601dd8e0882a6e7c2d5fe4d5" target="_top" xlink:title="Branche les pipes CGI sur le poll (B&#45;07)">
<polygon fill="white" stroke="#666666" points="330.5,-94 200.5,-94 200.5,-75 330.5,-75 330.5,-94"/>
<text text-anchor="middle" x="265.5" y="-82" font-family="Helvetica,sans-Serif" font-size="10.00">EventLoop::RegisterCgi</text>
</a>
</g>
</g>
<!-- Node1&#45;&gt;Node4 -->
<g id="edge3_Node000001_Node000004" class="edge">
<title>Node1&#45;&gt;Node4</title>
<g id="a_edge3_Node000001_Node000004"><a xlink:title=" ">
<path fill="none" stroke="#63b8ff" d="M164.19,-94.45C172.88,-93.59 181.68,-92.71 190.28,-91.86"/>
<polygon fill="#63b8ff" stroke="#63b8ff" points="190.65,-95.34 200.25,-90.87 189.96,-88.38 190.65,-95.34"/>
</a>
</g>
</g>
<!-- Node7 -->
<g id="Node000007" class="node">
<title>Node7</title>
<g id="a_Node000007"><a xlink:href="classEventLoop.html#a7c1b4adc44f2e5867b5461fb2c530ad1" target="_top" xlink:title="Re&#45;arme POLLIN / POLLOUT sur un fd deja surveille.">
<polygon fill="white" stroke="#666666" points="326.5,-57 204.5,-57 204.5,-38 326.5,-38 326.5,-57"/>
<text text-anchor="middle" x="265.5" y="-45" font-family="Helvetica,sans-Serif" font-size="10.00">EventLoop::SetEvents</text>
</a>
</g>
</g>
<!-- Node1&#45;&gt;Node7 -->
<g id="edge6_Node000001_Node000007" class="edge">
<title>Node1&#45;&gt;Node7</title>
<g id="a_edge6_Node000001_Node000007"><a xlink:title=" ">
<path fill="none" stroke="#63b8ff" d="M113.76,-92.92C137.34,-85.61 170.7,-75.32 200,-66.5 207.07,-64.37 214.58,-62.13 221.89,-59.97"/>
<polygon fill="#63b8ff" stroke="#63b8ff" points="223.06,-63.28 231.66,-57.09 221.08,-56.56 223.06,-63.28"/>
</a>
</g>
</g>
<!-- Node5 -->
<g id="Node000005" class="node">
<title>Node5</title>
<g id="a_Node000005"><a xlink:href="classEventLoop.html#acc263db44eb3561bda0c7a531c707a18" target="_top" xlink:title="Utilise aussi par B&#45;07 pour les pipes CGI.">
<polygon fill="white" stroke="#666666" points="471,-95 367,-95 367,-76 471,-76 471,-95"/>
<text text-anchor="middle" x="419" y="-83" font-family="Helvetica,sans-Serif" font-size="10.00">EventLoop::AddFd</text>
</a>
</g>
</g>
<!-- Node4&#45;&gt;Node5 -->
<g id="edge4_Node000004_Node000005" class="edge">
<title>Node4&#45;&gt;Node5</title>
<g id="a_edge4_Node000004_Node000005"><a xlink:title=" ">
<path fill="none" stroke="#63b8ff" d="M330.75,-84.92C339.35,-84.98 348.15,-85.04 356.7,-85.1"/>
<polygon fill="#63b8ff" stroke="#63b8ff" points="356.95,-88.6 366.97,-85.16 356.99,-81.6 356.95,-88.6"/>
</a>
</g>
</g>
<!-- Node6 -->
<g id="Node000006" class="node">
<title>Node6</title>
<g id="a_Node000006"><a xlink:href="classEventLoop.html#a4064611cef5aca07311693bc8937fec6" target="_top" xlink:title="Index de fd dans _Pollfds, &#45;1 si absent.">
<polygon fill="white" stroke="#666666" points="613,-76 507,-76 507,-57 613,-57 613,-76"/>
<text text-anchor="middle" x="560" y="-64" font-family="Helvetica,sans-Serif" font-size="10.00">EventLoop::FindFd</text>
</a>
</g>
</g>
<!-- Node5&#45;&gt;Node6 -->
<g id="edge5_Node000005_Node000006" class="edge">
<title>Node5&#45;&gt;Node6</title>
<g id="a_edge5_Node000005_Node000006"><a xlink:title=" ">
<path fill="none" stroke="#63b8ff" d="M471.36,-78.48C479.7,-77.34 488.41,-76.15 496.97,-74.98"/>
<polygon fill="#63b8ff" stroke="#63b8ff" points="497.48,-78.44 506.92,-73.62 496.54,-71.51 497.48,-78.44"/>
</a>
</g>
</g>
<!-- Node7&#45;&gt;Node6 -->
<g id="edge7_Node000007_Node000006" class="edge">
<title>Node7&#45;&gt;Node6</title>
<g id="a_edge7_Node000007_Node000006"><a xlink:title=" ">
<path fill="none" stroke="#63b8ff" d="M326.75,-51.41C376.35,-54.64 446.41,-59.19 496.59,-62.45"/>
<polygon fill="#63b8ff" stroke="#63b8ff" points="496.46,-65.94 506.67,-63.1 496.91,-58.96 496.46,-65.94"/>
</a>
</g>
</g>
<!-- Node8 -->
<g id="Node000008" class="node">
<title>Node8</title>
<g id="a_Node000008"><a xlink:href="classLogger.html#abf1a44e82213ce8094057b5fa926cf72" target="_top" xlink:title="Ligne horodatee &quot;date [level] msg&quot;.">
<polygon fill="white" stroke="#666666" points="459,-19 379,-19 379,0 459,0 459,-19"/>
<text text-anchor="middle" x="419" y="-7" font-family="Helvetica,sans-Serif" font-size="10.00">Logger::write</text>
</a>
</g>
</g>
<!-- Node7&#45;&gt;Node8 -->
<g id="edge8_Node000007_Node000008" class="edge">
<title>Node7&#45;&gt;Node8</title>
<g id="a_edge8_Node000007_Node000008"><a xlink:title=" ">
<path fill="none" stroke="#63b8ff" d="M304.73,-37.91C324.63,-32.92 349.16,-26.77 370.29,-21.47"/>
<polygon fill="#63b8ff" stroke="#63b8ff" points="371.2,-24.85 380.05,-19.02 369.49,-18.06 371.2,-24.85"/>
</a>
</g>
</g>
</g>
</svg>

<g id="navigator" transform="translate(0 0)" fill="#404254">
  <rect fill="#f2f5e9" fill-opacity="0.5" stroke="#606060" stroke-width=".5" x="0" y="0" width="60" height="60"/>
  <use id="zoomplus" xlink:href="#zoomPlus" x="17" y="9" onmousedown="handleZoom(evt,'in')"/>
  <use id="zoomminus" xlink:href="#zoomMin" x="42" y="9" onmousedown="handleZoom(evt,'out')"/>
  <use id="reset" xlink:href="#resetDef" x="30" y="36" onmousedown="handleReset()"/>
   <use id="arrowup" xlink:href="#arrowUp" x="0" y="0" onmousedown="handlePan(0,-1)"/>
  <use id="arrowright" xlink:href="#arrowRight" x="0" y="0" onmousedown="handlePan(1,0)"/>
  <use id="arrowdown" xlink:href="#arrowDown" x="0" y="0" onmousedown="handlePan(0,1)"/>
  <use id="arrowleft" xlink:href="#arrowLeft" x="0" y="0" onmousedown="handlePan(-1,0)"/>
</g>
<svg viewBox="0 0 15 15" width="100%" height="30px" preserveAspectRatio="xMaxYMin meet">
 <g id="arrow_out" transform="scale(0.3 0.3)">
  <a xlink:href="classEventLoop_a7429ebb62d42241266921e87e5d9d5c5_cgraph_org.svg" target="_base">
   <rect id="button" ry="5" rx="5" y="6" x="6" height="38" width="38"
        fill="#f2f5e9" fill-opacity="0.5" stroke="#606060" stroke-width="1.0"/>
   <path id="arrow"
     d="M 11.500037,31.436501 C 11.940474,20.09759 22.043105,11.32322 32.158766,21.979434 L 37.068811,17.246167 C 37.068811,17.246167 37.088388,32 37.088388,32 L 22.160133,31.978069 C 22.160133,31.978069 26.997745,27.140456 26.997745,27.140456 C 18.528582,18.264221 13.291696,25.230495 11.500037,31.436501 z"
     style="fill:#404040;"/>
  </a>
 </g>
</svg>

<style type='text/css'>
<![CDATA[
[data-mouse-over-selected='false'] { opacity: 0.7; }
[data-mouse-over-selected='true']  { opacity: 1.0; }
]]>
</style>
<script type="application/ecmascript"><![CDATA[
document.addEventListener('DOMContentLoaded', (event) => {
  highlightEdges();
  highlightAdjacentNodes();
});
]]></script>
</svg>
