<?xml version="1.0" encoding="UTF-8" standalone="no"?>
<!DOCTYPE svg PUBLIC "-//W3C//DTD SVG 1.1//EN"
 "http://www.w3.org/Graphics/SVG/1.1/DTD/svg11.dtd">
<!-- Generated by graphviz version 2.42.4 (0)
 -->
<!-- Title: Connection Pages: 1 -->
<svg width="212pt" height="159pt"
 viewBox="0.00 0.00 211.50 159.00" xmlns="http://www.w3.org/2000/svg" xmlns:xlink="http://www.w3.org/1999/xlink">

<svg id="main" version="1.1" xmlns="http://www.w3.org/2000/svg" xmlns:xlink="http://www.w3.org/1999/xlink" xml:space="preserve" onload="init(evt)">
<style type="text/css"><![CDATA[
.node, .edge {opacity: 0.7;}
.node.selected, .edge.selected {opacity: 1;}
.edge:hover path { stroke: red; }
.edge:hover polygon { stroke: red; fill: red; }
]]></style>
<script type="application/ecmascript" xlink:href="svg.min.js"/>
<svg id="graph" class="graph">
<g id="graph0" class="graph" transform="scale(1 1) rotate(0) translate(4 155)">
<title>Connection</title>
<!-- Node1 -->
<g id="Node000001" class="node">
<title>Node1</title>
<g id="a_Node000001"><a xlink:title=" ">
<polygon fill="#999999" stroke="#666666" points="178,-19 107,-19 107,0 178,0 178,-19"/>
<text text-anchor="middle" x="142.5" y="-7" font-family="Helvetica,sans-Serif" font-size="10.00">Connection</text>
</a>
</g>
</g>
<!-- Node2 -->
<g id="Node000002" class="node">
<title>Node2</title>
<g id="a_Node000002"><a xlink:href="classRequest.html" target="_top" xlink:title="Represente une requete HTTP recue par le serveur.">
<polygon fill="white" stroke="#666666" points="115.5,-85 59.5,-85 59.5,-66 115.5,-66 115.5,-85"/>
<text text-anchor="middle" x="87.5" y="-73" font-family="Helvetica,sans-Serif" font-size="10.00">Request</text>
</a>
</g>
</g>
<!-- Node2&#45;&gt;Node1 -->
<g id="edge1_Node000001_Node000002" class="edge">
<title>Node2&#45;&gt;Node1</title>
<g id="a_edge1_Node000001_Node000002"><a xlink:title=" ">
<path fill="none" stroke="#9a32cd" stroke-dasharray="5,2" d="M101.57,-58.12C112.16,-45.81 126.26,-29.39 134.85,-19.41"/>
<polygon fill="#9a32cd" stroke="#9a32cd" points="98.78,-56 94.92,-65.87 104.09,-60.57 98.78,-56"/>
</a>
</g>
<text text-anchor="middle" x="131.5" y="-40" font-family="Helvetica,sans-Serif" font-size="10.00" fill="grey"> _Req</text>
</g>
<!-- Node3 -->
<g id="Node000003" class="node">
<title>Node3</title>
<g id="a_Node000003"><a xlink:href="classServerConfig.html" target="_top" xlink:title="Represente la configuration d&#39;un serveur virtuel (bloc &quot;server&quot;).">
<polygon fill="white" stroke="#666666" points="79,-151 0,-151 0,-132 79,-132 79,-151"/>
<text text-anchor="middle" x="39.5" y="-139" font-family="Helvetica,sans-Serif" font-size="10.00">ServerConfig</text>
</a>
</g>
</g>
<!-- Node3&#45;&gt;Node2 -->
<g id="edge2_Node000002_Node000003" class="edge">
<title>Node3&#45;&gt;Node2</title>
<g id="a_edge2_Node000002_Node000003"><a xlink:title=" ">
<path fill="none" stroke="#9a32cd" stroke-dasharray="5,2" d="M52.05,-123.77C61.26,-111.49 73.4,-95.3 80.82,-85.41"/>
<polygon fill="#9a32cd" stroke="#9a32cd" points="49.17,-121.77 45.97,-131.87 54.77,-125.97 49.17,-121.77"/>
</a>
</g>
<text text-anchor="middle" x="79" y="-106" font-family="Helvetica,sans-Serif" font-size="10.00" fill="grey"> _Srv</text>
</g>
<!-- Node4 -->
<g id="Node000004" class="node">
<title>Node4</title>
<g id="a_Node000004"><a xlink:href="classConfigParser.html" target="_top" xlink:title="Represente toute la phase de parsing du .conf.">
<polygon fill="white" stroke="#666666" points="174,-151 97,-151 97,-132 174,-132 174,-151"/>
<text text-anchor="middle" x="135.5" y="-139" font-family="Helvetica,sans-Serif" font-size="10.00">ConfigParser</text>
</a>
</g>
</g>
<!-- Node4&#45;&gt;Node2 -->
<g id="edge3_Node000002_Node000004" class="edge">
<title>Node4&#45;&gt;Node2</title>
<g id="a_edge3_Node000002_Node000004"><a xlink:title=" ">
<path fill="none" stroke="#9a32cd" stroke-dasharray="5,2" d="M122.95,-123.77C113.74,-111.49 101.6,-95.3 94.18,-85.41"/>
<polygon fill="#9a32cd" stroke="#9a32cd" points="120.23,-125.97 129.03,-131.87 125.83,-121.77 120.23,-125.97"/>
</a>
</g>
<text text-anchor="middle" x="134.5" y="-106" font-family="Helvetica,sans-Serif" font-size="10.00" fill="grey"> _Config</text>
</g>
<!-- Node5 -->
<g id="Node000005" class="node">
<title>Node5</title>
<g id="a_Node000005"><a xlink:href="classCgiProcess.html" target="_top" xlink:title="Gere le cycle de vie d&#39;un processus CGI externe.">
<polygon fill="white" stroke="#666666" points="203.5,-85 133.5,-85 133.5,-66 203.5,-66 203.5,-85"/>
<text text-anchor="middle" x="168.5" y="-73" font-family="Helvetica,sans-Serif" font-size="10.00">CgiProcess</text>
</a>
</g>
</g>
<!-- Node5&#45;&gt;Node1 -->
<g id="edge4_Node000001_Node000005" class="edge">
<title>Node5&#45;&gt;Node1</title>
<g id="a_edge4_Node000001_Node000005"><a xlink:title=" ">
<path fill="none" stroke="#9a32cd" stroke-dasharray="5,2" d="M161.11,-56.32C156.21,-44.24 149.98,-28.91 146.12,-19.41"/>
<polygon fill="#9a32cd" stroke="#9a32cd" points="157.99,-57.92 164.99,-65.87 164.47,-55.29 157.99,-57.92"/>
</a>
</g>
<text text-anchor="middle" x="169" y="-40" font-family="Helvetica,sans-Serif" font-size="10.00" fill="grey"> _Cgi</text>
</g>
</g>
</svg>
</svg>

<style type='text/css'>
<![CDATA[
[data-mouse-over-selected='false'] { opacity: 0.7; }
[data-mouse-over-selected='true']  { opacity: 1.0; }
]]>
</style>
<script type="application/ecmascript"><![CDATA[
document.addEventListener('DOMContentLoaded', (event) => {
  highlightEdges();
  highlightAdjacentNodes();
});
]]></script>
</svg>
