<?xml version="1.0" encoding="UTF-8" standalone="no"?>
<!DOCTYPE svg PUBLIC "-//W3C//DTD SVG 1.1//EN"
 "http://www.w3.org/Graphics/SVG/1.1/DTD/svg11.dtd">
<!-- Generated by graphviz version 2.42.4 (0)
 -->
<!-- Title: includes/Request.hpp Pages: 1 -->
<svg width="983pt" height="192pt"
 viewBox="0.00 0.00 982.50 192.00" xmlns="http://www.w3.org/2000/svg" xmlns:xlink="http://www.w3.org/1999/xlink">
<g id="graph0" class="graph" transform="scale(1 1) rotate(0) translate(4 188)">
<title>includes/Request.hpp</title>
<!-- Node1 -->
<g id="Node000001" class="node">
<title>Node1</title>
<g id="a_Node000001"><a xlink:title=" ">
<polygon fill="#999999" stroke="#666666" points="485.5,-184 364.5,-184 364.5,-165 485.5,-165 485.5,-184"/>
<text text-anchor="middle" x="425" y="-172" font-family="Helvetica,sans-Serif" font-size="10.00">includes/Request.hpp</text>
</a>
</g>
</g>
<!-- Node2 -->
<g id="Node000002" class="node">
<title>Node2</title>
<g id="a_Node000002"><a xlink:href="Connection_8hpp.html" target="_top" xlink:title=" ">
<polygon fill="white" stroke="#666666" points="541,-129 405,-129 405,-110 541,-110 541,-129"/>
<text text-anchor="middle" x="473" y="-117" font-family="Helvetica,sans-Serif" font-size="10.00">includes/Connection.hpp</text>
</a>
</g>
</g>
<!-- Node1&#45;&gt;Node2 -->
<g id="edge1_Node000001_Node000002" class="edge">
<title>Node1&#45;&gt;Node2</title>
<g id="a_edge1_Node000001_Node000002"><a xlink:title=" ">
<path fill="none" stroke="#63b8ff" d="M439.73,-157.24C448.14,-147.95 458.35,-136.68 465.22,-129.09"/>
<polygon fill="#63b8ff" stroke="#63b8ff" points="437.04,-154.99 432.93,-164.75 442.23,-159.69 437.04,-154.99"/>
</a>
</g>
</g>
<!-- Node4 -->
<g id="Node000004" class="node">
<title>Node4</title>
<g id="a_Node000004"><a xlink:href="main_8cpp.html" target="_top" xlink:title=" ">
<polygon fill="white" stroke="#666666" points="84,-19 0,-19 0,0 84,0 84,-19"/>
<text text-anchor="middle" x="42" y="-7" font-family="Helvetica,sans-Serif" font-size="10.00">srcs/main.cpp</text>
</a>
</g>
</g>
<!-- Node1&#45;&gt;Node4 -->
<g id="edge17_Node000001_Node000004" class="edge">
<title>Node1&#45;&gt;Node4</title>
<g id="a_edge17_Node000001_Node000004"><a xlink:title=" ">
<path fill="none" stroke="#63b8ff" d="M359.78,-163.1C291.99,-150.12 184.72,-123.37 104,-74 79.82,-59.21 58.37,-32.87 48.22,-19.23"/>
<polygon fill="#63b8ff" stroke="#63b8ff" points="359.42,-166.59 369.9,-164.99 360.71,-159.71 359.42,-166.59"/>
</a>
</g>
</g>
<!-- Node7 -->
<g id="Node000007" class="node">
<title>Node7</title>
<g id="a_Node000007"><a xlink:href="CgiProcess_8cpp.html" target="_top" xlink:title=" ">
<polygon fill="white" stroke="#666666" points="404,-19 274,-19 274,0 404,0 404,-19"/>
<text text-anchor="middle" x="339" y="-7" font-family="Helvetica,sans-Serif" font-size="10.00">srcs/cgi/CgiProcess.cpp</text>
</a>
</g>
</g>
<!-- Node1&#45;&gt;Node7 -->
<g id="edge13_Node000001_Node000007" class="edge">
<title>Node1&#45;&gt;Node7</title>
<g id="a_edge13_Node000001_Node000007"><a xlink:title=" ">
<path fill="none" stroke="#63b8ff" d="M410.76,-156.85C404.25,-148.77 396.73,-138.72 391,-129 368.06,-90.11 349.08,-39.24 341.99,-19.17"/>
<polygon fill="#63b8ff" stroke="#63b8ff" points="408.23,-159.28 417.3,-164.75 413.62,-154.81 408.23,-159.28"/>
</a>
</g>
</g>
<!-- Node8 -->
<g id="Node000008" class="node">
<title>Node8</title>
<g id="a_Node000008"><a xlink:href="cgi_8cpp.html" target="_top" xlink:title=" ">
<polygon fill="white" stroke="#666666" points="513.5,-19 422.5,-19 422.5,0 513.5,0 513.5,-19"/>
<text text-anchor="middle" x="468" y="-7" font-family="Helvetica,sans-Serif" font-size="10.00">srcs/cgi/cgi.cpp</text>
</a>
</g>
</g>
<!-- Node1&#45;&gt;Node8 -->
<g id="edge14_Node000001_Node000008" class="edge">
<title>Node1&#45;&gt;Node8</title>
<g id="a_edge14_Node000001_Node000008"><a xlink:title=" ">
<path fill="none" stroke="#63b8ff" d="M409.92,-156.94C400.33,-144.37 390.66,-126.49 396,-110 408.48,-71.46 442.1,-35.32 458.6,-19.25"/>
<polygon fill="#63b8ff" stroke="#63b8ff" points="407.28,-159.24 416.35,-164.72 412.67,-154.78 407.28,-159.24"/>
</a>
</g>
</g>
<!-- Node12 -->
<g id="Node000012" class="node">
<title>Node12</title>
<g id="a_Node000012"><a xlink:href="Request_8cpp.html" target="_top" xlink:title=" ">
<polygon fill="white" stroke="#666666" points="681,-129 559,-129 559,-110 681,-110 681,-129"/>
<text text-anchor="middle" x="620" y="-117" font-family="Helvetica,sans-Serif" font-size="10.00">srcs/http/Request.cpp</text>
</a>
</g>
</g>
<!-- Node1&#45;&gt;Node12 -->
<g id="edge15_Node000001_Node000012" class="edge">
<title>Node1&#45;&gt;Node12</title>
<g id="a_edge15_Node000001_Node000012"><a xlink:title=" ">
<path fill="none" stroke="#63b8ff" d="M466.17,-162.31C502.66,-152.39 555.17,-138.12 588.42,-129.08"/>
<polygon fill="#63b8ff" stroke="#63b8ff" points="465.06,-158.98 456.33,-164.98 466.9,-165.74 465.06,-158.98"/>
</a>
</g>
</g>
<!-- Node13 -->
<g id="Node000013" class="node">
<title>Node13</title>
<g id="a_Node000013"><a xlink:href="httpUtils_8cpp.html" target="_top" xlink:title=" ">
<polygon fill="white" stroke="#666666" points="823,-129 699,-129 699,-110 823,-110 823,-129"/>
<text text-anchor="middle" x="761" y="-117" font-family="Helvetica,sans-Serif" font-size="10.00">srcs/http/httpUtils.cpp</text>
</a>
</g>
</g>
<!-- Node1&#45;&gt;Node13 -->
<g id="edge16_Node000001_Node000013" class="edge">
<title>Node1&#45;&gt;Node13</title>
<g id="a_edge16_Node000001_Node000013"><a xlink:title=" ">
<path fill="none" stroke="#63b8ff" d="M489.21,-163.37C552.3,-153.42 647.51,-138.4 706.87,-129.04"/>
<polygon fill="#63b8ff" stroke="#63b8ff" points="488.32,-159.97 478.98,-164.98 489.41,-166.88 488.32,-159.97"/>
</a>
</g>
</g>
<!-- Node3 -->
<g id="Node000003" class="node">
<title>Node3</title>
<g id="a_Node000003"><a xlink:href="EventLoop_8hpp.html" target="_top" xlink:title=" ">
<polygon fill="white" stroke="#666666" points="245,-74 113,-74 113,-55 245,-55 245,-74"/>
<text text-anchor="middle" x="179" y="-62" font-family="Helvetica,sans-Serif" font-size="10.00">includes/EventLoop.hpp</text>
</a>
</g>
</g>
<!-- Node2&#45;&gt;Node3 -->
<g id="edge2_Node000002_Node000003" class="edge">
<title>Node2&#45;&gt;Node3</title>
<g id="a_edge2_Node000002_Node000003"><a xlink:title=" ">
<path fill="none" stroke="#63b8ff" d="M415.8,-108.19C360.68,-98.25 278.25,-83.39 226.61,-74.08"/>
<polygon fill="#63b8ff" stroke="#63b8ff" points="415.3,-111.65 425.76,-109.98 416.54,-104.77 415.3,-111.65"/>
</a>
</g>
</g>
<!-- Node6 -->
<g id="Node000006" class="node">
<title>Node6</title>
<g id="a_Node000006"><a xlink:href="Router_8hpp.html" target="_top" xlink:title=" ">
<polygon fill="white" stroke="#666666" points="634.5,-74 521.5,-74 521.5,-55 634.5,-55 634.5,-74"/>
<text text-anchor="middle" x="578" y="-62" font-family="Helvetica,sans-Serif" font-size="10.00">includes/Router.hpp</text>
</a>
</g>
</g>
<!-- Node2&#45;&gt;Node6 -->
<g id="edge5_Node000002_Node000006" class="edge">
<title>Node2&#45;&gt;Node6</title>
<g id="a_edge5_Node000002_Node000006"><a xlink:title=" ">
<path fill="none" stroke="#63b8ff" d="M499.02,-105.37C518.3,-95.63 544.05,-82.64 560.82,-74.17"/>
<polygon fill="#63b8ff" stroke="#63b8ff" points="497.22,-102.35 489.87,-109.98 500.37,-108.6 497.22,-102.35"/>
</a>
</g>
</g>
<!-- Node2&#45;&gt;Node8 -->
<g id="edge11_Node000002_Node000008" class="edge">
<title>Node2&#45;&gt;Node8</title>
<g id="a_edge11_Node000002_Node000008"><a xlink:title=" ">
<path fill="none" stroke="#63b8ff" d="M472.12,-99.48C471.03,-75.84 469.2,-36.5 468.4,-19.16"/>
<polygon fill="#63b8ff" stroke="#63b8ff" points="468.63,-99.83 472.59,-109.66 475.62,-99.51 468.63,-99.83"/>
</a>
</g>
</g>
<!-- Node11 -->
<g id="Node000011" class="node">
<title>Node11</title>
<g id="a_Node000011"><a xlink:href="Connection_8cpp.html" target="_top" xlink:title=" ">
<polygon fill="white" stroke="#666666" points="974.5,-19 817.5,-19 817.5,0 974.5,0 974.5,-19"/>
<text text-anchor="middle" x="896" y="-7" font-family="Helvetica,sans-Serif" font-size="10.00">srcs/network/Connection.cpp</text>
</a>
</g>
</g>
<!-- Node2&#45;&gt;Node11 -->
<g id="edge12_Node000002_Node000011" class="edge">
<title>Node2&#45;&gt;Node11</title>
<g id="a_edge12_Node000002_Node000011"><a xlink:title=" ">
<path fill="none" stroke="#63b8ff" d="M516.35,-107.43C600.94,-85.83 786.4,-38.48 862.45,-19.07"/>
<polygon fill="#63b8ff" stroke="#63b8ff" points="515.37,-104.07 506.55,-109.94 517.1,-110.85 515.37,-104.07"/>
</a>
</g>
</g>
<!-- Node3&#45;&gt;Node4 -->
<g id="edge3_Node000003_Node000004" class="edge">
<title>Node3&#45;&gt;Node4</title>
<g id="a_edge3_Node000003_Node000004"><a xlink:title=" ">
<path fill="none" stroke="#63b8ff" d="M147.44,-51.29C122.05,-41.47 87,-27.91 64.41,-19.17"/>
<polygon fill="#63b8ff" stroke="#63b8ff" points="146.4,-54.64 156.99,-54.98 148.92,-48.11 146.4,-54.64"/>
</a>
</g>
</g>
<!-- Node5 -->
<g id="Node000005" class="node">
<title>Node5</title>
<g id="a_Node000005"><a xlink:href="EventLoop_8cpp.html" target="_top" xlink:title=" ">
<polygon fill="white" stroke="#666666" points="255.5,-19 102.5,-19 102.5,0 255.5,0 255.5,-19"/>
<text text-anchor="middle" x="179" y="-7" font-family="Helvetica,sans-Serif" font-size="10.00">srcs/network/EventLoop.cpp</text>
</a>
</g>
</g>
<!-- Node3&#45;&gt;Node5 -->
<g id="edge4_Node000003_Node000005" class="edge">
<title>Node3&#45;&gt;Node5</title>
<g id="a_edge4_Node000003_Node000005"><a xlink:title=" ">
<path fill="none" stroke="#63b8ff" d="M179,-44.66C179,-35.93 179,-25.99 179,-19.09"/>
<polygon fill="#63b8ff" stroke="#63b8ff" points="175.5,-44.75 179,-54.75 182.5,-44.75 175.5,-44.75"/>
</a>
</g>
</g>
<!-- Node6&#45;&gt;Node7 -->
<g id="edge6_Node000006_Node000007" class="edge">
<title>Node6&#45;&gt;Node7</title>
<g id="a_edge6_Node000006_Node000007"><a xlink:title=" ">
<path fill="none" stroke="#63b8ff" d="M529.82,-52.82C485.03,-42.88 419.16,-28.28 377.7,-19.08"/>
<polygon fill="#63b8ff" stroke="#63b8ff" points="529.08,-56.24 539.6,-54.98 530.6,-49.4 529.08,-56.24"/>
</a>
</g>
</g>
<!-- Node6&#45;&gt;Node8 -->
<g id="edge7_Node000006_Node000008" class="edge">
<title>Node6&#45;&gt;Node8</title>
<g id="a_edge7_Node000006_Node000008"><a xlink:title=" ">
<path fill="none" stroke="#63b8ff" d="M551.3,-50.63C531.03,-40.87 503.73,-27.71 485.99,-19.17"/>
<polygon fill="#63b8ff" stroke="#63b8ff" points="549.8,-53.8 560.33,-54.98 552.84,-47.49 549.8,-53.8"/>
</a>
</g>
</g>
<!-- Node9 -->
<g id="Node000009" class="node">
<title>Node9</title>
<g id="a_Node000009"><a xlink:href="Router_8cpp.html" target="_top" xlink:title=" ">
<polygon fill="white" stroke="#666666" points="799.5,-19 686.5,-19 686.5,0 799.5,0 799.5,-19"/>
<text text-anchor="middle" x="743" y="-7" font-family="Helvetica,sans-Serif" font-size="10.00">srcs/http/Router.cpp</text>
</a>
</g>
</g>
<!-- Node6&#45;&gt;Node9 -->
<g id="edge8_Node000006_Node000009" class="edge">
<title>Node6&#45;&gt;Node9</title>
<g id="a_edge8_Node000006_Node000009"><a xlink:title=" ">
<path fill="none" stroke="#63b8ff" d="M614.43,-51.8C645.22,-41.91 688.62,-27.97 716.28,-19.08"/>
<polygon fill="#63b8ff" stroke="#63b8ff" points="612.96,-48.59 604.51,-54.98 615.1,-55.26 612.96,-48.59"/>
</a>
</g>
</g>
<!-- Node10 -->
<g id="Node000010" class="node">
<title>Node10</title>
<g id="a_Node000010"><a xlink:href="RouterUtils_8cpp.html" target="_top" xlink:title=" ">
<polygon fill="white" stroke="#666666" points="668.5,-19 531.5,-19 531.5,0 668.5,0 668.5,-19"/>
<text text-anchor="middle" x="600" y="-7" font-family="Helvetica,sans-Serif" font-size="10.00">srcs/http/RouterUtils.cpp</text>
</a>
</g>
</g>
<!-- Node6&#45;&gt;Node10 -->
<g id="edge9_Node000006_Node000010" class="edge">
<title>Node6&#45;&gt;Node10</title>
<g id="a_edge9_Node000006_Node000010"><a xlink:title=" ">
<path fill="none" stroke="#63b8ff" d="M585.58,-45.24C589.26,-36.37 593.51,-26.14 596.43,-19.09"/>
<polygon fill="#63b8ff" stroke="#63b8ff" points="582.23,-44.17 581.63,-54.75 588.7,-46.85 582.23,-44.17"/>
</a>
</g>
</g>
<!-- Node6&#45;&gt;Node11 -->
<g id="edge10_Node000006_Node000011" class="edge">
<title>Node6&#45;&gt;Node11</title>
<g id="a_edge10_Node000006_Node000011"><a xlink:title=" ">
<path fill="none" stroke="#63b8ff" d="M639.14,-53.31C698.86,-43.36 788.7,-28.38 844.77,-19.04"/>
<polygon fill="#63b8ff" stroke="#63b8ff" points="638.38,-49.89 629.09,-54.98 639.53,-56.79 638.38,-49.89"/>
</a>
</g>
</g>
</g>
</svg>
