<?xml version="1.0" encoding="UTF-8" standalone="no"?>
<!DOCTYPE svg PUBLIC "-//W3C//DTD SVG 1.1//EN"
 "http://www.w3.org/Graphics/SVG/1.1/DTD/svg11.dtd">
<!-- Generated by graphviz version 2.42.4 (0)
 -->
<!-- Title: includes/Router.hpp Pages: 1 -->
<svg width="709pt" height="82pt"
 viewBox="0.00 0.00 708.50 82.00" xmlns="http://www.w3.org/2000/svg" xmlns:xlink="http://www.w3.org/1999/xlink">
<g id="graph0" class="graph" transform="scale(1 1) rotate(0) translate(4 78)">
<title>includes/Router.hpp</title>
<!-- Node1 -->
<g id="Node000001" class="node">
<title>Node1</title>
<g id="a_Node000001"><a xlink:title=" ">
<polygon fill="#999999" stroke="#666666" points="370.5,-74 257.5,-74 257.5,-55 370.5,-55 370.5,-74"/>
<text text-anchor="middle" x="314" y="-62" font-family="Helvetica,sans-Serif" font-size="10.00">includes/Router.hpp</text>
</a>
</g>
</g>
<!-- Node2 -->
<g id="Node000002" class="node">
<title>Node2</title>
<g id="a_Node000002"><a xlink:href="CgiProcess_8cpp.html" target="_top" xlink:title=" ">
<polygon fill="white" stroke="#666666" points="130,-19 0,-19 0,0 130,0 130,-19"/>
<text text-anchor="middle" x="65" y="-7" font-family="Helvetica,sans-Serif" font-size="10.00">srcs/cgi/CgiProcess.cpp</text>
</a>
</g>
</g>
<!-- Node1&#45;&gt;Node2 -->
<g id="edge1_Node000001_Node000002" class="edge">
<title>Node1&#45;&gt;Node2</title>
<g id="a_edge1_Node000001_Node000002"><a xlink:title=" ">
<path fill="none" stroke="#63b8ff" d="M264.1,-52.88C217.43,-42.94 148.61,-28.3 105.32,-19.08"/>
<polygon fill="#63b8ff" stroke="#63b8ff" points="263.48,-56.33 273.99,-54.98 264.94,-49.48 263.48,-56.33"/>
</a>
</g>
</g>
<!-- Node3 -->
<g id="Node000003" class="node">
<title>Node3</title>
<g id="a_Node000003"><a xlink:href="cgi_8cpp.html" target="_top" xlink:title=" ">
<polygon fill="white" stroke="#666666" points="239.5,-19 148.5,-19 148.5,0 239.5,0 239.5,-19"/>
<text text-anchor="middle" x="194" y="-7" font-family="Helvetica,sans-Serif" font-size="10.00">srcs/cgi/cgi.cpp</text>
</a>
</g>
</g>
<!-- Node1&#45;&gt;Node3 -->
<g id="edge2_Node000001_Node000003" class="edge">
<title>Node1&#45;&gt;Node3</title>
<g id="a_edge2_Node000001_Node000003"><a xlink:title=" ">
<path fill="none" stroke="#63b8ff" d="M285.47,-50.9C263.3,-41.11 233.15,-27.79 213.63,-19.17"/>
<polygon fill="#63b8ff" stroke="#63b8ff" points="284.16,-54.15 294.72,-54.98 286.99,-47.74 284.16,-54.15"/>
</a>
</g>
</g>
<!-- Node4 -->
<g id="Node000004" class="node">
<title>Node4</title>
<g id="a_Node000004"><a xlink:href="Router_8cpp.html" target="_top" xlink:title=" ">
<polygon fill="white" stroke="#666666" points="370.5,-19 257.5,-19 257.5,0 370.5,0 370.5,-19"/>
<text text-anchor="middle" x="314" y="-7" font-family="Helvetica,sans-Serif" font-size="10.00">srcs/http/Router.cpp</text>
</a>
</g>
</g>
<!-- Node1&#45;&gt;Node4 -->
<g id="edge3_Node000001_Node000004" class="edge">
<title>Node1&#45;&gt;Node4</title>
<g id="a_edge3_Node000001_Node000004"><a xlink:title=" ">
<path fill="none" stroke="#63b8ff" d="M314,-44.66C314,-35.93 314,-25.99 314,-19.09"/>
<polygon fill="#63b8ff" stroke="#63b8ff" points="310.5,-44.75 314,-54.75 317.5,-44.75 310.5,-44.75"/>
</a>
</g>
</g>
<!-- Node5 -->
<g id="Node000005" class="node">
<title>Node5</title>
<g id="a_Node000005"><a xlink:href="RouterUtils_8cpp.html" target="_top" xlink:title=" ">
<polygon fill="white" stroke="#666666" points="525.5,-19 388.5,-19 388.5,0 525.5,0 525.5,-19"/>
<text text-anchor="middle" x="457" y="-7" font-family="Helvetica,sans-Serif" font-size="10.00">srcs/http/RouterUtils.cpp</text>
</a>
</g>
</g>
<!-- Node1&#45;&gt;Node5 -->
<g id="edge4_Node000001_Node000005" class="edge">
<title>Node1&#45;&gt;Node5</title>
<g id="a_edge4_Node000001_Node000005"><a xlink:title=" ">
<path fill="none" stroke="#63b8ff" d="M346.59,-51.42C373.12,-41.59 409.93,-27.95 433.61,-19.17"/>
<polygon fill="#63b8ff" stroke="#63b8ff" points="345.14,-48.23 336.98,-54.98 347.57,-54.79 345.14,-48.23"/>
</a>
</g>
</g>
<!-- Node6 -->
<g id="Node000006" class="node">
<title>Node6</title>
<g id="a_Node000006"><a xlink:href="Connection_8cpp.html" target="_top" xlink:title=" ">
<polygon fill="white" stroke="#666666" points="700.5,-19 543.5,-19 543.5,0 700.5,0 700.5,-19"/>
<text text-anchor="middle" x="622" y="-7" font-family="Helvetica,sans-Serif" font-size="10.00">srcs/network/Connection.cpp</text>
</a>
</g>
</g>
<!-- Node1&#45;&gt;Node6 -->
<g id="edge5_Node000001_Node000006" class="edge">
<title>Node1&#45;&gt;Node6</title>
<g id="a_edge5_Node000001_Node000006"><a xlink:title=" ">
<path fill="none" stroke="#63b8ff" d="M373.58,-53.25C431.41,-43.3 518.19,-28.36 572.38,-19.04"/>
<polygon fill="#63b8ff" stroke="#63b8ff" points="372.75,-49.84 363.49,-54.98 373.93,-56.74 372.75,-49.84"/>
</a>
</g>
</g>
</g>
</svg>
