<?xml version="1.0" encoding="UTF-8" standalone="no"?>
<!DOCTYPE svg PUBLIC "-//W3C//DTD SVG 1.1//EN"
 "http://www.w3.org/Graphics/SVG/1.1/DTD/svg11.dtd">
<!-- Generated by graphviz version 2.42.4 (0)
 -->
<!-- Title: serveDir Pages: 1 -->
<!--zoomable 751 -->

<svg id="main" version="1.1" xmlns="http://www.w3.org/2000/svg" xmlns:xlink="http://www.w3.org/1999/xlink" xml:space="preserve" onload="init(evt)">
<style type="text/css"><![CDATA[
.node, .edge {opacity: 0.7;}
.node.selected, .edge.selected {opacity: 1;}
.edge:hover path { stroke: red; }
.edge:hover polygon { stroke: red; fill: red; }
]]></style>

<defs>
  <circle id="rim" cx="0" cy="0" r="7"/>
  <circle id="rim2" cx="0" cy="0" r="3.5"/>
  <g id="zoomPlus">
    <use xlink:href="#rim" fill="#404040"><set attributeName="fill" to="#808080" begin="zoomplus.mouseover" end="zoomplus.mouseout"/></use>
    <path d="M-4,0h8M0,-4v8" fill="none" stroke="white" stroke-width="1.5" pointer-events="none"/>
  </g>
  <g id="zoomMin">
    <use xlink:href="#rim" fill="#404040"><set attributeName="fill" to="#808080" begin="zoomminus.mouseover" end="zoomminus.mouseout"/></use>
    <path d="M-4,0h8" fill="none" stroke="white" stroke-width="1.5" pointer-events="none"/>
  </g>
  <g id="arrowUp" transform="translate(30 24)">
    <use xlink:href="#rim"/>
    <path pointer-events="none" fill="none" stroke="white" stroke-width="1.5" d="M0,-3.0v7 M-2.5,-0.5L0,-3.0L2.5,-0.5"/>
  </g>
  <g id="arrowRight" transform="rotate(90) translate(36 -43)">
    <use xlink:href="#rim"/>
    <path pointer-events="none" fill="none" stroke="white" stroke-width="1.5" d="M0,-3.0v7 M-2.5,-0.5L0,-3.0L2.5,-0.5"/>
  </g>
  <g id="arrowDown" transform="rotate(180) translate(-30 -48)">
    <use xlink:href="#rim"/>
    <path pointer-events="none" fill="none" stroke="white" stroke-width="1.5" d="M0,-3.0v7 M-2.5,-0.5L0,-3.0L2.5,-0.5"/>
  </g>
  <g id="arrowLeft" transform="rotate(270) translate(-36 17)">
    <use xlink:href="#rim"/>
    <path pointer-events="none" fill="none" stroke="white" stroke-width="1.5" d="M0,-3.0v7 M-2.5,-0.5L0,-3.0L2.5,-0.5"/>
  </g>
  <g id="resetDef">
    <use xlink:href="#rim2" fill="#404040"><set attributeName="fill" to="#808080" begin="reset.mouseover" end="reset.mouseout"/></use>
  </g>
</defs>
<script type="application/ecmascript">
var viewWidth = 921;
var viewHeight = 751;
var sectionId = 'dynsection-8';
</script>
<script type="application/ecmascript" xlink:href="svg.min.js"/>
<svg id="graph" class="graph">
<g id="viewport">
<title>serveDir</title>
<!-- Node1 -->
<g id="Node000001" class="node">
<title>Node1</title>
<g id="a_Node000001"><a xlink:title="Traite un dossier : 301 sans slash final, sinon index puis serveFile.">
<polygon fill="#999999" stroke="#666666" points="58,-169 0,-169 0,-150 58,-150 58,-169"/>
<text text-anchor="middle" x="29" y="-157" font-family="Helvetica,sans-Serif" font-size="10.00">serveDir</text>
</a>
</g>
</g>
<!-- Node2 -->
<g id="Node000002" class="node">
<title>Node2</title>
<g id="a_Node000002"><a xlink:href="Autoindex_8cpp.html#a7986baaa776b1b3a32f5de20d1d9d897" target="_top" xlink:title="Genere le listing HTML d&#39;un dossier (autoindex on).">
<polygon fill="white" stroke="#666666" points="221.5,-650 126.5,-650 126.5,-631 221.5,-631 221.5,-650"/>
<text text-anchor="middle" x="174" y="-638" font-family="Helvetica,sans-Serif" font-size="10.00">build_autoindex</text>
</a>
</g>
</g>
<!-- Node1&#45;&gt;Node2 -->
<g id="edge1_Node000001_Node000002" class="edge">
<title>Node1&#45;&gt;Node2</title>
<g id="a_edge1_Node000001_Node000002"><a xlink:title=" ">
<path fill="none" stroke="#63b8ff" d="M30.73,-169.21C34.94,-223.46 57.15,-489.26 94,-561.5 107.25,-587.49 132.2,-610.2 150.53,-624.53"/>
<polygon fill="#63b8ff" stroke="#63b8ff" points="148.82,-627.62 158.91,-630.86 153.04,-622.04 148.82,-627.62"/>
</a>
</g>
</g>
<!-- Node8 -->
<g id="Node000008" class="node">
<title>Node8</title>
<g id="a_Node000008"><a xlink:href="classResponse.html#aeaa3673db99a8c45772c3a5a5b949c4a" target="_top" xlink:title="Lit le fichier d&#39;erreur s&#39;il existe, sinon cree un built in, renvoie le tout comme reponse.">
<polygon fill="white" stroke="#666666" points="408,-320 290,-320 290,-301 408,-301 408,-320"/>
<text text-anchor="middle" x="349" y="-308" font-family="Helvetica,sans-Serif" font-size="10.00">Response::BuildError</text>
</a>
</g>
</g>
<!-- Node1&#45;&gt;Node8 -->
<g id="edge7_Node000001_Node000008" class="edge">
<title>Node1&#45;&gt;Node8</title>
<g id="a_edge7_Node000001_Node000008"><a xlink:title=" ">
<path fill="none" stroke="#63b8ff" d="M32.97,-169.02C39.94,-189.71 59.44,-238.82 94,-262.5 148.69,-299.98 224.84,-310.19 279.48,-312.12"/>
<polygon fill="#63b8ff" stroke="#63b8ff" points="279.67,-315.62 289.76,-312.39 279.86,-308.63 279.67,-315.62"/>
</a>
</g>
</g>
<!-- Node11 -->
<g id="Node000011" class="node">
<title>Node11</title>
<g id="a_Node000011"><a xlink:href="classResponse.html#a38d47b3fe3909d0a6851c8f672fa4c8b" target="_top" xlink:title="pose aussi Content&#45;Length">
<polygon fill="white" stroke="#666666" points="749,-481 639,-481 639,-462 749,-462 749,-481"/>
<text text-anchor="middle" x="694" y="-469" font-family="Helvetica,sans-Serif" font-size="10.00">Response::SetBody</text>
</a>
</g>
</g>
<!-- Node1&#45;&gt;Node11 -->
<g id="edge30_Node000001_Node000011" class="edge">
<title>Node1&#45;&gt;Node11</title>
<g id="a_edge30_Node000001_Node000011"><a xlink:title=" ">
<path fill="none" stroke="#63b8ff" d="M32.41,-169.01C38.93,-193.2 58.78,-258.12 94,-300.5 161.93,-382.24 196.97,-386.11 290,-437.5 411.7,-504.73 458.63,-523.92 596,-502.5 618.06,-499.06 641.97,-491.47 660.52,-484.66"/>
<polygon fill="#63b8ff" stroke="#63b8ff" points="661.85,-487.9 669.97,-481.09 659.38,-481.35 661.85,-487.9"/>
</a>
</g>
</g>
<!-- Node12 -->
<g id="Node000012" class="node">
<title>Node12</title>
<g id="a_Node000012"><a xlink:href="classResponse.html#a57e91a47a4522fa82bd99dd7464e1c87" target="_top" xlink:title=" ">
<polygon fill="white" stroke="#666666" points="913,-263 792,-263 792,-244 913,-244 913,-263"/>
<text text-anchor="middle" x="852.5" y="-251" font-family="Helvetica,sans-Serif" font-size="10.00">Response::SetHeader</text>
</a>
</g>
</g>
<!-- Node1&#45;&gt;Node12 -->
<g id="edge31_Node000001_Node000012" class="edge">
<title>Node1&#45;&gt;Node12</title>
<g id="a_edge31_Node000001_Node000012"><a xlink:title=" ">
<path fill="none" stroke="#63b8ff" d="M58.37,-153.81C113.79,-143.21 240.41,-121.5 348,-121.5 348,-121.5 348,-121.5 521,-121.5 625.79,-121.5 662.81,-92.59 756,-140.5 796.92,-161.54 827.33,-208.45 841.9,-234.74"/>
<polygon fill="#63b8ff" stroke="#63b8ff" points="838.9,-236.54 846.7,-243.7 845.07,-233.24 838.9,-236.54"/>
</a>
</g>
</g>
<!-- Node16 -->
<g id="Node000016" class="node">
<title>Node16</title>
<g id="a_Node000016"><a xlink:href="classResponse.html#a7f9b175d957559236e0b065e4d495963" target="_top" xlink:title="pose _StatusCode ET _StatusText">
<polygon fill="white" stroke="#666666" points="578,-169 462,-169 462,-150 578,-150 578,-169"/>
<text text-anchor="middle" x="520" y="-157" font-family="Helvetica,sans-Serif" font-size="10.00">Response::SetStatus</text>
</a>
</g>
</g>
<!-- Node1&#45;&gt;Node16 -->
<g id="edge32_Node000001_Node000016" class="edge">
<title>Node1&#45;&gt;Node16</title>
<g id="a_edge32_Node000001_Node000016"><a xlink:title=" ">
<path fill="none" stroke="#63b8ff" d="M58.05,-159.5C133.64,-159.5 343.21,-159.5 451.81,-159.5"/>
<polygon fill="#63b8ff" stroke="#63b8ff" points="452,-163 462,-159.5 452,-156 452,-163"/>
</a>
</g>
</g>
<!-- Node18 -->
<g id="Node000018" class="node">
<title>Node18</title>
<g id="a_Node000018"><a xlink:href="classLocationConfig.html#ab49bec38d910c5db0fb2cf93f81d2095" target="_top" xlink:title=" ">
<polygon fill="white" stroke="#666666" points="254,-93 94,-93 94,-74 254,-74 254,-93"/>
<text text-anchor="middle" x="174" y="-81" font-family="Helvetica,sans-Serif" font-size="10.00">LocationConfig::getAutoIndex</text>
</a>
</g>
</g>
<!-- Node1&#45;&gt;Node18 -->
<g id="edge19_Node000001_Node000018" class="edge">
<title>Node1&#45;&gt;Node18</title>
<g id="a_edge19_Node000001_Node000018"><a xlink:title=" ">
<path fill="none" stroke="#63b8ff" d="M39.54,-149.71C51.34,-138.11 72.51,-118.92 94,-107.5 102.45,-103.01 111.88,-99.22 121.18,-96.09"/>
<polygon fill="#63b8ff" stroke="#63b8ff" points="122.32,-99.4 130.8,-93.05 120.21,-92.72 122.32,-99.4"/>
</a>
</g>
</g>
<!-- Node19 -->
<g id="Node000019" class="node">
<title>Node19</title>
<g id="a_Node000019"><a xlink:href="classLocationConfig.html#a001ff50e818dc40ac5baaeff47d604bb" target="_top" xlink:title=" ">
<polygon fill="white" stroke="#666666" points="242.5,-56 105.5,-56 105.5,-37 242.5,-37 242.5,-56"/>
<text text-anchor="middle" x="174" y="-44" font-family="Helvetica,sans-Serif" font-size="10.00">LocationConfig::getIndex</text>
</a>
</g>
</g>
<!-- Node1&#45;&gt;Node19 -->
<g id="edge20_Node000001_Node000019" class="edge">
<title>Node1&#45;&gt;Node19</title>
<g id="a_edge20_Node000001_Node000019"><a xlink:title=" ">
<path fill="none" stroke="#63b8ff" d="M33.6,-149.92C41.42,-130.52 61.85,-86.54 94,-64.5 96.26,-62.95 98.63,-61.53 101.09,-60.23"/>
<polygon fill="#63b8ff" stroke="#63b8ff" points="102.65,-63.37 110.3,-56.04 99.75,-57 102.65,-63.37"/>
</a>
</g>
</g>
<!-- Node20 -->
<g id="Node000020" class="node">
<title>Node20</title>
<g id="a_Node000020"><a xlink:href="classRequest.html#aed56fbd5b75b512f8edc5d92f04a8487" target="_top" xlink:title="Getter de path, /!\ Ne jamais repasser la string en string_c car &#39;\0&#39; possible dans la string.">
<polygon fill="white" stroke="#666666" points="223.5,-19 124.5,-19 124.5,0 223.5,0 223.5,-19"/>
<text text-anchor="middle" x="174" y="-7" font-family="Helvetica,sans-Serif" font-size="10.00">Request::getPath</text>
</a>
</g>
</g>
<!-- Node1&#45;&gt;Node20 -->
<g id="edge21_Node000001_Node000020" class="edge">
<title>Node1&#45;&gt;Node20</title>
<g id="a_edge21_Node000001_Node000020"><a xlink:title=" ">
<path fill="none" stroke="#63b8ff" d="M31.74,-149.74C36.68,-125.09 53.13,-59.99 94,-27.5 100.12,-22.64 107.3,-19.04 114.79,-16.38"/>
<polygon fill="#63b8ff" stroke="#63b8ff" points="115.83,-19.73 124.4,-13.5 113.82,-13.02 115.83,-19.73"/>
</a>
</g>
</g>
<!-- Node21 -->
<g id="Node000021" class="node">
<title>Node21</title>
<g id="a_Node000021"><a xlink:href="Router_8cpp.html#a208f24899fabbb957e90b7daef8a051b" target="_top" xlink:title="Sert un fichier regulier : open/read binaire, MIME, Content&#45;Length.">
<polygon fill="white" stroke="#666666" points="204.5,-254 143.5,-254 143.5,-235 204.5,-235 204.5,-254"/>
<text text-anchor="middle" x="174" y="-242" font-family="Helvetica,sans-Serif" font-size="10.00">serveFile</text>
</a>
</g>
</g>
<!-- Node1&#45;&gt;Node21 -->
<g id="edge22_Node000001_Node000021" class="edge">
<title>Node1&#45;&gt;Node21</title>
<g id="a_edge22_Node000001_Node000021"><a xlink:title=" ">
<path fill="none" stroke="#63b8ff" d="M46.13,-169.09C70.91,-183.82 118.56,-212.14 147.89,-229.57"/>
<polygon fill="#63b8ff" stroke="#63b8ff" points="146.33,-232.72 156.71,-234.82 149.91,-226.7 146.33,-232.72"/>
</a>
</g>
</g>
<!-- Node3 -->
<g id="Node000003" class="node">
<title>Node3</title>
<g id="a_Node000003"><a xlink:href="Autoindex_8cpp.html#a1bf126b1fd7553197aaf979af8cb630c" target="_top" xlink:title="Rend la taille affichable d&#39;une entree.">
<polygon fill="white" stroke="#666666" points="386,-595 312,-595 312,-576 386,-576 386,-595"/>
<text text-anchor="middle" x="349" y="-583" font-family="Helvetica,sans-Serif" font-size="10.00">format_size</text>
</a>
</g>
</g>
<!-- Node2&#45;&gt;Node3 -->
<g id="edge2_Node000002_Node000003" class="edge">
<title>Node2&#45;&gt;Node3</title>
<g id="a_edge2_Node000002_Node000003"><a xlink:title=" ">
<path fill="none" stroke="#63b8ff" d="M205.13,-630.92C233.7,-621.84 276.79,-608.14 308.18,-598.16"/>
<polygon fill="#63b8ff" stroke="#63b8ff" points="309.45,-601.43 317.92,-595.06 307.33,-594.76 309.45,-601.43"/>
</a>
</g>
</g>
<!-- Node4 -->
<g id="Node000004" class="node">
<title>Node4</title>
<g id="a_Node000004"><a xlink:href="Autoindex_8cpp.html#a45cf1c0ce8813ad25f63423b07632dad" target="_top" xlink:title="Formate une date de modification en UTC, style NGINX.">
<polygon fill="white" stroke="#666666" points="387.5,-743 310.5,-743 310.5,-724 387.5,-724 387.5,-743"/>
<text text-anchor="middle" x="349" y="-731" font-family="Helvetica,sans-Serif" font-size="10.00">format_time</text>
</a>
</g>
</g>
<!-- Node2&#45;&gt;Node4 -->
<g id="edge3_Node000002_Node000004" class="edge">
<title>Node2&#45;&gt;Node4</title>
<g id="a_edge3_Node000002_Node000004"><a xlink:title=" ">
<path fill="none" stroke="#63b8ff" d="M187.09,-650.03C207.35,-665.59 249.88,-696.64 290,-715.5 293.86,-717.32 297.96,-719.01 302.11,-720.57"/>
<polygon fill="#63b8ff" stroke="#63b8ff" points="301.24,-723.97 311.83,-723.98 303.55,-717.37 301.24,-723.97"/>
</a>
</g>
</g>
<!-- Node5 -->
<g id="Node000005" class="node">
<title>Node5</title>
<g id="a_Node000005"><a xlink:href="Autoindex_8cpp.html#a10f4b6f7e66606b753817e427564bd93" target="_top" xlink:title=" ">
<polygon fill="white" stroke="#666666" points="388.5,-706 309.5,-706 309.5,-687 388.5,-687 388.5,-706"/>
<text text-anchor="middle" x="349" y="-694" font-family="Helvetica,sans-Serif" font-size="10.00">html_escape</text>
</a>
</g>
</g>
<!-- Node2&#45;&gt;Node5 -->
<g id="edge4_Node000002_Node000005" class="edge">
<title>Node2&#45;&gt;Node5</title>
<g id="a_edge4_Node000002_Node000005"><a xlink:title=" ">
<path fill="none" stroke="#63b8ff" d="M203.31,-650.01C226.56,-657.79 260.36,-669.01 290,-678.5 295.6,-680.29 301.5,-682.16 307.32,-683.98"/>
<polygon fill="#63b8ff" stroke="#63b8ff" points="306.38,-687.35 316.96,-686.98 308.46,-680.67 306.38,-687.35"/>
</a>
</g>
</g>
<!-- Node6 -->
<g id="Node000006" class="node">
<title>Node6</title>
<g id="a_Node000006"><a xlink:href="Autoindex_8cpp.html#ac3588a395e7bbcdb3bbdb7488fddd904" target="_top" xlink:title=" ">
<polygon fill="white" stroke="#666666" points="374,-669 324,-669 324,-650 374,-650 374,-669"/>
<text text-anchor="middle" x="349" y="-657" font-family="Helvetica,sans-Serif" font-size="10.00">list_dir</text>
</a>
</g>
</g>
<!-- Node2&#45;&gt;Node6 -->
<g id="edge5_Node000002_Node000006" class="edge">
<title>Node2&#45;&gt;Node6</title>
<g id="a_edge5_Node000002_Node000006"><a xlink:title=" ">
<path fill="none" stroke="#63b8ff" d="M221.82,-645.64C250.66,-648.81 287.03,-652.8 313.3,-655.69"/>
<polygon fill="#63b8ff" stroke="#63b8ff" points="313.22,-659.2 323.54,-656.81 313.98,-652.24 313.22,-659.2"/>
</a>
</g>
</g>
<!-- Node7 -->
<g id="Node000007" class="node">
<title>Node7</title>
<g id="a_Node000007"><a xlink:href="Autoindex_8cpp.html#a750e3742737086f86d7cb54e06105fe7" target="_top" xlink:title=" ">
<polygon fill="white" stroke="#666666" points="384,-632 314,-632 314,-613 384,-613 384,-632"/>
<text text-anchor="middle" x="349" y="-620" font-family="Helvetica,sans-Serif" font-size="10.00">url_encode</text>
</a>
</g>
</g>
<!-- Node2&#45;&gt;Node7 -->
<g id="edge6_Node000002_Node000007" class="edge">
<title>Node2&#45;&gt;Node7</title>
<g id="a_edge6_Node000002_Node000007"><a xlink:title=" ">
<path fill="none" stroke="#63b8ff" d="M221.82,-635.63C247.32,-632.98 278.7,-629.71 303.79,-627.1"/>
<polygon fill="#63b8ff" stroke="#63b8ff" points="304.19,-630.58 313.77,-626.06 303.46,-623.62 304.19,-630.58"/>
</a>
</g>
</g>
<!-- Node9 -->
<g id="Node000009" class="node">
<title>Node9</title>
<g id="a_Node000009"><a xlink:href="classServerConfig.html#abc10b3c8133bbe2715745435befd5c76" target="_top" xlink:title="Traduit une URI en chemin disque via le root de la location.">
<polygon fill="white" stroke="#666666" points="588,-358 452,-358 452,-339 588,-339 588,-358"/>
<text text-anchor="middle" x="520" y="-346" font-family="Helvetica,sans-Serif" font-size="10.00">ServerConfig::build_path</text>
</a>
</g>
</g>
<!-- Node8&#45;&gt;Node9 -->
<g id="edge8_Node000008_Node000009" class="edge">
<title>Node8&#45;&gt;Node9</title>
<g id="a_edge8_Node000008_Node000009"><a xlink:title=" ">
<path fill="none" stroke="#63b8ff" d="M392.65,-320.09C415.15,-325.15 442.95,-331.4 466.74,-336.75"/>
<polygon fill="#63b8ff" stroke="#63b8ff" points="466.14,-340.2 476.66,-338.98 467.67,-333.37 466.14,-340.2"/>
</a>
</g>
</g>
<!-- Node10 -->
<g id="Node000010" class="node">
<title>Node10</title>
<g id="a_Node000010"><a xlink:href="classResponse.html#a2b91a2e06e39090e0ec2dfde64820dbb" target="_top" xlink:title="Cree un body de reponse http en fonction de l&#39;erreur.">
<polygon fill="white" stroke="#666666" points="592.5,-443.5 447.5,-443.5 447.5,-413.5 592.5,-413.5 592.5,-443.5"/>
<text text-anchor="start" x="455.5" y="-431.5" font-family="Helvetica,sans-Serif" font-size="10.00">Response::generateBuiltIn</text>
<text text-anchor="middle" x="520" y="-420.5" font-family="Helvetica,sans-Serif" font-size="10.00">Error</text>
</a>
</g>
</g>
<!-- Node8&#45;&gt;Node10 -->
<g id="edge9_Node000008_Node000010" class="edge">
<title>Node8&#45;&gt;Node10</title>
<g id="a_edge9_Node000008_Node000010"><a xlink:title=" ">
<path fill="none" stroke="#63b8ff" d="M357.14,-320.27C371.5,-339.23 405.77,-381.19 444,-404.5 446.8,-406.21 449.74,-407.81 452.76,-409.3"/>
<polygon fill="#63b8ff" stroke="#63b8ff" points="451.46,-412.56 462.02,-413.48 454.34,-406.18 451.46,-412.56"/>
</a>
</g>
</g>
<!-- Node8&#45;&gt;Node11 -->
<g id="edge15_Node000008_Node000011" class="edge">
<title>Node8&#45;&gt;Node11</title>
<g id="a_edge15_Node000008_Node000011"><a xlink:title=" ">
<path fill="none" stroke="#63b8ff" d="M353.08,-320.32C362.06,-347.08 390.98,-421.35 444,-452.5 500.02,-485.4 575.76,-486.3 628.96,-481.38"/>
<polygon fill="#63b8ff" stroke="#63b8ff" points="629.35,-484.86 638.95,-480.37 628.64,-477.9 629.35,-484.86"/>
</a>
</g>
</g>
<!-- Node8&#45;&gt;Node12 -->
<g id="edge16_Node000008_Node000012" class="edge">
<title>Node8&#45;&gt;Node12</title>
<g id="a_edge16_Node000008_Node000012"><a xlink:title=" ">
<path fill="none" stroke="#63b8ff" d="M408.23,-313.42C487.75,-316.09 634.34,-316.36 756,-290.5 779.4,-285.53 804.58,-275.56 823.21,-267.22"/>
<polygon fill="#63b8ff" stroke="#63b8ff" points="824.68,-270.4 832.31,-263.05 821.76,-264.04 824.68,-270.4"/>
</a>
</g>
</g>
<!-- Node13 -->
<g id="Node000013" class="node">
<title>Node13</title>
<g id="a_Node000013"><a xlink:href="classServerConfig.html#a81447d6457e725384798527b8587ccaa" target="_top" xlink:title=" ">
<polygon fill="white" stroke="#666666" points="596,-395 444,-395 444,-376 596,-376 596,-395"/>
<text text-anchor="middle" x="520" y="-383" font-family="Helvetica,sans-Serif" font-size="10.00">ServerConfig::getErrorPages</text>
</a>
</g>
</g>
<!-- Node8&#45;&gt;Node13 -->
<g id="edge12_Node000008_Node000013" class="edge">
<title>Node8&#45;&gt;Node13</title>
<g id="a_edge12_Node000008_Node000013"><a xlink:title=" ">
<path fill="none" stroke="#63b8ff" d="M363,-320.19C380.53,-332.82 413.11,-354.79 444,-367.5 449.03,-369.57 454.35,-371.44 459.75,-373.11"/>
<polygon fill="#63b8ff" stroke="#63b8ff" points="458.91,-376.51 469.49,-375.92 460.85,-369.79 458.91,-376.51"/>
</a>
</g>
</g>
<!-- Node14 -->
<g id="Node000014" class="node">
<title>Node14</title>
<g id="a_Node000014"><a xlink:href="classServerConfig.html#aa65c203b34f8636d4f9f1dbcd8e157be" target="_top" xlink:title="La location matchant l&#39;URI, prefixe le plus long.">
<polygon fill="white" stroke="#666666" points="582,-282 458,-282 458,-263 582,-263 582,-282"/>
<text text-anchor="middle" x="520" y="-270" font-family="Helvetica,sans-Serif" font-size="10.00">ServerConfig::Resolve</text>
</a>
</g>
</g>
<!-- Node8&#45;&gt;Node14 -->
<g id="edge13_Node000008_Node000014" class="edge">
<title>Node8&#45;&gt;Node14</title>
<g id="a_edge13_Node000008_Node000014"><a xlink:title=" ">
<path fill="none" stroke="#63b8ff" d="M392.65,-300.91C415.15,-295.85 442.95,-289.6 466.74,-284.25"/>
<polygon fill="#63b8ff" stroke="#63b8ff" points="467.67,-287.63 476.66,-282.02 466.14,-280.8 467.67,-287.63"/>
</a>
</g>
</g>
<!-- Node8&#45;&gt;Node16 -->
<g id="edge17_Node000008_Node000016" class="edge">
<title>Node8&#45;&gt;Node16</title>
<g id="a_edge17_Node000008_Node000016"><a xlink:title=" ">
<path fill="none" stroke="#63b8ff" d="M390.93,-301C397.11,-298.31 403.06,-294.88 408,-290.5 435.37,-266.25 420.81,-244.78 444,-216.5 457.78,-199.69 477.47,-184.97 493.22,-174.7"/>
<polygon fill="#63b8ff" stroke="#63b8ff" points="495.37,-177.48 501.96,-169.19 491.63,-171.56 495.37,-177.48"/>
</a>
</g>
</g>
<!-- Node10&#45;&gt;Node11 -->
<g id="edge10_Node000010_Node000011" class="edge">
<title>Node10&#45;&gt;Node11</title>
<g id="a_edge10_Node000010_Node000011"><a xlink:title=" ">
<path fill="none" stroke="#63b8ff" d="M581.16,-443.54C602.12,-448.78 625.35,-454.59 645.18,-459.54"/>
<polygon fill="#63b8ff" stroke="#63b8ff" points="644.36,-462.95 654.91,-461.98 646.06,-456.16 644.36,-462.95"/>
</a>
</g>
</g>
<!-- Node11&#45;&gt;Node12 -->
<g id="edge11_Node000011_Node000012" class="edge">
<title>Node11&#45;&gt;Node12</title>
<g id="a_edge11_Node000011_Node000012"><a xlink:title=" ">
<path fill="none" stroke="#63b8ff" d="M701.93,-461.85C726.12,-428.16 807.07,-315.38 838.69,-271.34"/>
<polygon fill="#63b8ff" stroke="#63b8ff" points="841.66,-273.2 844.65,-263.04 835.98,-269.12 841.66,-273.2"/>
</a>
</g>
</g>
<!-- Node15 -->
<g id="Node000015" class="node">
<title>Node15</title>
<g id="a_Node000015"><a xlink:href="utils_8cpp.html#a6c5106f7f4691c9fcce1d810962fbe8f" target="_top" xlink:title="check si le prefixe path s&#39;arrete sur une frontiere de segment de l&#39;URI">
<polygon fill="white" stroke="#666666" points="756,-282 632,-282 632,-263 756,-263 756,-282"/>
<text text-anchor="middle" x="694" y="-270" font-family="Helvetica,sans-Serif" font-size="10.00">is_segment_boundary</text>
</a>
</g>
</g>
<!-- Node14&#45;&gt;Node15 -->
<g id="edge14_Node000014_Node000015" class="edge">
<title>Node14&#45;&gt;Node15</title>
<g id="a_edge14_Node000014_Node000015"><a xlink:title=" ">
<path fill="none" stroke="#63b8ff" d="M582.13,-272.5C594.85,-272.5 608.37,-272.5 621.43,-272.5"/>
<polygon fill="#63b8ff" stroke="#63b8ff" points="621.78,-276 631.78,-272.5 621.78,-269 621.78,-276"/>
</a>
</g>
</g>
<!-- Node17 -->
<g id="Node000017" class="node">
<title>Node17</title>
<g id="a_Node000017"><a xlink:href="Response_8cpp.html#a3c5697cdaf5346a857f580182a004a6a" target="_top" xlink:title=" ">
<polygon fill="white" stroke="#666666" points="728,-169 660,-169 660,-150 728,-150 728,-169"/>
<text text-anchor="middle" x="694" y="-157" font-family="Helvetica,sans-Serif" font-size="10.00">StatusText</text>
</a>
</g>
</g>
<!-- Node16&#45;&gt;Node17 -->
<g id="edge18_Node000016_Node000017" class="edge">
<title>Node16&#45;&gt;Node17</title>
<g id="a_edge18_Node000016_Node000017"><a xlink:title=" ">
<path fill="none" stroke="#63b8ff" d="M578.27,-159.5C601.54,-159.5 627.97,-159.5 649.59,-159.5"/>
<polygon fill="#63b8ff" stroke="#63b8ff" points="649.79,-163 659.79,-159.5 649.79,-156 649.79,-163"/>
</a>
</g>
</g>
<!-- Node21&#45;&gt;Node8 -->
<g id="edge23_Node000021_Node000008" class="edge">
<title>Node21&#45;&gt;Node8</title>
<g id="a_edge23_Node000021_Node000008"><a xlink:title=" ">
<path fill="none" stroke="#63b8ff" d="M198.22,-254.17C221.36,-263.72 257.96,-278.57 290,-290.5 296.37,-292.87 303.17,-295.3 309.79,-297.62"/>
<polygon fill="#63b8ff" stroke="#63b8ff" points="308.69,-300.94 319.29,-300.91 310.98,-294.33 308.69,-300.94"/>
</a>
</g>
</g>
<!-- Node21&#45;&gt;Node11 -->
<g id="edge28_Node000021_Node000011" class="edge">
<title>Node21&#45;&gt;Node11</title>
<g id="a_edge28_Node000021_Node000011"><a xlink:title=" ">
<path fill="none" stroke="#63b8ff" d="M181.68,-254.11C208.82,-292.22 315.61,-433.01 444,-481.5 511.92,-507.15 597.79,-494.88 648.89,-483.37"/>
<polygon fill="#63b8ff" stroke="#63b8ff" points="649.69,-486.78 658.63,-481.1 648.1,-479.97 649.69,-486.78"/>
</a>
</g>
</g>
<!-- Node21&#45;&gt;Node16 -->
<g id="edge29_Node000021_Node000016" class="edge">
<title>Node21&#45;&gt;Node16</title>
<g id="a_edge29_Node000021_Node000016"><a xlink:title=" ">
<path fill="none" stroke="#63b8ff" d="M204.63,-237.18C264.09,-222.49 398.43,-189.29 470.75,-171.42"/>
<polygon fill="#63b8ff" stroke="#63b8ff" points="471.66,-174.8 480.53,-169.01 469.98,-168.01 471.66,-174.8"/>
</a>
</g>
</g>
<!-- Node22 -->
<g id="Node000022" class="node">
<title>Node22</title>
<g id="a_Node000022"><a xlink:href="Router_8cpp.html#a91c58b823f978a3b87f987b2c1d9cdd3" target="_top" xlink:title="Pose Content&#45;Type sur res d&#39;apres l&#39;extension de path.">
<polygon fill="white" stroke="#666666" points="379,-282 319,-282 319,-263 379,-263 379,-282"/>
<text text-anchor="middle" x="349" y="-270" font-family="Helvetica,sans-Serif" font-size="10.00">getMime</text>
</a>
</g>
</g>
<!-- Node21&#45;&gt;Node22 -->
<g id="edge24_Node000021_Node000022" class="edge">
<title>Node21&#45;&gt;Node22</title>
<g id="a_edge24_Node000021_Node000022"><a xlink:title=" ">
<path fill="none" stroke="#63b8ff" d="M204.74,-249.31C233.47,-253.96 277.16,-261.03 308.73,-266.14"/>
<polygon fill="#63b8ff" stroke="#63b8ff" points="308.51,-269.65 318.94,-267.8 309.62,-262.74 308.51,-269.65"/>
</a>
</g>
</g>
<!-- Node24 -->
<g id="Node000024" class="node">
<title>Node24</title>
<g id="a_Node000024"><a xlink:href="Router_8cpp.html#a2213df368d729a28ca811c52b84847ae" target="_top" xlink:title="Table MIME extension &#45;&gt; Content&#45;Type, construite une seule fois.">
<polygon fill="white" stroke="#666666" points="386.5,-245 311.5,-245 311.5,-226 386.5,-226 386.5,-245"/>
<text text-anchor="middle" x="349" y="-233" font-family="Helvetica,sans-Serif" font-size="10.00">mime_table</text>
</a>
</g>
</g>
<!-- Node21&#45;&gt;Node24 -->
<g id="edge27_Node000021_Node000024" class="edge">
<title>Node21&#45;&gt;Node24</title>
<g id="a_edge27_Node000021_Node000024"><a xlink:title=" ">
<path fill="none" stroke="#63b8ff" d="M204.74,-242.95C231.3,-241.57 270.64,-239.52 301.38,-237.93"/>
<polygon fill="#63b8ff" stroke="#63b8ff" points="301.64,-241.42 311.44,-237.4 301.28,-234.43 301.64,-241.42"/>
</a>
</g>
</g>
<!-- Node22&#45;&gt;Node12 -->
<g id="edge26_Node000022_Node000012" class="edge">
<title>Node22&#45;&gt;Node12</title>
<g id="a_edge26_Node000022_Node000012"><a xlink:title=" ">
<path fill="none" stroke="#63b8ff" d="M379.24,-265.91C388.84,-262.99 399.28,-258.94 408,-253.5 427.47,-241.35 422.86,-225.43 444,-216.5 573.69,-161.74 746.8,-213.94 818.37,-240.31"/>
<polygon fill="#63b8ff" stroke="#63b8ff" points="817.19,-243.6 827.79,-243.84 819.66,-237.05 817.19,-243.6"/>
</a>
</g>
</g>
<!-- Node23 -->
<g id="Node000023" class="node">
<title>Node23</title>
<g id="a_Node000023"><a xlink:href="Router_8cpp.html#aa683fc1aad0e97aa8f520951afb94bd4" target="_top" xlink:title="Extraie l&#39;extension du nom de fichier (dernier &#39;.">
<polygon fill="white" stroke="#666666" points="545,-245 495,-245 495,-226 545,-226 545,-245"/>
<text text-anchor="middle" x="520" y="-233" font-family="Helvetica,sans-Serif" font-size="10.00">getKey</text>
</a>
</g>
</g>
<!-- Node22&#45;&gt;Node23 -->
<g id="edge25_Node000022_Node000023" class="edge">
<title>Node22&#45;&gt;Node23</title>
<g id="a_edge25_Node000022_Node000023"><a xlink:title=" ">
<path fill="none" stroke="#63b8ff" d="M379.05,-266.14C408.47,-259.7 453.95,-249.74 485.03,-242.94"/>
<polygon fill="#63b8ff" stroke="#63b8ff" points="485.95,-246.32 494.97,-240.76 484.45,-239.48 485.95,-246.32"/>
</a>
</g>
</g>
</g>
</svg>

<g id="navigator" transform="translate(0 0)" fill="#404254">
  <rect fill="#f2f5e9" fill-opacity="0.5" stroke="#606060" stroke-width=".5" x="0" y="0" width="60" height="60"/>
  <use id="zoomplus" xlink:href="#zoomPlus" x="17" y="9" onmousedown="handleZoom(evt,'in')"/>
  <use id="zoomminus" xlink:href="#zoomMin" x="42" y="9" onmousedown="handleZoom(evt,'out')"/>
  <use id="reset" xlink:href="#resetDef" x="30" y="36" onmousedown="handleReset()"/>
   <use id="arrowup" xlink:href="#arrowUp" x="0" y="0" onmousedown="handlePan(0,-1)"/>
  <use id="arrowright" xlink:href="#arrowRight" x="0" y="0" onmousedown="handlePan(1,0)"/>
  <use id="arrowdown" xlink:href="#arrowDown" x="0" y="0" onmousedown="handlePan(0,1)"/>
  <use id="arrowleft" xlink:href="#arrowLeft" x="0" y="0" onmousedown="handlePan(-1,0)"/>
</g>
<svg viewBox="0 0 15 15" width="100%" height="30px" preserveAspectRatio="xMaxYMin meet">
 <g id="arrow_out" transform="scale(0.3 0.3)">
  <a xlink:href="Router_8cpp_a736a9fc95b97a0e298cdf20ba056302d_cgraph_org.svg" target="_base">
   <rect id="button" ry="5" rx="5" y="6" x="6" height="38" width="38"
        fill="#f2f5e9" fill-opacity="0.5" stroke="#606060" stroke-width="1.0"/>
   <path id="arrow"
     d="M 11.500037,31.436501 C 11.940474,20.09759 22.043105,11.32322 32.158766,21.979434 L 37.068811,17.246167 C 37.068811,17.246167 37.088388,32 37.088388,32 L 22.160133,31.978069 C 22.160133,31.978069 26.997745,27.140456 26.997745,27.140456 C 18.528582,18.264221 13.291696,25.230495 11.500037,31.436501 z"
     style="fill:#404040;"/>
  </a>
 </g>
</svg>

<style type='text/css'>
<![CDATA[
[data-mouse-over-selected='false'] { opacity: 0.7; }
[data-mouse-over-selected='true']  { opacity: 1.0; }
]]>
</style>
<script type="application/ecmascript"><![CDATA[
document.addEventListener('DOMContentLoaded', (event) => {
  highlightEdges();
  highlightAdjacentNodes();
});
]]></script>
</svg>
