<?xml version="1.0" encoding="UTF-8" standalone="no"?>
<!DOCTYPE svg PUBLIC "-//W3C//DTD SVG 1.1//EN"
 "http://www.w3.org/Graphics/SVG/1.1/DTD/svg11.dtd">
<!-- Generated by graphviz version 2.42.4 (0)
 -->
<!-- Title: handleSession Pages: 1 -->
<svg width="774pt" height="451pt"
 viewBox="0.00 0.00 774.00 451.00" xmlns="http://www.w3.org/2000/svg" xmlns:xlink="http://www.w3.org/1999/xlink">
<g id="graph0" class="graph" transform="scale(1 1) rotate(0) translate(4 447)">
<title>handleSession</title>
<!-- Node1 -->
<g id="Node000001" class="node">
<title>Node1</title>
<g id="a_Node000001"><a xlink:title=" ">
<polygon fill="#999999" stroke="#666666" points="87,-224 0,-224 0,-205 87,-205 87,-224"/>
<text text-anchor="middle" x="43.5" y="-212" font-family="Helvetica,sans-Serif" font-size="10.00">handleSession</text>
</a>
</g>
</g>
<!-- Node2 -->
<g id="Node000002" class="node">
<title>Node2</title>
<g id="a_Node000002"><a xlink:href="classResponse.html#acb0980f3803ca2d1f4351fcd26bc988d" target="_top" xlink:title="false si valeur invalide">
<polygon fill="white" stroke="#666666" points="261,-443 123,-443 123,-424 261,-424 261,-443"/>
<text text-anchor="middle" x="192" y="-431" font-family="Helvetica,sans-Serif" font-size="10.00">Response::AddSetCookie</text>
</a>
</g>
</g>
<!-- Node1&#45;&gt;Node2 -->
<g id="edge1_Node000001_Node000002" class="edge">
<title>Node1&#45;&gt;Node2</title>
<g id="a_edge1_Node000001_Node000002"><a xlink:title=" ">
<path fill="none" stroke="#63b8ff" d="M45.59,-224.16C49.64,-255.51 66.59,-355.49 123,-409.5 127.23,-413.55 132.18,-416.92 137.45,-419.72"/>
<polygon fill="#63b8ff" stroke="#63b8ff" points="136.01,-422.91 146.55,-423.93 138.95,-416.56 136.01,-422.91"/>
</a>
</g>
</g>
<!-- Node3 -->
<g id="Node000003" class="node">
<title>Node3</title>
<g id="a_Node000003"><a xlink:href="classResponse.html#aeaa3673db99a8c45772c3a5a5b949c4a" target="_top" xlink:title="Lit le fichier d&#39;erreur s&#39;il existe, sinon cree un built in, renvoie le tout comme reponse.">
<polygon fill="white" stroke="#666666" points="251,-224 133,-224 133,-205 251,-205 251,-224"/>
<text text-anchor="middle" x="192" y="-212" font-family="Helvetica,sans-Serif" font-size="10.00">Response::BuildError</text>
</a>
</g>
</g>
<!-- Node1&#45;&gt;Node3 -->
<g id="edge2_Node000001_Node000003" class="edge">
<title>Node1&#45;&gt;Node3</title>
<g id="a_edge2_Node000001_Node000003"><a xlink:title=" ">
<path fill="none" stroke="#63b8ff" d="M87.27,-214.5C98.42,-214.5 110.72,-214.5 122.83,-214.5"/>
<polygon fill="#63b8ff" stroke="#63b8ff" points="122.93,-218 132.93,-214.5 122.93,-211 122.93,-218"/>
</a>
</g>
</g>
<!-- Node6 -->
<g id="Node000006" class="node">
<title>Node6</title>
<g id="a_Node000006"><a xlink:href="classResponse.html#a38d47b3fe3909d0a6851c8f672fa4c8b" target="_top" xlink:title="pose aussi Content&#45;Length">
<polygon fill="white" stroke="#666666" points="602,-329 492,-329 492,-310 602,-310 602,-329"/>
<text text-anchor="middle" x="547" y="-317" font-family="Helvetica,sans-Serif" font-size="10.00">Response::SetBody</text>
</a>
</g>
</g>
<!-- Node1&#45;&gt;Node6 -->
<g id="edge19_Node000001_Node000006" class="edge">
<title>Node1&#45;&gt;Node6</title>
<g id="a_edge19_Node000001_Node000006"><a xlink:title=" ">
<path fill="none" stroke="#63b8ff" d="M59.96,-224.15C98.29,-247.43 201.53,-306.28 297,-326.5 358.75,-339.58 431.02,-335.47 481.75,-329.52"/>
<polygon fill="#63b8ff" stroke="#63b8ff" points="482.41,-332.96 491.91,-328.27 481.56,-326.02 482.41,-332.96"/>
</a>
</g>
</g>
<!-- Node7 -->
<g id="Node000007" class="node">
<title>Node7</title>
<g id="a_Node000007"><a xlink:href="classResponse.html#a57e91a47a4522fa82bd99dd7464e1c87" target="_top" xlink:title=" ">
<polygon fill="white" stroke="#666666" points="766,-329 645,-329 645,-310 766,-310 766,-329"/>
<text text-anchor="middle" x="705.5" y="-317" font-family="Helvetica,sans-Serif" font-size="10.00">Response::SetHeader</text>
</a>
</g>
</g>
<!-- Node1&#45;&gt;Node7 -->
<g id="edge20_Node000001_Node000007" class="edge">
<title>Node1&#45;&gt;Node7</title>
<g id="a_edge20_Node000001_Node000007"><a xlink:title=" ">
<path fill="none" stroke="#63b8ff" d="M50.26,-224.18C61.7,-242.49 89.1,-282.2 123,-302.5 191.25,-343.38 218,-335.1 297,-344.5 434.72,-360.89 471.25,-354.68 609,-338.5 623.59,-336.79 639.28,-334.05 653.64,-331.17"/>
<polygon fill="#63b8ff" stroke="#63b8ff" points="654.74,-334.52 663.83,-329.07 653.33,-327.67 654.74,-334.52"/>
</a>
</g>
</g>
<!-- Node11 -->
<g id="Node000011" class="node">
<title>Node11</title>
<g id="a_Node000011"><a xlink:href="classResponse.html#a7f9b175d957559236e0b065e4d495963" target="_top" xlink:title="pose _StatusCode ET _StatusText">
<polygon fill="white" stroke="#666666" points="431,-93 315,-93 315,-74 431,-74 431,-93"/>
<text text-anchor="middle" x="373" y="-81" font-family="Helvetica,sans-Serif" font-size="10.00">Response::SetStatus</text>
</a>
</g>
</g>
<!-- Node1&#45;&gt;Node11 -->
<g id="edge21_Node000001_Node000011" class="edge">
<title>Node1&#45;&gt;Node11</title>
<g id="a_edge21_Node000001_Node000011"><a xlink:title=" ">
<path fill="none" stroke="#63b8ff" d="M83.54,-204.99C143.89,-190.18 253.71,-162.75 261,-157.5 284.7,-140.42 273.22,-119.47 297,-102.5 299.73,-100.55 302.65,-98.8 305.68,-97.23"/>
<polygon fill="#63b8ff" stroke="#63b8ff" points="307.38,-100.3 315.09,-93.03 304.53,-93.91 307.38,-100.3"/>
</a>
</g>
</g>
<!-- Node13 -->
<g id="Node000013" class="node">
<title>Node13</title>
<g id="a_Node000013"><a xlink:href="classRequest.html#a729703bdd95038bcf0318cac20db8d17" target="_top" xlink:title=" ">
<polygon fill="white" stroke="#666666" points="248,-148 136,-148 136,-129 248,-129 248,-148"/>
<text text-anchor="middle" x="192" y="-136" font-family="Helvetica,sans-Serif" font-size="10.00">Request::getCookie</text>
</a>
</g>
</g>
<!-- Node1&#45;&gt;Node13 -->
<g id="edge14_Node000001_Node000013" class="edge">
<title>Node1&#45;&gt;Node13</title>
<g id="a_edge14_Node000001_Node000013"><a xlink:title=" ">
<path fill="none" stroke="#63b8ff" d="M56.97,-204.83C71.98,-193.53 98.27,-174.82 123,-162.5 131.31,-158.36 140.52,-154.6 149.4,-151.36"/>
<polygon fill="#63b8ff" stroke="#63b8ff" points="150.57,-154.65 158.85,-148.04 148.25,-148.05 150.57,-154.65"/>
</a>
</g>
</g>
<!-- Node17 -->
<g id="Node000017" class="node">
<title>Node17</title>
<g id="a_Node000017"><a xlink:href="RouterUtils_8cpp.html#a4573ab00f2db052c05c00c393aecbc53" target="_top" xlink:title=" ">
<polygon fill="white" stroke="#666666" points="234.5,-111 149.5,-111 149.5,-92 234.5,-92 234.5,-111"/>
<text text-anchor="middle" x="192" y="-99" font-family="Helvetica,sans-Serif" font-size="10.00">randSessionId</text>
</a>
</g>
</g>
<!-- Node1&#45;&gt;Node17 -->
<g id="edge18_Node000001_Node000017" class="edge">
<title>Node1&#45;&gt;Node17</title>
<g id="a_edge18_Node000001_Node000017"><a xlink:title=" ">
<path fill="none" stroke="#63b8ff" d="M49.82,-204.87C60.86,-185.76 88.18,-143 123,-120.5 128.08,-117.22 133.72,-114.5 139.53,-112.24"/>
<polygon fill="#63b8ff" stroke="#63b8ff" points="141.06,-115.42 149.38,-108.86 138.79,-108.79 141.06,-115.42"/>
</a>
</g>
</g>
<!-- Node4 -->
<g id="Node000004" class="node">
<title>Node4</title>
<g id="a_Node000004"><a xlink:href="classServerConfig.html#abc10b3c8133bbe2715745435befd5c76" target="_top" xlink:title="Traduit une URI en chemin disque via le root de la location.">
<polygon fill="white" stroke="#666666" points="441,-206 305,-206 305,-187 441,-187 441,-206"/>
<text text-anchor="middle" x="373" y="-194" font-family="Helvetica,sans-Serif" font-size="10.00">ServerConfig::build_path</text>
</a>
</g>
</g>
<!-- Node3&#45;&gt;Node4 -->
<g id="edge3_Node000003_Node000004" class="edge">
<title>Node3&#45;&gt;Node4</title>
<g id="a_edge3_Node000003_Node000004"><a xlink:title=" ">
<path fill="none" stroke="#63b8ff" d="M251.12,-208.66C265.05,-207.25 280.15,-205.74 294.8,-204.26"/>
<polygon fill="#63b8ff" stroke="#63b8ff" points="295.25,-207.74 304.85,-203.25 294.55,-200.77 295.25,-207.74"/>
</a>
</g>
</g>
<!-- Node5 -->
<g id="Node000005" class="node">
<title>Node5</title>
<g id="a_Node000005"><a xlink:href="classResponse.html#a2b91a2e06e39090e0ec2dfde64820dbb" target="_top" xlink:title="Cree un body de reponse http en fonction de l&#39;erreur.">
<polygon fill="white" stroke="#666666" points="445.5,-291.5 300.5,-291.5 300.5,-261.5 445.5,-261.5 445.5,-291.5"/>
<text text-anchor="start" x="308.5" y="-279.5" font-family="Helvetica,sans-Serif" font-size="10.00">Response::generateBuiltIn</text>
<text text-anchor="middle" x="373" y="-268.5" font-family="Helvetica,sans-Serif" font-size="10.00">Error</text>
</a>
</g>
</g>
<!-- Node3&#45;&gt;Node5 -->
<g id="edge4_Node000003_Node000005" class="edge">
<title>Node3&#45;&gt;Node5</title>
<g id="a_edge4_Node000003_Node000005"><a xlink:title=" ">
<path fill="none" stroke="#63b8ff" d="M218.12,-224C239.12,-231.87 269.9,-243.22 297,-252.5 302.55,-254.4 308.35,-256.34 314.16,-258.25"/>
<polygon fill="#63b8ff" stroke="#63b8ff" points="313.3,-261.65 323.89,-261.42 315.47,-255 313.3,-261.65"/>
</a>
</g>
</g>
<!-- Node3&#45;&gt;Node6 -->
<g id="edge10_Node000003_Node000006" class="edge">
<title>Node3&#45;&gt;Node6</title>
<g id="a_edge10_Node000003_Node000006"><a xlink:title=" ">
<path fill="none" stroke="#63b8ff" d="M200.93,-224.2C216.86,-242.87 254.85,-283.49 297,-300.5 356.36,-324.46 430.09,-327.1 481.85,-325.04"/>
<polygon fill="#63b8ff" stroke="#63b8ff" points="482.08,-328.54 491.9,-324.57 481.75,-321.54 482.08,-328.54"/>
</a>
</g>
</g>
<!-- Node3&#45;&gt;Node7 -->
<g id="edge11_Node000003_Node000007" class="edge">
<title>Node3&#45;&gt;Node7</title>
<g id="a_edge11_Node000003_Node000007"><a xlink:title=" ">
<path fill="none" stroke="#63b8ff" d="M219.12,-204.95C247.27,-194.74 289.13,-179.82 297,-178.5 363.62,-167.3 383.58,-161.65 449,-178.5 544.76,-203.17 643.02,-272.18 684.3,-303.58"/>
<polygon fill="#63b8ff" stroke="#63b8ff" points="682.39,-306.53 692.45,-309.85 686.66,-300.98 682.39,-306.53"/>
</a>
</g>
</g>
<!-- Node8 -->
<g id="Node000008" class="node">
<title>Node8</title>
<g id="a_Node000008"><a xlink:href="classServerConfig.html#a81447d6457e725384798527b8587ccaa" target="_top" xlink:title=" ">
<polygon fill="white" stroke="#666666" points="449,-243 297,-243 297,-224 449,-224 449,-243"/>
<text text-anchor="middle" x="373" y="-231" font-family="Helvetica,sans-Serif" font-size="10.00">ServerConfig::getErrorPages</text>
</a>
</g>
</g>
<!-- Node3&#45;&gt;Node8 -->
<g id="edge7_Node000003_Node000008" class="edge">
<title>Node3&#45;&gt;Node8</title>
<g id="a_edge7_Node000003_Node000008"><a xlink:title=" ">
<path fill="none" stroke="#63b8ff" d="M251.12,-220.67C262.52,-221.88 274.7,-223.17 286.78,-224.45"/>
<polygon fill="#63b8ff" stroke="#63b8ff" points="286.57,-227.95 296.89,-225.53 287.31,-220.99 286.57,-227.95"/>
</a>
</g>
</g>
<!-- Node9 -->
<g id="Node000009" class="node">
<title>Node9</title>
<g id="a_Node000009"><a xlink:href="classServerConfig.html#aa65c203b34f8636d4f9f1dbcd8e157be" target="_top" xlink:title="La location matchant l&#39;URI, prefixe le plus long.">
<polygon fill="white" stroke="#666666" points="435,-130 311,-130 311,-111 435,-111 435,-130"/>
<text text-anchor="middle" x="373" y="-118" font-family="Helvetica,sans-Serif" font-size="10.00">ServerConfig::Resolve</text>
</a>
</g>
</g>
<!-- Node3&#45;&gt;Node9 -->
<g id="edge8_Node000003_Node000009" class="edge">
<title>Node3&#45;&gt;Node9</title>
<g id="a_edge8_Node000003_Node000009"><a xlink:title=" ">
<path fill="none" stroke="#63b8ff" d="M231.92,-204.99C241.96,-201.44 252.36,-196.71 261,-190.5 282.08,-175.35 275.69,-159.33 297,-144.5 303.17,-140.2 310.15,-136.65 317.31,-133.71"/>
<polygon fill="#63b8ff" stroke="#63b8ff" points="318.96,-136.83 327.12,-130.07 316.53,-130.26 318.96,-136.83"/>
</a>
</g>
</g>
<!-- Node3&#45;&gt;Node11 -->
<g id="edge12_Node000003_Node000011" class="edge">
<title>Node3&#45;&gt;Node11</title>
<g id="a_edge12_Node000003_Node000011"><a xlink:title=" ">
<path fill="none" stroke="#63b8ff" d="M237.42,-204.9C246.01,-201.46 254.38,-196.8 261,-190.5 291.6,-161.36 265.1,-130.21 297,-102.5 299.67,-100.18 302.58,-98.14 305.65,-96.34"/>
<polygon fill="#63b8ff" stroke="#63b8ff" points="307.27,-99.45 314.69,-91.9 304.17,-93.17 307.27,-99.45"/>
</a>
</g>
</g>
<!-- Node5&#45;&gt;Node6 -->
<g id="edge5_Node000005_Node000006" class="edge">
<title>Node5&#45;&gt;Node6</title>
<g id="a_edge5_Node000005_Node000006"><a xlink:title=" ">
<path fill="none" stroke="#63b8ff" d="M434.16,-291.54C455.12,-296.78 478.35,-302.59 498.18,-307.54"/>
<polygon fill="#63b8ff" stroke="#63b8ff" points="497.36,-310.95 507.91,-309.98 499.06,-304.16 497.36,-310.95"/>
</a>
</g>
</g>
<!-- Node6&#45;&gt;Node7 -->
<g id="edge6_Node000006_Node000007" class="edge">
<title>Node6&#45;&gt;Node7</title>
<g id="a_edge6_Node000006_Node000007"><a xlink:title=" ">
<path fill="none" stroke="#63b8ff" d="M602.3,-319.5C612.73,-319.5 623.8,-319.5 634.65,-319.5"/>
<polygon fill="#63b8ff" stroke="#63b8ff" points="634.95,-323 644.95,-319.5 634.95,-316 634.95,-323"/>
</a>
</g>
</g>
<!-- Node10 -->
<g id="Node000010" class="node">
<title>Node10</title>
<g id="a_Node000010"><a xlink:href="utils_8cpp.html#a6c5106f7f4691c9fcce1d810962fbe8f" target="_top" xlink:title="check si le prefixe path s&#39;arrete sur une frontiere de segment de l&#39;URI">
<polygon fill="white" stroke="#666666" points="609,-130 485,-130 485,-111 609,-111 609,-130"/>
<text text-anchor="middle" x="547" y="-118" font-family="Helvetica,sans-Serif" font-size="10.00">is_segment_boundary</text>
</a>
</g>
</g>
<!-- Node9&#45;&gt;Node10 -->
<g id="edge9_Node000009_Node000010" class="edge">
<title>Node9&#45;&gt;Node10</title>
<g id="a_edge9_Node000009_Node000010"><a xlink:title=" ">
<path fill="none" stroke="#63b8ff" d="M435.13,-120.5C447.85,-120.5 461.37,-120.5 474.43,-120.5"/>
<polygon fill="#63b8ff" stroke="#63b8ff" points="474.78,-124 484.78,-120.5 474.78,-117 474.78,-124"/>
</a>
</g>
</g>
<!-- Node12 -->
<g id="Node000012" class="node">
<title>Node12</title>
<g id="a_Node000012"><a xlink:href="Response_8cpp.html#a3c5697cdaf5346a857f580182a004a6a" target="_top" xlink:title=" ">
<polygon fill="white" stroke="#666666" points="581,-93 513,-93 513,-74 581,-74 581,-93"/>
<text text-anchor="middle" x="547" y="-81" font-family="Helvetica,sans-Serif" font-size="10.00">StatusText</text>
</a>
</g>
</g>
<!-- Node11&#45;&gt;Node12 -->
<g id="edge13_Node000011_Node000012" class="edge">
<title>Node11&#45;&gt;Node12</title>
<g id="a_edge13_Node000011_Node000012"><a xlink:title=" ">
<path fill="none" stroke="#63b8ff" d="M431.27,-83.5C454.54,-83.5 480.97,-83.5 502.59,-83.5"/>
<polygon fill="#63b8ff" stroke="#63b8ff" points="502.79,-87 512.79,-83.5 502.79,-80 502.79,-87"/>
</a>
</g>
</g>
<!-- Node14 -->
<g id="Node000014" class="node">
<title>Node14</title>
<g id="a_Node000014"><a xlink:href="classRequest.html#a26b9bd70d82df734bfc0d8745a5bfed4" target="_top" xlink:title=" ">
<polygon fill="white" stroke="#666666" points="431.5,-56 314.5,-56 314.5,-37 431.5,-37 431.5,-56"/>
<text text-anchor="middle" x="373" y="-44" font-family="Helvetica,sans-Serif" font-size="10.00">Request::getCookies</text>
</a>
</g>
</g>
<!-- Node13&#45;&gt;Node14 -->
<g id="edge15_Node000013_Node000014" class="edge">
<title>Node13&#45;&gt;Node14</title>
<g id="a_edge15_Node000013_Node000014"><a xlink:title=" ">
<path fill="none" stroke="#63b8ff" d="M245.34,-128.99C250.91,-126.74 256.26,-123.95 261,-120.5 284.92,-103.09 272.88,-81.63 297,-64.5 299.54,-62.7 302.23,-61.07 305.04,-59.61"/>
<polygon fill="#63b8ff" stroke="#63b8ff" points="306.6,-62.75 314.3,-55.47 303.74,-56.36 306.6,-62.75"/>
</a>
</g>
</g>
<!-- Node15 -->
<g id="Node000015" class="node">
<title>Node15</title>
<g id="a_Node000015"><a xlink:href="classRequest.html#a72c8eeae6ccf7dd1c9f88064894106f8" target="_top" xlink:title="Getters de header /!\ Il est retourner par valeur et non par reference.">
<polygon fill="white" stroke="#666666" points="603.5,-19 490.5,-19 490.5,0 603.5,0 603.5,-19"/>
<text text-anchor="middle" x="547" y="-7" font-family="Helvetica,sans-Serif" font-size="10.00">Request::getHeader</text>
</a>
</g>
</g>
<!-- Node14&#45;&gt;Node15 -->
<g id="edge16_Node000014_Node000015" class="edge">
<title>Node14&#45;&gt;Node15</title>
<g id="a_edge16_Node000014_Node000015"><a xlink:title=" ">
<path fill="none" stroke="#63b8ff" d="M418.29,-36.97C440.68,-32.16 468.03,-26.27 491.68,-21.19"/>
<polygon fill="#63b8ff" stroke="#63b8ff" points="492.52,-24.59 501.56,-19.06 491.04,-17.74 492.52,-24.59"/>
</a>
</g>
</g>
<!-- Node16 -->
<g id="Node000016" class="node">
<title>Node16</title>
<g id="a_Node000016"><a xlink:href="httpUtils_8cpp.html#a8bddc3dcbfa8ff455abebaf144a1f5cf" target="_top" xlink:title="Fonction permettant de trim les espaes de debut det de fin.">
<polygon fill="white" stroke="#666666" points="565.5,-56 528.5,-56 528.5,-37 565.5,-37 565.5,-56"/>
<text text-anchor="middle" x="547" y="-44" font-family="Helvetica,sans-Serif" font-size="10.00">trim</text>
</a>
</g>
</g>
<!-- Node14&#45;&gt;Node16 -->
<g id="edge17_Node000014_Node000016" class="edge">
<title>Node14&#45;&gt;Node16</title>
<g id="a_edge17_Node000014_Node000016"><a xlink:title=" ">
<path fill="none" stroke="#63b8ff" d="M431.75,-46.5C460.9,-46.5 494.92,-46.5 518.21,-46.5"/>
<polygon fill="#63b8ff" stroke="#63b8ff" points="518.41,-50 528.41,-46.5 518.41,-43 518.41,-50"/>
</a>
</g>
</g>
</g>
</svg>
