<?xml version="1.0" encoding="UTF-8" standalone="no"?>
<!DOCTYPE svg PUBLIC "-//W3C//DTD SVG 1.1//EN"
 "http://www.w3.org/Graphics/SVG/1.1/DTD/svg11.dtd">
<!-- Generated by graphviz version 2.42.4 (0)
 -->
<!-- Title: includes/ServerConfig.hpp Pages: 1 -->
<svg width="1761pt" height="313pt"
 viewBox="0.00 0.00 1761.00 313.00" xmlns="http://www.w3.org/2000/svg" xmlns:xlink="http://www.w3.org/1999/xlink">
<g id="graph0" class="graph" transform="scale(1 1) rotate(0) translate(4 309)">
<title>includes/ServerConfig.hpp</title>
<!-- Node1 -->
<g id="Node000001" class="node">
<title>Node1</title>
<g id="a_Node000001"><a xlink:title=" ">
<polygon fill="#999999" stroke="#666666" points="859,-305 716,-305 716,-286 859,-286 859,-305"/>
<text text-anchor="middle" x="787.5" y="-293" font-family="Helvetica,sans-Serif" font-size="10.00">includes/ServerConfig.hpp</text>
</a>
</g>
</g>
<!-- Node2 -->
<g id="Node000002" class="node">
<title>Node2</title>
<g id="a_Node000002"><a xlink:href="CgiProcess_8hpp.html" target="_top" xlink:title=" ">
<polygon fill="white" stroke="#666666" points="708.5,-189.5 574.5,-189.5 574.5,-170.5 708.5,-170.5 708.5,-189.5"/>
<text text-anchor="middle" x="641.5" y="-177.5" font-family="Helvetica,sans-Serif" font-size="10.00">includes/CgiProcess.hpp</text>
</a>
</g>
</g>
<!-- Node1&#45;&gt;Node2 -->
<g id="edge1_Node000001_Node000002" class="edge">
<title>Node1&#45;&gt;Node2</title>
<g id="a_edge1_Node000001_Node000002"><a xlink:title=" ">
<path fill="none" stroke="#63b8ff" d="M768.26,-279.55C737.29,-255.47 677.35,-208.87 652.6,-189.63"/>
<polygon fill="#63b8ff" stroke="#63b8ff" points="766.48,-282.59 776.53,-285.97 770.78,-277.07 766.48,-282.59"/>
</a>
</g>
</g>
<!-- Node7 -->
<g id="Node000007" class="node">
<title>Node7</title>
<g id="a_Node000007"><a xlink:href="Router_8hpp.html" target="_top" xlink:title=" ">
<polygon fill="white" stroke="#666666" points="402,-74 289,-74 289,-55 402,-55 402,-74"/>
<text text-anchor="middle" x="345.5" y="-62" font-family="Helvetica,sans-Serif" font-size="10.00">includes/Router.hpp</text>
</a>
</g>
</g>
<!-- Node1&#45;&gt;Node7 -->
<g id="edge48_Node000001_Node000007" class="edge">
<title>Node1&#45;&gt;Node7</title>
<g id="a_edge48_Node000001_Node000007"><a xlink:title=" ">
<path fill="none" stroke="#63b8ff" d="M705.99,-289.98C529.86,-278.17 124.12,-239.28 55.5,-129 51.04,-121.83 50,-116.41 55.5,-110 84.94,-75.7 212.97,-67.57 288.72,-65.81"/>
<polygon fill="#63b8ff" stroke="#63b8ff" points="705.77,-293.47 715.98,-290.64 706.23,-286.49 705.77,-293.47"/>
</a>
</g>
</g>
<!-- Node9 -->
<g id="Node000009" class="node">
<title>Node9</title>
<g id="a_Node000009"><a xlink:href="cgi_8cpp.html" target="_top" xlink:title=" ">
<polygon fill="white" stroke="#666666" points="701,-19 610,-19 610,0 701,0 701,-19"/>
<text text-anchor="middle" x="655.5" y="-7" font-family="Helvetica,sans-Serif" font-size="10.00">srcs/cgi/cgi.cpp</text>
</a>
</g>
</g>
<!-- Node1&#45;&gt;Node9 -->
<g id="edge49_Node000001_Node000009" class="edge">
<title>Node1&#45;&gt;Node9</title>
<g id="a_edge49_Node000001_Node000009"><a xlink:title=" ">
<path fill="none" stroke="#63b8ff" d="M729.58,-283.65C655.43,-266.11 531.3,-223.44 487.5,-129 483.95,-121.34 483.32,-117.34 487.5,-110 491.85,-102.36 599.52,-41.74 640.16,-19.04"/>
<polygon fill="#63b8ff" stroke="#63b8ff" points="729.17,-287.14 739.7,-285.96 730.73,-280.32 729.17,-287.14"/>
</a>
</g>
</g>
<!-- Node13 -->
<g id="Node000013" class="node">
<title>Node13</title>
<g id="a_Node000013"><a xlink:href="Config_8hpp.html" target="_top" xlink:title=" ">
<polygon fill="white" stroke="#666666" points="1207.5,-250 1095.5,-250 1095.5,-231 1207.5,-231 1207.5,-250"/>
<text text-anchor="middle" x="1151.5" y="-238" font-family="Helvetica,sans-Serif" font-size="10.00">includes/Config.hpp</text>
</a>
</g>
</g>
<!-- Node1&#45;&gt;Node13 -->
<g id="edge19_Node000001_Node000013" class="edge">
<title>Node1&#45;&gt;Node13</title>
<g id="a_edge19_Node000001_Node000013"><a xlink:title=" ">
<path fill="none" stroke="#63b8ff" d="M855.92,-284.54C925.11,-274.46 1030.78,-259.08 1095.26,-249.69"/>
<polygon fill="#63b8ff" stroke="#63b8ff" points="855.37,-281.08 845.98,-285.98 856.38,-288.01 855.37,-281.08"/>
</a>
</g>
</g>
<!-- Node17 -->
<g id="Node000017" class="node">
<title>Node17</title>
<g id="a_Node000017"><a xlink:href="config_8cpp.html" target="_top" xlink:title=" ">
<polygon fill="white" stroke="#666666" points="1616,-189.5 1495,-189.5 1495,-170.5 1616,-170.5 1616,-189.5"/>
<text text-anchor="middle" x="1555.5" y="-177.5" font-family="Helvetica,sans-Serif" font-size="10.00">srcs/config/config.cpp</text>
</a>
</g>
</g>
<!-- Node1&#45;&gt;Node17 -->
<g id="edge51_Node000001_Node000017" class="edge">
<title>Node1&#45;&gt;Node17</title>
<g id="a_edge51_Node000001_Node000017"><a xlink:title=" ">
<path fill="none" stroke="#63b8ff" d="M869.44,-293.56C956.8,-290.82 1098.51,-281.35 1216.5,-250 1236.69,-244.63 1239.46,-236.91 1259.5,-231 1357.05,-202.21 1385.39,-212.98 1485.5,-195 1494.77,-193.34 1504.71,-191.43 1514.1,-189.56"/>
<polygon fill="#63b8ff" stroke="#63b8ff" points="869.22,-290.07 859.32,-293.86 869.42,-297.06 869.22,-290.07"/>
</a>
</g>
</g>
<!-- Node18 -->
<g id="Node000018" class="node">
<title>Node18</title>
<g id="a_Node000018"><a xlink:href="listen_8cpp.html" target="_top" xlink:title=" ">
<polygon fill="white" stroke="#666666" points="1753,-189.5 1634,-189.5 1634,-170.5 1753,-170.5 1753,-189.5"/>
<text text-anchor="middle" x="1693.5" y="-177.5" font-family="Helvetica,sans-Serif" font-size="10.00">srcs/config/listen.cpp</text>
</a>
</g>
</g>
<!-- Node1&#45;&gt;Node18 -->
<g id="edge52_Node000001_Node000018" class="edge">
<title>Node1&#45;&gt;Node18</title>
<g id="a_edge52_Node000001_Node000018"><a xlink:title=" ">
<path fill="none" stroke="#63b8ff" d="M869.19,-294.93C963.05,-293.54 1120.94,-285.4 1251.5,-250 1270.88,-244.74 1273.15,-236.37 1292.5,-231 1435.94,-191.18 1478.43,-218.04 1625.5,-195 1635.15,-193.49 1645.49,-191.53 1655.14,-189.56"/>
<polygon fill="#63b8ff" stroke="#63b8ff" points="869.14,-291.43 859.19,-295.06 869.23,-298.43 869.14,-291.43"/>
</a>
</g>
</g>
<!-- Node22 -->
<g id="Node000022" class="node">
<title>Node22</title>
<g id="a_Node000022"><a xlink:href="Request_8hpp.html" target="_top" xlink:title=" ">
<polygon fill="white" stroke="#666666" points="848,-189.5 727,-189.5 727,-170.5 848,-170.5 848,-189.5"/>
<text text-anchor="middle" x="787.5" y="-177.5" font-family="Helvetica,sans-Serif" font-size="10.00">includes/Request.hpp</text>
</a>
</g>
</g>
<!-- Node1&#45;&gt;Node22 -->
<g id="edge35_Node000001_Node000022" class="edge">
<title>Node1&#45;&gt;Node22</title>
<g id="a_edge35_Node000001_Node000022"><a xlink:title=" ">
<path fill="none" stroke="#63b8ff" d="M787.5,-275.65C787.5,-250.74 787.5,-207.88 787.5,-189.63"/>
<polygon fill="#63b8ff" stroke="#63b8ff" points="784,-275.97 787.5,-285.97 791,-275.97 784,-275.97"/>
</a>
</g>
</g>
<!-- Node24 -->
<g id="Node000024" class="node">
<title>Node24</title>
<g id="a_Node000024"><a xlink:href="Response_8hpp.html" target="_top" xlink:title=" ">
<polygon fill="white" stroke="#666666" points="326.5,-189.5 198.5,-189.5 198.5,-170.5 326.5,-170.5 326.5,-189.5"/>
<text text-anchor="middle" x="262.5" y="-177.5" font-family="Helvetica,sans-Serif" font-size="10.00">includes/Response.hpp</text>
</a>
</g>
</g>
<!-- Node1&#45;&gt;Node24 -->
<g id="edge42_Node000001_Node000024" class="edge">
<title>Node1&#45;&gt;Node24</title>
<g id="a_edge42_Node000001_Node000024"><a xlink:title=" ">
<path fill="none" stroke="#63b8ff" d="M705.83,-291.77C629.74,-287.57 513.72,-276.94 416.5,-250 363.14,-235.21 304.63,-204.65 277.66,-189.67"/>
<polygon fill="#63b8ff" stroke="#63b8ff" points="705.67,-295.26 715.84,-292.29 706.03,-288.27 705.67,-295.26"/>
</a>
</g>
</g>
<!-- Node26 -->
<g id="Node000026" class="node">
<title>Node26</title>
<g id="a_Node000026"><a xlink:href="ServerConfig_8cpp.html" target="_top" xlink:title=" ">
<polygon fill="white" stroke="#666666" points="1455.5,-250 1301.5,-250 1301.5,-231 1455.5,-231 1455.5,-250"/>
<text text-anchor="middle" x="1378.5" y="-238" font-family="Helvetica,sans-Serif" font-size="10.00">srcs/config/ServerConfig.cpp</text>
</a>
</g>
</g>
<!-- Node1&#45;&gt;Node26 -->
<g id="edge50_Node000001_Node000026" class="edge">
<title>Node1&#45;&gt;Node26</title>
<g id="a_edge50_Node000001_Node000026"><a xlink:title=" ">
<path fill="none" stroke="#63b8ff" d="M869.37,-287.32C968.4,-278.62 1140.18,-263.44 1287.5,-250 1291.92,-249.6 1296.47,-249.18 1301.06,-248.76"/>
<polygon fill="#63b8ff" stroke="#63b8ff" points="868.79,-283.86 859.13,-288.22 869.4,-290.84 868.79,-283.86"/>
</a>
</g>
</g>
<!-- Node3 -->
<g id="Node000003" class="node">
<title>Node3</title>
<g id="a_Node000003"><a xlink:href="Connection_8hpp.html" target="_top" xlink:title=" ">
<polygon fill="white" stroke="#666666" points="632.5,-129 496.5,-129 496.5,-110 632.5,-110 632.5,-129"/>
<text text-anchor="middle" x="564.5" y="-117" font-family="Helvetica,sans-Serif" font-size="10.00">includes/Connection.hpp</text>
</a>
</g>
</g>
<!-- Node2&#45;&gt;Node3 -->
<g id="edge2_Node000002_Node000003" class="edge">
<title>Node2&#45;&gt;Node3</title>
<g id="a_edge2_Node000002_Node000003"><a xlink:title=" ">
<path fill="none" stroke="#63b8ff" d="M621.81,-164.04C607.27,-152.99 587.98,-138.34 575.91,-129.17"/>
<polygon fill="#63b8ff" stroke="#63b8ff" points="620.06,-167.11 630.14,-170.37 624.29,-161.53 620.06,-167.11"/>
</a>
</g>
</g>
<!-- Node4 -->
<g id="Node000004" class="node">
<title>Node4</title>
<g id="a_Node000004"><a xlink:href="EventLoop_8hpp.html" target="_top" xlink:title=" ">
<polygon fill="white" stroke="#666666" points="1034.5,-74 902.5,-74 902.5,-55 1034.5,-55 1034.5,-74"/>
<text text-anchor="middle" x="968.5" y="-62" font-family="Helvetica,sans-Serif" font-size="10.00">includes/EventLoop.hpp</text>
</a>
</g>
</g>
<!-- Node2&#45;&gt;Node4 -->
<g id="edge14_Node000002_Node000004" class="edge">
<title>Node2&#45;&gt;Node4</title>
<g id="a_edge14_Node000002_Node000004"><a xlink:title=" ">
<path fill="none" stroke="#63b8ff" d="M673.66,-166.94C711.35,-152.89 775.75,-129.17 831.5,-110 869.46,-96.95 913.67,-82.77 941.37,-74.01"/>
<polygon fill="#63b8ff" stroke="#63b8ff" points="672.37,-163.69 664.22,-170.46 674.82,-170.24 672.37,-163.69"/>
</a>
</g>
</g>
<!-- Node6 -->
<g id="Node000006" class="node">
<title>Node6</title>
<g id="a_Node000006"><a xlink:href="EventLoop_8cpp.html" target="_top" xlink:title=" ">
<polygon fill="white" stroke="#666666" points="979,-19 826,-19 826,0 979,0 979,-19"/>
<text text-anchor="middle" x="902.5" y="-7" font-family="Helvetica,sans-Serif" font-size="10.00">srcs/network/EventLoop.cpp</text>
</a>
</g>
</g>
<!-- Node2&#45;&gt;Node6 -->
<g id="edge18_Node000002_Node000006" class="edge">
<title>Node2&#45;&gt;Node6</title>
<g id="a_edge18_Node000002_Node000006"><a xlink:title=" ">
<path fill="none" stroke="#63b8ff" d="M663.34,-164.9C715.67,-131.12 847.03,-46.31 889.22,-19.07"/>
<polygon fill="#63b8ff" stroke="#63b8ff" points="661.3,-162.05 654.8,-170.41 665.1,-167.93 661.3,-162.05"/>
</a>
</g>
</g>
<!-- Node8 -->
<g id="Node000008" class="node">
<title>Node8</title>
<g id="a_Node000008"><a xlink:href="CgiProcess_8cpp.html" target="_top" xlink:title=" ">
<polygon fill="white" stroke="#666666" points="416.5,-19 286.5,-19 286.5,0 416.5,0 416.5,-19"/>
<text text-anchor="middle" x="351.5" y="-7" font-family="Helvetica,sans-Serif" font-size="10.00">srcs/cgi/CgiProcess.cpp</text>
</a>
</g>
</g>
<!-- Node2&#45;&gt;Node8 -->
<g id="edge15_Node000002_Node000008" class="edge">
<title>Node2&#45;&gt;Node8</title>
<g id="a_edge15_Node000002_Node000008"><a xlink:title=" ">
<path fill="none" stroke="#63b8ff" d="M588.39,-168.06C557.49,-160.19 518.62,-147.64 487.5,-129 446.78,-104.61 446.62,-85.79 410.5,-55 395.07,-41.85 376.21,-27.98 364.04,-19.29"/>
<polygon fill="#63b8ff" stroke="#63b8ff" points="587.58,-171.46 598.13,-170.45 589.25,-164.66 587.58,-171.46"/>
</a>
</g>
</g>
<!-- Node2&#45;&gt;Node9 -->
<g id="edge16_Node000002_Node000009" class="edge">
<title>Node2&#45;&gt;Node9</title>
<g id="a_edge16_Node000002_Node000009"><a xlink:title=" ">
<path fill="none" stroke="#63b8ff" d="M643.06,-160.24C646.07,-123.98 652.59,-45.54 654.77,-19.27"/>
<polygon fill="#63b8ff" stroke="#63b8ff" points="639.55,-160.16 642.21,-170.41 646.53,-160.74 639.55,-160.16"/>
</a>
</g>
</g>
<!-- Node10 -->
<g id="Node000010" class="node">
<title>Node10</title>
<g id="a_Node000010"><a xlink:href="Router_8cpp.html" target="_top" xlink:title=" ">
<polygon fill="white" stroke="#666666" points="113,-19 0,-19 0,0 113,0 113,-19"/>
<text text-anchor="middle" x="56.5" y="-7" font-family="Helvetica,sans-Serif" font-size="10.00">srcs/http/Router.cpp</text>
</a>
</g>
</g>
<!-- Node2&#45;&gt;Node10 -->
<g id="edge17_Node000002_Node000010" class="edge">
<title>Node2&#45;&gt;Node10</title>
<g id="a_edge17_Node000002_Node000010"><a xlink:title=" ">
<path fill="none" stroke="#63b8ff" d="M599.42,-167.76C562.28,-157.78 506.72,-142.69 458.5,-129 317.81,-89.05 150.23,-38.78 84.71,-19.03"/>
<polygon fill="#63b8ff" stroke="#63b8ff" points="598.81,-171.22 609.38,-170.43 600.63,-164.46 598.81,-171.22"/>
</a>
</g>
</g>
<!-- Node3&#45;&gt;Node4 -->
<g id="edge3_Node000003_Node000004" class="edge">
<title>Node3&#45;&gt;Node4</title>
<g id="a_edge3_Node000003_Node000004"><a xlink:title=" ">
<path fill="none" stroke="#63b8ff" d="M639.37,-108.68C715.2,-98.73 831.3,-83.5 903.42,-74.04"/>
<polygon fill="#63b8ff" stroke="#63b8ff" points="638.87,-105.21 629.41,-109.98 639.78,-112.15 638.87,-105.21"/>
</a>
</g>
</g>
<!-- Node3&#45;&gt;Node7 -->
<g id="edge6_Node000003_Node000007" class="edge">
<title>Node3&#45;&gt;Node7</title>
<g id="a_edge6_Node000003_Node000007"><a xlink:title=" ">
<path fill="none" stroke="#63b8ff" d="M519.57,-107.63C478.55,-97.7 418.71,-83.22 380.96,-74.08"/>
<polygon fill="#63b8ff" stroke="#63b8ff" points="518.77,-111.03 529.31,-109.98 520.42,-104.23 518.77,-111.03"/>
</a>
</g>
</g>
<!-- Node3&#45;&gt;Node9 -->
<g id="edge12_Node000003_Node000009" class="edge">
<title>Node3&#45;&gt;Node9</title>
<g id="a_edge12_Node000003_Node000009"><a xlink:title=" ">
<path fill="none" stroke="#63b8ff" d="M578.4,-102C598.01,-78.73 633.06,-37.13 648.2,-19.16"/>
<polygon fill="#63b8ff" stroke="#63b8ff" points="575.71,-99.76 571.95,-109.66 581.07,-104.27 575.71,-99.76"/>
</a>
</g>
</g>
<!-- Node12 -->
<g id="Node000012" class="node">
<title>Node12</title>
<g id="a_Node000012"><a xlink:href="Connection_8cpp.html" target="_top" xlink:title=" ">
<polygon fill="white" stroke="#666666" points="592,-19 435,-19 435,0 592,0 592,-19"/>
<text text-anchor="middle" x="513.5" y="-7" font-family="Helvetica,sans-Serif" font-size="10.00">srcs/network/Connection.cpp</text>
</a>
</g>
</g>
<!-- Node3&#45;&gt;Node12 -->
<g id="edge13_Node000003_Node000012" class="edge">
<title>Node3&#45;&gt;Node12</title>
<g id="a_edge13_Node000003_Node000012"><a xlink:title=" ">
<path fill="none" stroke="#63b8ff" d="M555.97,-100.44C544.87,-76.92 525.89,-36.73 517.59,-19.16"/>
<polygon fill="#63b8ff" stroke="#63b8ff" points="552.89,-102.11 560.33,-109.66 559.22,-99.12 552.89,-102.11"/>
</a>
</g>
</g>
<!-- Node5 -->
<g id="Node000005" class="node">
<title>Node5</title>
<g id="a_Node000005"><a xlink:href="main_8cpp.html" target="_top" xlink:title=" ">
<polygon fill="white" stroke="#666666" points="1171.5,-19 1087.5,-19 1087.5,0 1171.5,0 1171.5,-19"/>
<text text-anchor="middle" x="1129.5" y="-7" font-family="Helvetica,sans-Serif" font-size="10.00">srcs/main.cpp</text>
</a>
</g>
</g>
<!-- Node4&#45;&gt;Node5 -->
<g id="edge4_Node000004_Node000005" class="edge">
<title>Node4&#45;&gt;Node5</title>
<g id="a_edge4_Node000004_Node000005"><a xlink:title=" ">
<path fill="none" stroke="#63b8ff" d="M1004.05,-51.8C1034.09,-41.91 1076.44,-27.97 1103.43,-19.08"/>
<polygon fill="#63b8ff" stroke="#63b8ff" points="1002.77,-48.53 994.37,-54.98 1004.96,-55.18 1002.77,-48.53"/>
</a>
</g>
</g>
<!-- Node4&#45;&gt;Node6 -->
<g id="edge5_Node000004_Node000006" class="edge">
<title>Node4&#45;&gt;Node6</title>
<g id="a_edge5_Node000004_Node000006"><a xlink:title=" ">
<path fill="none" stroke="#63b8ff" d="M949.95,-48.6C938.12,-39.11 923.21,-27.13 913.3,-19.17"/>
<polygon fill="#63b8ff" stroke="#63b8ff" points="947.91,-51.45 957.9,-54.98 952.29,-45.99 947.91,-51.45"/>
</a>
</g>
</g>
<!-- Node7&#45;&gt;Node8 -->
<g id="edge7_Node000007_Node000008" class="edge">
<title>Node7&#45;&gt;Node8</title>
<g id="a_edge7_Node000007_Node000008"><a xlink:title=" ">
<path fill="none" stroke="#63b8ff" d="M347.63,-44.66C348.62,-35.93 349.75,-25.99 350.53,-19.09"/>
<polygon fill="#63b8ff" stroke="#63b8ff" points="344.14,-44.42 346.49,-54.75 351.09,-45.21 344.14,-44.42"/>
</a>
</g>
</g>
<!-- Node7&#45;&gt;Node9 -->
<g id="edge8_Node000007_Node000009" class="edge">
<title>Node7&#45;&gt;Node9</title>
<g id="a_edge8_Node000007_Node000009"><a xlink:title=" ">
<path fill="none" stroke="#63b8ff" d="M405.36,-53.27C465.12,-43.05 555.67,-27.57 609.86,-18.3"/>
<polygon fill="#63b8ff" stroke="#63b8ff" points="404.57,-49.85 395.31,-54.98 405.75,-56.75 404.57,-49.85"/>
</a>
</g>
</g>
<!-- Node7&#45;&gt;Node10 -->
<g id="edge9_Node000007_Node000010" class="edge">
<title>Node7&#45;&gt;Node10</title>
<g id="a_edge9_Node000007_Node000010"><a xlink:title=" ">
<path fill="none" stroke="#63b8ff" d="M288.94,-53.13C234.76,-43.19 153.96,-28.37 103.3,-19.08"/>
<polygon fill="#63b8ff" stroke="#63b8ff" points="288.6,-56.62 299.07,-54.98 289.86,-49.74 288.6,-56.62"/>
</a>
</g>
</g>
<!-- Node11 -->
<g id="Node000011" class="node">
<title>Node11</title>
<g id="a_Node000011"><a xlink:href="RouterUtils_8cpp.html" target="_top" xlink:title=" ">
<polygon fill="white" stroke="#666666" points="268,-19 131,-19 131,0 268,0 268,-19"/>
<text text-anchor="middle" x="199.5" y="-7" font-family="Helvetica,sans-Serif" font-size="10.00">srcs/http/RouterUtils.cpp</text>
</a>
</g>
</g>
<!-- Node7&#45;&gt;Node11 -->
<g id="edge10_Node000007_Node000011" class="edge">
<title>Node7&#45;&gt;Node11</title>
<g id="a_edge10_Node000007_Node000011"><a xlink:title=" ">
<path fill="none" stroke="#63b8ff" d="M312.58,-51.55C285.47,-41.71 247.67,-27.98 223.38,-19.17"/>
<polygon fill="#63b8ff" stroke="#63b8ff" points="311.45,-54.86 322.04,-54.98 313.84,-48.28 311.45,-54.86"/>
</a>
</g>
</g>
<!-- Node7&#45;&gt;Node12 -->
<g id="edge11_Node000007_Node000012" class="edge">
<title>Node7&#45;&gt;Node12</title>
<g id="a_edge11_Node000007_Node000012"><a xlink:title=" ">
<path fill="none" stroke="#63b8ff" d="M382.18,-51.93C413.56,-42.03 458.01,-28.01 486.3,-19.08"/>
<polygon fill="#63b8ff" stroke="#63b8ff" points="380.98,-48.64 372.49,-54.98 383.08,-55.31 380.98,-48.64"/>
</a>
</g>
</g>
<!-- Node13&#45;&gt;Node2 -->
<g id="edge20_Node000013_Node000002" class="edge">
<title>Node13&#45;&gt;Node2</title>
<g id="a_edge20_Node000013_Node000002"><a xlink:title=" ">
<path fill="none" stroke="#63b8ff" d="M1085.24,-234.3C1000.12,-227.24 847.91,-213.39 718.5,-195 707.6,-193.45 695.89,-191.48 684.98,-189.51"/>
<polygon fill="#63b8ff" stroke="#63b8ff" points="1085.03,-237.79 1095.28,-235.12 1085.6,-230.81 1085.03,-237.79"/>
</a>
</g>
</g>
<!-- Node13&#45;&gt;Node4 -->
<g id="edge21_Node000013_Node000004" class="edge">
<title>Node13&#45;&gt;Node4</title>
<g id="a_edge21_Node000013_Node000004"><a xlink:title=" ">
<path fill="none" stroke="#63b8ff" d="M1167.42,-223.34C1174.07,-215.47 1181.04,-205.46 1184.5,-195 1196.35,-159.13 1208.37,-139.28 1184.5,-110 1165.81,-87.07 1091.01,-75.61 1034.63,-70.13"/>
<polygon fill="#63b8ff" stroke="#63b8ff" points="1164.64,-221.2 1160.52,-230.96 1169.83,-225.9 1164.64,-221.2"/>
</a>
</g>
</g>
<!-- Node13&#45;&gt;Node5 -->
<g id="edge34_Node000013_Node000005" class="edge">
<title>Node13&#45;&gt;Node5</title>
<g id="a_edge34_Node000013_Node000005"><a xlink:title=" ">
<path fill="none" stroke="#63b8ff" d="M1183.57,-227.02C1204.17,-218.66 1231.32,-207.03 1254.5,-195 1277.17,-183.24 1280.68,-176.45 1303.5,-165 1342.01,-145.68 1369.35,-164.67 1393.5,-129 1398.23,-122.01 1397.47,-117.45 1393.5,-110 1351.37,-31.02 1234.86,-14.1 1171.63,-10.88"/>
<polygon fill="#63b8ff" stroke="#63b8ff" points="1182,-223.87 1174.02,-230.84 1184.61,-230.37 1182,-223.87"/>
</a>
</g>
</g>
<!-- Node13&#45;&gt;Node7 -->
<g id="edge26_Node000013_Node000007" class="edge">
<title>Node13&#45;&gt;Node7</title>
<g id="a_edge26_Node000013_Node000007"><a xlink:title=" ">
<path fill="none" stroke="#63b8ff" d="M1085.04,-238.23C952.69,-235.07 660.74,-224.87 565.5,-195 477.12,-167.28 386.41,-98.51 356.09,-74.19"/>
<polygon fill="#63b8ff" stroke="#63b8ff" points="1084.97,-241.73 1095.05,-238.46 1085.14,-234.73 1084.97,-241.73"/>
</a>
</g>
</g>
<!-- Node13&#45;&gt;Node9 -->
<g id="edge27_Node000013_Node000009" class="edge">
<title>Node13&#45;&gt;Node9</title>
<g id="a_edge27_Node000013_Node000009"><a xlink:title=" ">
<path fill="none" stroke="#63b8ff" d="M1158.13,-221.37C1166.94,-193.73 1178.47,-140.99 1151.5,-110 1113.5,-66.33 950.24,-85.48 893.5,-74 816.38,-58.39 727.17,-32.42 683.09,-19.04"/>
<polygon fill="#63b8ff" stroke="#63b8ff" points="1154.78,-220.35 1154.86,-230.94 1161.4,-222.61 1154.78,-220.35"/>
</a>
</g>
</g>
<!-- Node14 -->
<g id="Node000014" class="node">
<title>Node14</title>
<g id="a_Node000014"><a xlink:href="ListenSockets_8hpp.html" target="_top" xlink:title=" ">
<polygon fill="white" stroke="#666666" points="1384.5,-129 1236.5,-129 1236.5,-110 1384.5,-110 1384.5,-129"/>
<text text-anchor="middle" x="1310.5" y="-117" font-family="Helvetica,sans-Serif" font-size="10.00">includes/ListenSockets.hpp</text>
</a>
</g>
</g>
<!-- Node13&#45;&gt;Node14 -->
<g id="edge22_Node000013_Node000014" class="edge">
<title>Node13&#45;&gt;Node14</title>
<g id="a_edge22_Node000013_Node000014"><a xlink:title=" ">
<path fill="none" stroke="#63b8ff" d="M1175.6,-225.56C1189.61,-217.18 1207.42,-206.02 1222.5,-195 1252.72,-172.91 1285.75,-143.34 1301.35,-129"/>
<polygon fill="#63b8ff" stroke="#63b8ff" points="1173.42,-222.79 1166.59,-230.89 1176.98,-228.82 1173.42,-222.79"/>
</a>
</g>
</g>
<!-- Node16 -->
<g id="Node000016" class="node">
<title>Node16</title>
<g id="a_Node000016"><a xlink:href="LocationConfig_8cpp.html" target="_top" xlink:title=" ">
<polygon fill="white" stroke="#666666" points="1476.5,-189.5 1312.5,-189.5 1312.5,-170.5 1476.5,-170.5 1476.5,-189.5"/>
<text text-anchor="middle" x="1394.5" y="-177.5" font-family="Helvetica,sans-Serif" font-size="10.00">srcs/config/LocationConfig.cpp</text>
</a>
</g>
</g>
<!-- Node13&#45;&gt;Node16 -->
<g id="edge28_Node000013_Node000016" class="edge">
<title>Node13&#45;&gt;Node16</title>
<g id="a_edge28_Node000013_Node000016"><a xlink:title=" ">
<path fill="none" stroke="#63b8ff" d="M1196.74,-228.61C1243.7,-217.3 1316.18,-199.85 1359.12,-189.52"/>
<polygon fill="#63b8ff" stroke="#63b8ff" points="1195.74,-225.25 1186.83,-230.99 1197.38,-232.06 1195.74,-225.25"/>
</a>
</g>
</g>
<!-- Node13&#45;&gt;Node17 -->
<g id="edge29_Node000013_Node000017" class="edge">
<title>Node13&#45;&gt;Node17</title>
<g id="a_edge29_Node000013_Node000017"><a xlink:title=" ">
<path fill="none" stroke="#63b8ff" d="M1217.59,-231.21C1299.8,-220.81 1435.44,-203.33 1485.5,-195 1495.16,-193.39 1505.52,-191.44 1515.23,-189.52"/>
<polygon fill="#63b8ff" stroke="#63b8ff" points="1217.08,-227.75 1207.59,-232.48 1217.95,-234.69 1217.08,-227.75"/>
</a>
</g>
</g>
<!-- Node13&#45;&gt;Node18 -->
<g id="edge30_Node000013_Node000018" class="edge">
<title>Node13&#45;&gt;Node18</title>
<g id="a_edge30_Node000013_Node000018"><a xlink:title=" ">
<path fill="none" stroke="#63b8ff" d="M1218,-234.16C1329.32,-225.08 1548.71,-206.47 1625.5,-195 1635.39,-193.52 1646.02,-191.53 1655.86,-189.51"/>
<polygon fill="#63b8ff" stroke="#63b8ff" points="1217.59,-230.68 1207.9,-234.98 1218.15,-237.66 1217.59,-230.68"/>
</a>
</g>
</g>
<!-- Node19 -->
<g id="Node000019" class="node">
<title>Node19</title>
<g id="a_Node000019"><a xlink:href="resolve__server_8cpp.html" target="_top" xlink:title=" ">
<polygon fill="white" stroke="#666666" points="973,-195 866,-195 866,-165 973,-165 973,-195"/>
<text text-anchor="start" x="874" y="-183" font-family="Helvetica,sans-Serif" font-size="10.00">srcs/config/resolve</text>
<text text-anchor="middle" x="919.5" y="-172" font-family="Helvetica,sans-Serif" font-size="10.00">_server.cpp</text>
</a>
</g>
</g>
<!-- Node13&#45;&gt;Node19 -->
<g id="edge31_Node000013_Node000019" class="edge">
<title>Node13&#45;&gt;Node19</title>
<g id="a_edge31_Node000013_Node000019"><a xlink:title=" ">
<path fill="none" stroke="#63b8ff" d="M1107.96,-228.52C1069.73,-218.88 1013.99,-204.83 973.05,-194.5"/>
<polygon fill="#63b8ff" stroke="#63b8ff" points="1107.21,-231.94 1117.77,-230.99 1108.92,-225.15 1107.21,-231.94"/>
</a>
</g>
</g>
<!-- Node20 -->
<g id="Node000020" class="node">
<title>Node20</title>
<g id="a_Node000020"><a xlink:href="utils_8cpp.html" target="_top" xlink:title=" ">
<polygon fill="white" stroke="#666666" points="1104,-189.5 991,-189.5 991,-170.5 1104,-170.5 1104,-189.5"/>
<text text-anchor="middle" x="1047.5" y="-177.5" font-family="Helvetica,sans-Serif" font-size="10.00">srcs/config/utils.cpp</text>
</a>
</g>
</g>
<!-- Node13&#45;&gt;Node20 -->
<g id="edge32_Node000013_Node000020" class="edge">
<title>Node13&#45;&gt;Node20</title>
<g id="a_edge32_Node000013_Node000020"><a xlink:title=" ">
<path fill="none" stroke="#63b8ff" d="M1127.36,-225.92C1107.49,-214.74 1079.91,-199.23 1062.91,-189.67"/>
<polygon fill="#63b8ff" stroke="#63b8ff" points="1125.72,-229.02 1136.15,-230.87 1129.15,-222.91 1125.72,-229.02"/>
</a>
</g>
</g>
<!-- Node21 -->
<g id="Node000021" class="node">
<title>Node21</title>
<g id="a_Node000021"><a xlink:href="Request_8cpp.html" target="_top" xlink:title=" ">
<polygon fill="white" stroke="#666666" points="1142.5,-129 1020.5,-129 1020.5,-110 1142.5,-110 1142.5,-129"/>
<text text-anchor="middle" x="1081.5" y="-117" font-family="Helvetica,sans-Serif" font-size="10.00">srcs/http/Request.cpp</text>
</a>
</g>
</g>
<!-- Node13&#45;&gt;Node21 -->
<g id="edge33_Node000013_Node000021" class="edge">
<title>Node13&#45;&gt;Node21</title>
<g id="a_edge33_Node000013_Node000021"><a xlink:title=" ">
<path fill="none" stroke="#63b8ff" d="M1143.11,-221.17C1135.86,-205.83 1124.8,-183.53 1113.5,-165 1105.57,-152 1095.06,-137.87 1088.28,-129.1"/>
<polygon fill="#63b8ff" stroke="#63b8ff" points="1140.08,-222.96 1147.47,-230.55 1146.43,-220.01 1140.08,-222.96"/>
</a>
</g>
</g>
<!-- Node14&#45;&gt;Node4 -->
<g id="edge23_Node000014_Node000004" class="edge">
<title>Node14&#45;&gt;Node4</title>
<g id="a_edge23_Node000014_Node000004"><a xlink:title=" ">
<path fill="none" stroke="#63b8ff" d="M1245.54,-108.43C1181.32,-98.48 1084.14,-83.42 1023.6,-74.04"/>
<polygon fill="#63b8ff" stroke="#63b8ff" points="1245.13,-111.91 1255.55,-109.98 1246.21,-104.99 1245.13,-111.91"/>
</a>
</g>
</g>
<!-- Node14&#45;&gt;Node5 -->
<g id="edge24_Node000014_Node000005" class="edge">
<title>Node14&#45;&gt;Node5</title>
<g id="a_edge24_Node000014_Node000005"><a xlink:title=" ">
<path fill="none" stroke="#63b8ff" d="M1309.95,-99.69C1308.52,-85.56 1304.32,-66.71 1292.5,-55 1260.51,-23.32 1208.28,-13.63 1171.58,-10.95"/>
<polygon fill="#63b8ff" stroke="#63b8ff" points="1306.46,-100.02 1310.58,-109.78 1313.45,-99.58 1306.46,-100.02"/>
</a>
</g>
</g>
<!-- Node15 -->
<g id="Node000015" class="node">
<title>Node15</title>
<g id="a_Node000015"><a xlink:href="ListenSockets_8cpp.html" target="_top" xlink:title=" ">
<polygon fill="white" stroke="#666666" points="1283,-74 1114,-74 1114,-55 1283,-55 1283,-74"/>
<text text-anchor="middle" x="1198.5" y="-62" font-family="Helvetica,sans-Serif" font-size="10.00">srcs/network/ListenSockets.cpp</text>
</a>
</g>
</g>
<!-- Node14&#45;&gt;Node15 -->
<g id="edge25_Node000014_Node000015" class="edge">
<title>Node14&#45;&gt;Node15</title>
<g id="a_edge25_Node000014_Node000015"><a xlink:title=" ">
<path fill="none" stroke="#63b8ff" d="M1283.31,-105.63C1262.68,-95.87 1234.88,-82.71 1216.82,-74.17"/>
<polygon fill="#63b8ff" stroke="#63b8ff" points="1281.97,-108.87 1292.51,-109.98 1284.96,-102.54 1281.97,-108.87"/>
</a>
</g>
</g>
<!-- Node22&#45;&gt;Node3 -->
<g id="edge36_Node000022_Node000003" class="edge">
<title>Node22&#45;&gt;Node3</title>
<g id="a_edge36_Node000022_Node000003"><a xlink:title=" ">
<path fill="none" stroke="#63b8ff" d="M745.17,-167.9C702.05,-156.58 636.12,-139.29 596.97,-129.02"/>
<polygon fill="#63b8ff" stroke="#63b8ff" points="744.51,-171.34 755.07,-170.49 746.29,-164.57 744.51,-171.34"/>
</a>
</g>
</g>
<!-- Node22&#45;&gt;Node5 -->
<g id="edge41_Node000022_Node000005" class="edge">
<title>Node22&#45;&gt;Node5</title>
<g id="a_edge41_Node000022_Node000005"><a xlink:title=" ">
<path fill="none" stroke="#63b8ff" d="M836.01,-168.2C882.63,-157.42 949.45,-140.8 973.5,-129 1036.09,-98.29 1098.48,-40.78 1120.85,-19.08"/>
<polygon fill="#63b8ff" stroke="#63b8ff" points="835.06,-164.83 826.1,-170.47 836.63,-171.65 835.06,-164.83"/>
</a>
</g>
</g>
<!-- Node22&#45;&gt;Node8 -->
<g id="edge37_Node000022_Node000008" class="edge">
<title>Node22&#45;&gt;Node8</title>
<g id="a_edge37_Node000022_Node000008"><a xlink:title=" ">
<path fill="none" stroke="#63b8ff" d="M761.68,-165.73C732.8,-151.14 684.44,-127.45 641.5,-110 547.31,-71.72 432.24,-35.18 379.88,-19.08"/>
<polygon fill="#63b8ff" stroke="#63b8ff" points="760.19,-168.9 770.69,-170.3 763.36,-162.65 760.19,-168.9"/>
</a>
</g>
</g>
<!-- Node22&#45;&gt;Node9 -->
<g id="edge38_Node000022_Node000009" class="edge">
<title>Node22&#45;&gt;Node9</title>
<g id="a_edge38_Node000022_Node000009"><a xlink:title=" ">
<path fill="none" stroke="#63b8ff" d="M792.2,-160.58C794.89,-146.06 796.37,-125.71 788.5,-110 765.13,-63.33 708.32,-32.91 677.04,-19.1"/>
<polygon fill="#63b8ff" stroke="#63b8ff" points="788.77,-159.85 790.04,-170.37 795.61,-161.36 788.77,-159.85"/>
</a>
</g>
</g>
<!-- Node22&#45;&gt;Node21 -->
<g id="edge39_Node000022_Node000021" class="edge">
<title>Node22&#45;&gt;Node21</title>
<g id="a_edge39_Node000022_Node000021"><a xlink:title=" ">
<path fill="none" stroke="#63b8ff" d="M839.95,-168.5C845.87,-167.32 851.82,-166.13 857.5,-165 920.49,-152.44 993.46,-137.96 1038.55,-129.01"/>
<polygon fill="#63b8ff" stroke="#63b8ff" points="839.19,-165.09 830.07,-170.48 840.56,-171.95 839.19,-165.09"/>
</a>
</g>
</g>
<!-- Node23 -->
<g id="Node000023" class="node">
<title>Node23</title>
<g id="a_Node000023"><a xlink:href="httpUtils_8cpp.html" target="_top" xlink:title=" ">
<polygon fill="white" stroke="#666666" points="964.5,-129 840.5,-129 840.5,-110 964.5,-110 964.5,-129"/>
<text text-anchor="middle" x="902.5" y="-117" font-family="Helvetica,sans-Serif" font-size="10.00">srcs/http/httpUtils.cpp</text>
</a>
</g>
</g>
<!-- Node22&#45;&gt;Node23 -->
<g id="edge40_Node000022_Node000023" class="edge">
<title>Node22&#45;&gt;Node23</title>
<g id="a_edge40_Node000022_Node000023"><a xlink:title=" ">
<path fill="none" stroke="#63b8ff" d="M813.59,-165.73C835.61,-154.53 866.49,-138.82 885.46,-129.17"/>
<polygon fill="#63b8ff" stroke="#63b8ff" points="811.79,-162.71 804.47,-170.37 814.97,-168.95 811.79,-162.71"/>
</a>
</g>
</g>
<!-- Node24&#45;&gt;Node3 -->
<g id="edge43_Node000024_Node000003" class="edge">
<title>Node24&#45;&gt;Node3</title>
<g id="a_edge43_Node000024_Node000003"><a xlink:title=" ">
<path fill="none" stroke="#63b8ff" d="M316.53,-168.53C374.82,-157.24 466.49,-139.48 520.53,-129.02"/>
<polygon fill="#63b8ff" stroke="#63b8ff" points="315.57,-165.16 306.41,-170.49 316.9,-172.03 315.57,-165.16"/>
</a>
</g>
</g>
<!-- Node24&#45;&gt;Node7 -->
<g id="edge44_Node000024_Node000007" class="edge">
<title>Node24&#45;&gt;Node7</title>
<g id="a_edge44_Node000024_Node000007"><a xlink:title=" ">
<path fill="none" stroke="#63b8ff" d="M274.83,-162.14C292.78,-137.59 325.48,-92.87 339.19,-74.13"/>
<polygon fill="#63b8ff" stroke="#63b8ff" points="271.82,-160.33 268.74,-170.47 277.47,-164.46 271.82,-160.33"/>
</a>
</g>
</g>
<!-- Node24&#45;&gt;Node8 -->
<g id="edge45_Node000024_Node000008" class="edge">
<title>Node24&#45;&gt;Node8</title>
<g id="a_edge45_Node000024_Node000008"><a xlink:title=" ">
<path fill="none" stroke="#63b8ff" d="M260.36,-160.03C258.43,-134.13 258.54,-87.22 279.5,-55 290.72,-37.75 311.2,-26.06 327.46,-19.01"/>
<polygon fill="#63b8ff" stroke="#63b8ff" points="256.91,-160.7 261.33,-170.33 263.88,-160.05 256.91,-160.7"/>
</a>
</g>
</g>
<!-- Node24&#45;&gt;Node9 -->
<g id="edge46_Node000024_Node000009" class="edge">
<title>Node24&#45;&gt;Node9</title>
<g id="a_edge46_Node000024_Node000009"><a xlink:title=" ">
<path fill="none" stroke="#63b8ff" d="M290.66,-166.11C321.46,-152.08 372.33,-129.08 416.5,-110 496.54,-75.41 592.52,-36.11 634.32,-19.1"/>
<polygon fill="#63b8ff" stroke="#63b8ff" points="289.04,-163 281.39,-170.34 291.95,-169.37 289.04,-163"/>
</a>
</g>
</g>
<!-- Node25 -->
<g id="Node000025" class="node">
<title>Node25</title>
<g id="a_Node000025"><a xlink:href="Response_8cpp.html" target="_top" xlink:title=" ">
<polygon fill="white" stroke="#666666" points="194,-129 65,-129 65,-110 194,-110 194,-129"/>
<text text-anchor="middle" x="129.5" y="-117" font-family="Helvetica,sans-Serif" font-size="10.00">srcs/http/Response.cpp</text>
</a>
</g>
</g>
<!-- Node24&#45;&gt;Node25 -->
<g id="edge47_Node000024_Node000025" class="edge">
<title>Node24&#45;&gt;Node25</title>
<g id="a_edge47_Node000024_Node000025"><a xlink:title=" ">
<path fill="none" stroke="#63b8ff" d="M233.93,-166.43C208.25,-155.14 171.23,-138.86 148.86,-129.02"/>
<polygon fill="#63b8ff" stroke="#63b8ff" points="232.6,-169.67 243.16,-170.49 235.42,-163.26 232.6,-169.67"/>
</a>
</g>
</g>
</g>
</svg>
